<svg width="271" height="214" viewBox="0 0 271 214" fill="none" xmlns="http://www.w3.org/2000/svg">
<path d="M270.927 37.4014C270.731 33.7746 270.072 30.1746 268.53 26.8433C267.142 23.8344 265.011 21.1478 262.53 18.8777C257.763 14.5121 251.651 11.5838 245.216 10.2942C238.01 8.85694 230.398 9.40768 223.585 12.1211C223.122 12.3091 223.094 12.8464 223.332 13.1151C202.556 18.9583 202.275 32.5119 192.266 35.5208C166.975 43.0969 139.694 44.4804 113.703 39.5103C101.688 37.2268 89.9682 33.5865 77.8697 31.7462C65.7712 29.906 52.9437 29.9731 41.7844 34.8223C33.1627 38.57 26.1952 44.8968 20.6997 52.352C16.8304 55.5624 13.4237 59.2026 10.5078 63.2996C6.48428 68.9682 3.4982 75.3487 1.77385 81.9979C-0.00658136 88.8486 -0.553327 96.1291 0.62428 103.128C1.25514 106.889 2.51686 110.569 4.60571 113.833C6.37212 116.574 8.67126 118.978 11.2788 121.006C13.3116 122.578 15.4846 123.935 17.7697 125.117C28.5083 135.635 44.7986 140.229 60.1775 143.264C77.7155 146.73 96.417 149.47 110.212 160.405C116.605 165.482 121.581 172.064 128.114 176.98C142.203 187.579 161.494 188.962 179.382 187.982C190.541 187.364 201.939 185.927 211.822 180.93C216.505 178.566 220.823 175.261 224.159 171.312C224.412 171.473 224.776 171.5 225.057 171.231C230.286 166.382 235.585 161.197 238.389 154.642C239.903 151.109 240.365 147.375 240.113 143.587C239.847 139.57 239.02 135.594 238.697 131.578C237.828 120.939 239.048 110.166 242.216 99.9306C242.777 99.2724 243.337 98.6142 243.884 97.9694C249.772 90.9978 255.184 83.5158 259.123 75.4159C267.24 64.5623 271.628 50.7804 270.927 37.4014ZM12.7508 65.8653C4.63375 83.2069 2.12433 104.793 13.5639 120.308C13.8023 120.644 14.0546 120.966 14.307 121.289C8.55911 117.42 4.40944 112.047 2.72715 105.465C0.988777 98.6813 1.2972 91.3068 2.7692 84.5098C4.1571 78.0487 6.7226 71.8428 10.2694 66.2011C12.4144 62.7892 14.9518 59.5385 17.8258 56.5833C15.9191 59.5653 14.2369 62.6951 12.7508 65.8653ZM227.229 126.205C227.874 119.609 231.183 113.807 235.276 108.366C235.01 111.429 234.926 114.478 234.87 117.447C234.688 127.723 234.996 138.429 230.622 148.046C230.566 148.154 230.524 148.261 230.468 148.382C229.318 140.994 226.501 133.66 227.229 126.205ZM238.851 106.66C237.309 113.578 236.608 120.697 236.847 127.777C236.973 131.484 237.421 135.151 237.94 138.818C238.515 142.888 238.949 147.039 237.898 151.069C236.244 157.396 231.772 162.527 227.103 167.201C229.15 163.803 230.482 160.069 230.832 156.133C230.987 154.44 230.945 152.761 230.804 151.082C233.061 146.985 234.463 142.391 235.206 137.851C236.917 127.4 235.711 116.775 236.903 106.284C237.856 105.089 238.837 103.907 239.819 102.738C239.468 104.041 239.146 105.344 238.851 106.66ZM267.268 55.5758C266.091 59.6997 264.45 63.6892 262.418 67.4772C262.53 67.1682 262.628 66.8593 262.726 66.5503C266.497 54.9311 266.679 41.9148 261.212 30.9403C255.744 19.9658 244.038 11.5435 231.351 11.4629C229.697 11.7047 228.141 11.9868 226.683 12.3091C237.842 8.9644 250.712 11.1271 259.768 18.327C262.347 20.3822 264.633 22.8135 266.287 25.6209C268.081 28.6702 268.992 32.1089 269.343 35.5746C270.002 42.2372 269.119 49.1281 267.268 55.5758Z" fill="#BBE8FB"/>
<path d="M270.927 37.4015C270.731 33.7746 270.072 30.1747 268.53 26.8434C267.142 23.8344 265.011 21.1479 262.53 18.8778C260.917 17.4002 259.151 16.0972 257.272 14.9554C256.754 15.1435 256.221 15.345 255.716 15.5599C257.132 16.3793 258.478 17.2793 259.768 18.3002C262.347 20.3554 264.633 22.7867 266.287 25.5941C268.081 28.6433 268.992 32.0821 269.343 35.5478C270.002 42.2238 269.119 49.1148 267.268 55.5625C266.091 59.6863 264.45 63.6758 262.418 67.4638C262.53 67.1549 262.628 66.8459 262.726 66.537C266.497 54.9177 266.679 41.9014 261.212 30.9269C258.773 26.024 255.086 21.6449 250.627 18.2733C245.595 21.5375 241.305 26.1314 238.277 31.1687C232.052 41.5253 229.865 53.5878 226.781 65.1803C223.416 77.807 218.734 90.3262 210.729 100.871C202.724 111.402 191.018 119.838 177.602 121.987C168.111 123.518 158.339 121.866 149.199 119.032C127.792 112.41 109.216 99.5545 89.5616 89.0636C74.6733 81.1249 58.8317 74.4219 42.0088 71.7488C31.4664 70.0832 20.4894 70.0966 10.0872 72.2861C4.24122 88.3113 3.51222 106.647 13.5639 120.308C13.8023 120.644 14.0546 120.966 14.307 121.289C8.55911 117.42 4.40944 112.047 2.72715 105.465C0.988777 98.6814 1.2972 91.3068 2.7692 84.5099C3.61035 80.601 4.8861 76.7861 6.54035 73.1324C5.90949 73.2936 5.29265 73.4682 4.67581 73.6563C3.48418 76.3697 2.51686 79.1771 1.77385 82.0383C-0.00658136 88.8889 -0.553327 96.1695 0.62428 103.168C1.25514 106.929 2.51686 110.61 4.60571 113.874C6.37212 116.614 8.67126 119.018 11.2788 121.047C13.3116 122.618 15.4846 123.975 17.7697 125.157C28.5083 135.675 44.7986 140.269 60.1775 143.305C77.7155 146.77 96.417 149.511 110.212 160.445C116.605 165.522 121.581 172.104 128.114 177.021C142.203 187.619 161.494 189.003 179.382 188.022C190.541 187.404 201.939 185.967 211.822 180.97C216.505 178.606 220.823 175.301 224.159 171.352C224.412 171.513 224.776 171.54 225.057 171.272C230.286 166.422 235.585 161.237 238.389 154.682C239.903 151.149 240.365 147.415 240.113 143.627C239.847 139.611 239.02 135.635 238.697 131.618C237.828 120.98 239.048 110.207 242.216 99.9709C242.777 99.3127 243.337 98.6545 243.884 98.0097C249.772 91.0382 255.184 83.5562 259.123 75.4563C267.24 64.5623 271.628 50.7804 270.927 37.4015ZM227.229 126.205C227.874 119.61 231.183 113.807 235.276 108.366C235.01 111.429 234.926 114.478 234.87 117.447C234.688 127.723 234.996 138.429 230.622 148.046C230.566 148.154 230.524 148.261 230.468 148.382C229.318 140.994 226.501 133.66 227.229 126.205ZM238.851 106.66C237.309 113.578 236.608 120.698 236.847 127.777C236.973 131.484 237.421 135.151 237.94 138.818C238.515 142.888 238.949 147.039 237.898 151.069C236.244 157.396 231.772 162.527 227.103 167.201C229.15 163.803 230.482 160.069 230.832 156.133C230.987 154.44 230.945 152.761 230.804 151.082C233.061 146.985 234.463 142.391 235.206 137.851C236.917 127.4 235.711 116.775 236.903 106.284C237.856 105.089 238.837 103.907 239.819 102.738C239.468 104.041 239.146 105.344 238.851 106.66Z" fill="#BBE8FB"/>
<g clip-path="url(#clip0)">
<path d="M81.2889 35.566C81.065 35.5233 80.8693 35.3911 80.7448 35.1985C80.6203 35.0059 80.5771 34.7687 80.6249 34.5391L82.4254 25.8823C82.7596 24.2751 82.4577 22.6149 81.586 21.2669C80.7144 19.9189 79.3443 18.9935 77.7774 18.6943C76.2104 18.3951 74.5748 18.7466 73.2304 19.6715C71.886 20.5963 70.9429 22.0188 70.6087 23.6259L68.8082 32.2828C68.7605 32.5124 68.6257 32.7156 68.4337 32.8477C68.2416 32.9798 68.008 33.0301 67.7841 32.9873C67.5603 32.9446 67.3645 32.8124 67.24 32.6198C67.1155 32.4272 67.0724 32.1901 67.1201 31.9605L68.9206 23.3036C69.3504 21.2373 70.5629 19.4084 72.2913 18.2193C74.0198 17.0302 76.1228 16.5783 78.1375 16.963C80.1522 17.3477 81.9136 18.5375 83.0343 20.2706C84.1551 22.0038 84.5432 24.1383 84.1135 26.2046L82.313 34.8615C82.2652 35.0911 82.1305 35.2943 81.9385 35.4264C81.7464 35.5585 81.5127 35.6087 81.2889 35.566Z" fill="#DADCDE"/>
<path d="M76.6754 66.1873L47.9778 60.7076L56.8678 26.4025L82.1892 31.2376L76.6754 66.1873Z" fill="#EB423F"/>
<path d="M83.4275 67.4766L76.6752 66.1873L82.189 31.2375L88.9414 32.5269L83.4275 67.4766Z" fill="#D13330"/>
<path d="M81.0015 62.5119C80.9844 62.5098 80.9675 62.5066 80.9506 62.5033C80.7355 62.4621 80.5461 62.3381 80.4211 62.1568C80.2961 61.9755 80.245 61.7505 80.2782 61.5277L84.7117 31.7721C84.7142 31.7546 84.7176 31.7384 84.7212 31.7211L86.4114 32.0438L81.9853 61.748C81.9507 61.9797 81.8276 62.1904 81.6431 62.3337C81.4586 62.4769 81.2279 62.541 81.0015 62.5119Z" fill="#A82A27"/>
<path d="M62.0557 30.9934L63.7438 31.3157L62.6635 36.5099L60.9754 36.1875L62.0557 30.9934Z" fill="#DADCDE"/>
<path d="M62.7197 32.0203C62.4958 31.9775 62.3001 31.8453 62.1756 31.6528C62.051 31.4602 62.0079 31.223 62.0557 30.9934L63.8561 22.3366C64.2859 20.2702 65.4984 18.4413 67.2269 17.2522C68.9554 16.0631 71.0583 15.6112 73.073 15.9959C75.0877 16.3806 76.8492 17.5704 77.9699 19.3036C79.0906 21.0367 79.4788 23.1712 79.049 25.2376L77.2485 33.8944C77.2008 34.124 77.0661 34.3272 76.874 34.4594C76.682 34.5915 76.4483 34.6417 76.2244 34.599C76.0006 34.5562 75.8049 34.424 75.6803 34.2314C75.5558 34.0389 75.5127 33.8017 75.5604 33.5721L77.3609 24.9153C77.6952 23.3081 77.3933 21.6479 76.5216 20.2999C75.6499 18.9519 74.2799 18.0265 72.7129 17.7273C71.1459 17.4281 69.5103 17.7796 68.1659 18.7044C66.8215 19.6293 65.8785 21.0518 65.5442 22.6589L63.7438 31.3158C63.696 31.5453 63.5613 31.7486 63.3692 31.8807C63.1772 32.0128 62.9435 32.063 62.7197 32.0203Z" fill="#E9EEF2"/>
<path d="M62.9113 43.7578L57.847 42.7908L59.2874 35.8653L62.1796 34.6174L64.3517 36.8323L62.9113 43.7578Z" fill="#F7B030"/>
</g>
<path d="M218.832 73.5623C218.832 73.5623 225.308 71.6414 227.201 72.5548C229.08 73.4682 230.103 76.4369 228.995 77.2428C228.995 77.2428 228.799 77.9547 228.308 78.0622C228.308 78.0622 227.411 77.7398 226.192 77.2965C226.192 77.2965 225.421 76.41 225.224 75.6981C225.224 75.6981 225.477 78.8413 224.804 78.9219C224.131 79.0025 223.808 76.0607 223.065 75.7787C222.322 75.4966 219.897 76.5175 219.897 76.5175C219.897 76.5175 219.014 74.9861 218.832 73.5623Z" fill="#B77351"/>
<path d="M146.255 47.4759C146.255 47.4759 112.02 44.7491 82.6498 17.118L79.874 19.8986C79.874 19.8986 100.819 57.9669 132.964 62.6683L122.002 95.7933C122.002 95.7933 127.819 113.659 122.002 120.845C116.184 128.045 76.0468 152.399 111.109 213.074C111.109 213.074 117.473 218.541 116.422 202.906C115.37 187.27 110.996 194.792 110.996 194.792C110.996 194.792 106.02 180.339 112.3 165.912C118.581 151.485 141.951 136.978 143.998 123.962C146.044 110.945 164.984 72.6756 170.115 69.5324C170.115 69.5324 192.896 79.9696 220.177 76.9741V73.1995C220.177 73.1995 163.498 54.0579 155.76 49.2087C148.021 44.3595 146.255 47.4759 146.255 47.4759Z" fill="#FFF0C0"/>
<path d="M133.805 60.5057C133.665 59.8072 132.964 59.3639 132.333 59.0147C126.234 55.6565 119.267 54.0177 112.972 51.0222C106.65 48.0133 101.042 43.6343 96.6821 38.3149C93.7381 34.715 91.3689 30.712 88.509 27.0449C86.2239 24.1166 83.5322 21.3763 80.2938 19.4957L79.8872 19.8987C79.8872 19.8987 100.818 57.9266 132.936 62.6549C132.992 62.5743 133.048 62.4938 133.104 62.4132C133.51 61.8356 133.945 61.1773 133.805 60.5057Z" fill="#FFE9A3"/>
<path d="M165.208 65.0056C161.241 71.413 157.273 77.8204 153.306 84.2278C151.231 87.586 149.072 91.0247 145.806 93.362C141.235 96.6396 134.997 97.2306 129.445 95.968C127.118 95.4441 124.889 94.6113 122.744 93.5904L122.015 95.7933C122.015 95.7933 127.833 113.659 122.015 120.845C116.197 128.045 76.0605 152.399 111.122 213.074C111.122 213.074 117.487 218.541 116.436 202.906C115.384 187.27 111.01 194.792 111.01 194.792C111.01 194.792 106.033 180.339 112.314 165.912C118.595 151.485 141.964 136.978 144.011 123.962C146.058 110.945 164.998 72.6757 170.129 69.5324C170.129 69.5324 192.91 79.9696 220.191 76.9741V74.9324C201.7 75.2682 182.48 70.7548 165.208 65.0056Z" fill="#FFE9A3"/>
<path d="M120.922 122.027C112.454 130.503 77.7711 155.367 111.109 213.074C111.109 213.074 117.473 218.541 116.422 202.906C115.37 187.27 110.996 194.792 110.996 194.792C110.996 194.792 106.02 180.339 112.3 165.912C117.389 154.212 133.707 142.472 140.787 131.524C139.119 129.953 137.324 128.502 135.39 127.239C131.1 124.405 126.081 122.484 120.922 122.027Z" fill="#AA5C35"/>
<path d="M128.875 112.114C128.875 112.114 82.2156 107.586 75.028 118.51C67.8405 129.433 86.266 150.078 106.293 163.051C106.293 163.051 115.599 171.421 118.286 176.293C120.973 181.164 123.369 174.629 122.932 171.196C122.495 167.762 118.299 159.242 115.691 158.255C113.084 157.268 106.28 154.338 106.28 154.338C106.28 154.338 93.1756 137.062 93.4668 132.835C93.758 128.607 130.596 130.592 130.596 130.592C130.596 130.592 131.43 118.284 128.875 112.114Z" fill="#B77351"/>
<path d="M158.844 51.0179L143.578 50.3142C143.578 50.3142 139.539 67.2029 129.624 77.7583C129.624 77.7583 124.707 85.7726 117.824 91.2263C110.94 96.6799 72.9625 101.099 73.1167 125.641C73.1167 125.641 84.8647 120.738 89.7434 127.078C94.622 133.418 114.431 169.405 140.409 163.199L151.007 158.873C151.007 158.873 144.18 153.433 142.483 142.485C140.787 131.538 146.148 115.758 148.719 108.721C153.429 102.555 160.102 84.4434 160.102 84.4434C160.102 84.4434 153.125 71.7769 158.844 51.0179Z" fill="#FFF0C0"/>
<path d="M153.493 99.2321C150.451 98.7485 145.442 97.5665 142.358 97.7948C133.329 98.4933 124.021 102.268 115.525 99.2321C112.988 98.3321 110.787 96.8814 108.866 95.1083C105.053 96.4381 100.525 97.9426 95.9824 99.85C97.4544 102.953 99.5573 105.787 102.151 108.111C107.24 112.678 114.221 115.271 121.203 115.204C123.208 115.177 125.212 114.948 127.105 114.33C129.839 113.444 132.222 111.832 134.703 110.422C138.53 108.245 142.666 106.553 146.956 105.371C147.264 104.78 150.586 105.632 150.923 105.202C152.086 103.671 152.259 101.354 153.493 99.2321Z" fill="#FFE9A3"/>
<path d="M142.441 142.472C142.049 139.933 141.88 136.803 141.909 133.445C138.838 135.823 135.614 137.999 132.081 139.691C125.548 142.821 117.725 144.164 110.884 141.706C107.856 140.618 105.15 138.832 102.599 136.938C99.3885 134.547 96.3603 131.927 93.5425 129.12C90.8648 126.447 88.1311 123.438 84.374 122.551C82.8459 122.188 81.2337 122.215 79.6776 122.39C77.4065 122.659 75.1774 123.277 73.1026 124.203C73.0746 124.674 73.0605 125.144 73.0605 125.627C73.0605 125.627 84.8086 120.724 89.6872 127.065C94.5659 133.405 114.375 169.391 140.352 163.185L150.951 158.86C150.965 158.86 144.138 153.419 142.441 142.472Z" fill="#FFE9A3"/>
<path d="M131.675 36.1522C129.656 33.5329 128.632 30.2956 128.815 27.0449C128.983 23.7942 130.343 20.6778 132.642 18.2599L132.978 18.5554C130.791 20.8524 129.446 23.9553 129.277 27.0583C129.109 30.1612 130.118 33.3851 132.053 35.8836L131.675 36.1522Z" fill="#BF9C6F"/>
<path d="M132.628 13.9211C131.38 9.55548 133.665 4.3436 137.955 1.83169C141.937 -0.505601 147.432 -0.613064 151.96 1.5496C152.255 1.69736 152.591 1.87198 152.788 2.18094L152.395 2.39586C152.269 2.19437 152.016 2.04661 151.764 1.93915C147.376 -0.169784 142.049 -0.0623224 138.208 2.2078C134.086 4.62569 131.885 9.62264 133.077 13.8136L132.628 13.9211Z" fill="#DABD94"/>
<path d="M131.114 14.257C130.736 16.8495 131.759 19.4285 132.053 22.0345C132.712 27.7971 129.838 33.5463 130.525 39.3089C130.932 42.7208 132.684 46.0387 135.558 48.0939C139.231 50.7133 144.152 50.9953 148.722 50.8745C153.306 50.7401 158.045 50.3237 162.335 51.855C166.302 53.2655 169.428 56.1938 172.821 58.6117C176.774 61.4326 181.289 63.6758 186.167 64.334C191.046 65.0056 196.303 63.9445 200.018 60.8549C203.467 57.9938 205.331 53.4804 204.869 49.1282C204.406 44.776 201.63 40.7193 197.663 38.5835C195.518 37.4283 193.107 36.8239 190.724 36.2328C184.751 34.7552 178.779 33.2642 172.807 31.7866C171.629 31.4911 170.424 31.1956 169.442 30.5105C166.947 28.7777 166.737 25.3792 166.274 22.4643C165.812 19.5897 164.816 16.7017 162.853 14.4853C160.891 12.2689 158.143 10.8719 155.451 9.52865C152.171 7.88986 148.82 6.22421 145.175 5.6466C139.456 4.74661 131.969 8.23911 131.114 14.257Z" fill="#BF9C6F"/>
<path d="M145.708 38.2074C145.708 38.2074 145.344 49.8804 142.484 52.2848C142.484 52.2848 149.157 58.9072 157.751 52.0296L157.008 25.6613C157.008 25.6613 146.844 28.8045 145.708 38.2074Z" fill="#B77351"/>
<path d="M141.67 7.09731C137.549 9.58236 134.829 13.7196 134.114 18.327C132.95 25.8225 132.137 38.9328 140.24 41.3507C151.708 44.776 161.185 37.4552 162.404 27.206C163.47 18.3673 154.68 -0.747379 141.67 7.09731Z" fill="#B77351"/>
<path d="M162.405 27.206C163.456 18.3673 154.68 -0.74738 141.67 7.09731C137.549 9.58236 134.829 13.7196 134.114 18.327C133.918 19.5763 133.735 20.9867 133.595 22.4912C133.721 22.6255 133.862 22.7464 133.988 22.8673C135.46 24.1568 137.352 24.9494 139.287 25.4329C144.124 26.6553 149.409 26.1314 153.881 23.9956C154.245 23.821 154.666 23.6329 155.044 23.7673C155.423 23.915 155.605 24.3314 155.703 24.7076C156.671 28.321 154.498 32.2164 155.521 35.8298C155.759 36.6761 156.194 37.4686 156.755 38.1671C159.839 35.4537 161.886 31.5985 162.405 27.206Z" fill="#AA5C35"/>
<path d="M197.466 52.4863C193.121 52.7146 188.13 52.3654 185.48 49.0609C183.966 47.1804 183.559 44.6819 182.242 42.667C180.84 40.5178 178.4 39.0133 175.765 38.7043C173.312 38.4088 172.274 39.2014 169.961 38.3417C167.942 39.2282 165.503 39.2148 163.498 38.2879C161.493 37.3611 159.951 35.5611 159.405 33.4925C158.269 29.1537 162.489 13.7061 154.596 16.2583C154.358 16.7822 154.638 17.4673 155.185 17.6822C155.732 17.8971 157.246 17.6016 157.47 17.0777C156.825 19.0926 154.834 20.4493 152.816 21.2822C146.044 24.0762 138.628 21.1613 132.404 17.3732C129.53 15.627 130.147 10.5494 130.805 9.43453C131.52 8.21215 132.628 7.23157 133.778 6.37187C139.203 2.2749 146.17 0.0988091 153.082 0.35403C154.876 0.421194 156.797 0.689847 158.143 1.83163C159.012 2.57042 159.559 3.59131 160.035 4.61219C160.722 6.07635 161.283 7.59425 161.746 9.13901C164.129 8.07782 167.031 9.78378 168.643 11.7718C170.255 13.7599 170.872 16.2986 171.559 18.7299C172.246 21.1613 173.143 23.6732 175.106 25.3523C178.667 28.4149 184.134 27.5552 188.887 28.0657C194.579 28.6701 199.976 31.6253 203.425 36.0044C206.873 40.3969 208.331 46.1729 207.364 51.5863C207.224 52.3654 207.028 53.1714 206.551 53.8161C205.626 55.0654 203.817 55.4818 202.247 55.24C200.649 54.9982 198.84 53.2788 197.466 52.4863Z" fill="#CAA474"/>
<path d="M151.414 15.2106C148.554 16.1912 145.484 17.0777 142.526 16.433C139.568 15.7882 136.876 13.1016 137.409 10.2405C137.885 7.68828 140.549 6.08979 143.101 5.24353C144.292 4.84055 145.54 4.5316 146.802 4.59876C148.133 4.66592 149.409 5.16293 150.741 5.29726C153.671 5.60621 156.391 4.22264 158.872 2.57042C158.662 2.30177 158.438 2.05998 158.171 1.83163C156.825 0.689847 154.905 0.421194 153.11 0.35403C146.213 0.0988091 139.231 2.2749 133.806 6.37187C132.656 7.245 131.563 8.21215 130.834 9.43453C130.301 10.3479 129.782 13.8807 131.17 16.1106C131.451 16.2583 131.745 16.4061 132.04 16.5404C138.138 19.3478 145.778 18.824 151.414 15.2106Z" fill="#DABD94"/>
<path d="M193.611 34.3656C190.162 34.3656 186.447 32.4716 183.433 29.1C181.989 27.4881 180.756 25.6747 179.564 23.915C178.386 22.1956 177.181 20.4225 175.779 18.8374C172.456 15.0897 168.265 13.1957 164.592 13.7733L164.521 13.3435C168.363 12.7524 172.695 14.7002 176.129 18.5554C177.559 20.1538 178.779 21.9538 179.957 23.6732C181.148 25.4195 182.368 27.206 183.798 28.8045C187.134 32.5388 191.326 34.4059 195.013 33.8015L195.097 34.2313C194.593 34.3253 194.102 34.3656 193.611 34.3656Z" fill="#CAA474"/>
<path d="M192.42 32.203C189.111 32.203 185.522 30.9538 182.116 28.5762C179.732 26.9105 177.616 24.8822 175.569 22.9345C174.559 21.9673 173.508 20.9599 172.442 20.0196C171.195 18.9047 169.695 17.6957 167.886 17.333L167.984 16.9032C169.905 17.2793 171.461 18.542 172.751 19.6972C173.816 20.6509 174.868 21.6449 175.891 22.6255C177.924 24.5733 180.041 26.5882 182.396 28.227C184.751 29.8657 189.462 32.4851 194.509 31.5986C196.696 31.209 198.448 30.1747 199.317 28.7374C200.214 27.2598 200.088 24.8956 198.462 23.8613L198.714 23.4986C200.228 24.4658 200.985 26.8837 199.71 28.9657C198.77 30.5105 196.906 31.6254 194.579 32.0418C193.878 32.1359 193.163 32.203 192.42 32.203Z" fill="#CAA474"/>
<path d="M82.664 17.118C82.664 17.118 77.3087 13.1285 75.2058 13.3435C73.1029 13.5584 71.0561 16.0031 71.8132 17.118C71.8132 17.118 71.7431 17.8434 72.1496 18.1255C72.1496 18.1255 73.1029 18.1255 74.4207 18.1255C74.4207 18.1255 75.4722 17.5479 75.9068 16.9569C75.9068 16.9569 74.5189 19.818 75.1077 20.1135C75.7105 20.4091 77.0844 17.7763 77.8835 17.7628C78.6826 17.7494 80.5751 19.5225 80.5751 19.5225C80.5751 19.5225 81.963 18.3942 82.664 17.118Z" fill="#B77351"/>
<path d="M147.937 31.1419C148.68 31.1419 149.283 30.1014 149.283 28.818C149.283 27.5346 148.68 26.4941 147.937 26.4941C147.194 26.4941 146.591 27.5346 146.591 28.818C146.591 30.1014 147.194 31.1419 147.937 31.1419Z" fill="#36206D"/>
<path d="M136.988 29.5299C137.731 29.5299 138.334 28.4895 138.334 27.2061C138.334 25.9226 137.731 24.8822 136.988 24.8822C136.245 24.8822 135.642 25.9226 135.642 27.2061C135.642 28.4895 136.245 29.5299 136.988 29.5299Z" fill="#36206D"/>
<path d="M139.287 36.2865C139.778 36.9582 140.17 37.7775 140.857 38.3014C141.74 38.9596 142.806 38.9999 143.871 38.7581C146.17 38.2611 148.217 37.0387 150.012 35.6283C150.741 35.0507 149.801 33.9224 149.002 34.3791C147.474 35.2656 146.016 36.2865 144.334 36.9313C143.591 37.2134 142.652 37.5492 141.839 37.3208C141.053 37.0925 140.479 36.488 140.016 35.8835C139.694 35.4671 138.965 35.8567 139.287 36.2865Z" fill="#FFA59C"/>
<path d="M149.775 31.2606C151.41 30.1257 153.1 29.0869 154.816 28.1114C155.22 27.8729 155.656 27.6373 156.058 27.4291C156.459 27.2208 156.858 27.0428 157.308 26.9912C158.111 26.9099 158.824 27.4299 159.173 28.1005C159.604 28.9003 159.486 29.8037 159.183 30.63C158.884 31.4261 158.462 32.1809 157.979 32.8998C157.083 34.2829 156.038 35.5615 154.818 36.6722C153.458 37.9229 151.925 38.9756 150.256 39.8029C150.09 39.8796 150.221 40.1654 150.387 40.0887C153.525 38.5382 156.235 36.1577 158.133 33.2791C158.619 32.5299 159.107 31.7505 159.441 30.927C159.775 30.1035 159.959 29.1754 159.631 28.2933C159.38 27.6009 158.804 26.9712 158.062 26.7533C157.165 26.4912 156.325 26.9653 155.553 27.3845C153.505 28.5134 151.511 29.7385 149.606 31.0324C149.405 31.1365 149.606 31.3675 149.775 31.2606Z" fill="white"/>
<path d="M147.072 43.1457C144.201 44.2324 139.529 44.5504 137.638 41.7328C135.33 38.2995 134.031 34.2851 133.916 30.1927C136.926 27.9911 138.972 28.5376 142.451 29.3935C145.121 30.0561 147.627 30.1252 150.355 30.1836C150.819 32.9665 151.801 35.6428 153.285 38.0589C153.397 38.2211 153.477 38.3805 153.459 38.5617C153.445 38.7128 153.307 38.8225 153.204 38.9047C151.441 40.6987 149.447 42.2589 147.072 43.1457Z" fill="white"/>
<path d="M137.125 31.2086C136.511 33.9571 137.226 36.7622 138.154 39.3424C138.431 40.098 138.711 40.8235 139.02 41.5819C139.097 41.7715 139.364 41.6428 139.318 41.4559C138.321 38.9306 137.273 36.2789 137.22 33.5323C137.198 32.7687 137.27 32.0135 137.438 31.2667C137.492 31.0278 137.177 31 137.125 31.2086Z" fill="#D1D3D4"/>
<defs>
<clipPath id="clip0">
<rect width="54.9951" height="56.5894" fill="white" transform="matrix(0.982254 0.187558 -0.203625 0.979049 56.0684 9.14868)"/>
</clipPath>
</defs>
</svg>
