<svg width="254" height="195" viewBox="0 0 254 195" fill="none" xmlns="http://www.w3.org/2000/svg">
<path d="M66.4596 23.294C47.3591 39.703 33.8846 61.4552 20.7226 82.8628C15.7564 90.9294 10.7556 99.0649 7.10911 107.787C3.70575 115.888 1.44841 124.506 0.441297 133.262C-0.357452 140.467 -0.287995 147.947 2.49026 154.635C6.69237 164.735 16.6246 171.63 27.182 174.836C37.7047 178.042 48.9219 178.076 59.9654 177.973C97.4024 177.594 113 147 172.138 173.009C195.5 181 210.9 181.014 227.5 168.5C250.715 151 251.908 132.952 253.645 117.887C255.381 102.822 250.693 87.0685 240.934 75.3477C232.356 65.0404 220.375 58.1114 211.068 48.4246C201.691 38.6688 195.266 26.362 185.473 17.0544C172.832 5.09237 158.628 2.36902 142.132 0.610917C114.767 -2.31926 87.4007 5.29921 66.4596 23.294Z" fill="#B1D97C"/>
<path d="M33 174.57C85.5 189 88.2824 177.369 119.469 161.928C137.5 153 169.5 174.57 185.946 182.998C198.09 189.222 222.5 194.5 236.5 174.57C246.294 160.627 254.088 133.974 247.924 124" stroke="#B1D97C" stroke-width="1.5"/>
<path d="M106 163.5C126.53 129.072 169.5 180 185.946 188.428C198.09 194.652 222.5 199.93 236.5 180C246.295 166.057 250.5 145.5 250.5 132" stroke="#B1D97C" stroke-width="1.5"/>
<path d="M58.7155 108.304C30.3426 108.304 7.38721 118.714 7.38721 131.573C7.38721 144.431 30.3773 154.842 58.7155 154.842C87.0537 154.842 110.044 144.431 110.044 131.573C110.044 118.714 87.0537 108.304 58.7155 108.304ZM93.5826 144.879C84.3449 149.085 71.9469 151.395 58.7155 151.395C45.484 151.395 33.1208 149.085 23.8484 144.879C15.5831 141.122 10.8253 136.296 10.8253 131.573C10.8253 126.85 15.5831 122.024 23.8484 118.266C33.0861 114.061 45.484 111.751 58.7155 111.751C71.9469 111.751 84.3102 114.061 93.5826 118.266C101.848 122.024 106.606 126.85 106.606 131.573C106.606 136.296 101.848 141.122 93.5826 144.879Z" fill="white"/>
<path d="M87.7825 133.641C87.1921 132.779 86.949 131.676 86.7406 130.642C86.6017 129.953 86.4976 129.263 86.2892 128.574C85.3168 128.746 84.2402 128.367 83.3026 128.608C81.7745 128.987 82.2607 130.918 81.8787 132.435C81.6356 133.434 81.1147 134.641 81.5314 135.675C81.7745 136.296 82.5038 136.571 83.1636 136.744C86.4976 137.64 89.4147 138.467 92.957 138.054C93.339 138.019 93.721 137.95 94.0683 137.743C94.4156 137.537 94.5892 137.088 94.4156 136.744C94.2767 136.468 93.9988 136.33 93.721 136.227C92.9223 135.882 92.1235 135.606 91.29 135.399C90.3524 135.158 89.3453 135.02 88.5812 134.468C88.234 134.227 87.9909 133.951 87.7825 133.641Z" fill="#FFEBDE"/>
<path d="M80.4204 132.986C80.3857 131.056 80.3857 129.125 80.351 127.16C78.6493 129.091 76.9129 131.056 74.8292 132.538C70.2103 135.847 64.3413 135.261 58.9584 134.917C56.2843 134.744 53.3324 134.469 51.3876 132.641C49.547 130.918 49.0261 128.298 48.6094 125.85C48.6094 125.885 67.6404 123.92 69.3768 122.679C70.5229 121.852 71.3216 120.61 72.0856 119.404C72.7802 118.335 73.4748 117.232 74.1693 116.164C75.489 114.13 76.8434 112.027 78.8229 110.579C80.8024 109.131 83.5112 108.442 85.7338 109.51C87.2271 110.234 88.3037 111.717 88.7899 113.268C89.2761 114.854 88.6857 116.095 88.5468 117.68C88.1995 122.369 88.1648 127.057 87.7828 131.745C87.7481 132.124 87.6786 132.573 87.366 132.814C87.0882 133.021 86.7409 133.021 86.3937 133.021C84.3794 132.986 82.3999 132.986 80.4204 132.986Z" fill="#141E39"/>
<path d="M24.369 136.813C25.897 137.054 29.8979 135.656 31.044 135.656C31.8775 135.691 30.9326 136.778 31.6966 136.537C33.1552 136.123 33.6414 135.089 33.6761 133.676C33.7108 132.366 33.7456 131.056 33.815 129.746C33.1899 129.608 32.5301 129.504 31.905 129.366C31.1757 129.229 30.3075 129.125 29.856 129.711C29.1614 130.539 29.2656 131.78 28.5363 132.641C28.0501 133.227 27.2861 133.538 26.5916 133.848C25.6886 134.262 21.8338 135.434 23.2924 136.433C23.5702 136.606 23.9175 136.744 24.369 136.813Z" fill="#FFEBDE"/>
<path d="M67.571 122.265C67.4321 121.128 67.189 120.024 67.0501 118.818C66.9806 118.266 67.1542 114.371 66.9459 114.198C68.4392 115.405 69.4463 116.991 70.9744 118.128C72.1898 119.025 73.7179 119.68 75.1765 119.335C76.5656 118.99 77.6074 117.818 78.4409 116.646C79.5869 115.026 80.6635 113.337 81.3234 111.475C81.5317 110.855 81.7748 110.269 81.9832 109.648C82.4694 108.304 82.5041 107.752 81.3234 106.89C80.5593 106.304 79.5175 105.787 78.684 106.27C78.4409 106.408 78.2673 106.614 78.0589 106.856C76.7392 108.407 75.3501 109.993 74.2041 111.682C73.2664 111.061 72.7108 109.993 72.0857 109.062C70.6271 106.89 68.5781 105.236 66.9806 103.133C66.3208 102.236 65.9735 101.202 65.1747 100.444C64.376 99.72 63.4383 99.1684 62.3965 98.8237C60.3822 98.1342 58.1596 97.9963 56.1454 97.3069C53.0893 96.2382 48.1926 95.8245 45.3102 97.5137C44.6504 97.8929 44.0947 98.3755 43.5043 98.8581C33.9888 106.925 30.6549 120.369 28.0503 132.021C29.8562 132.814 32.1135 132.504 33.7457 133.365C35.5863 129.435 36.524 124.988 38.3298 120.99C38.7466 120.024 44.7546 109.752 45.0324 110.096C46.5951 111.923 46.5604 114.922 47.0119 117.198C47.4981 119.886 47.9843 122.541 48.5747 125.23C52.0128 125.437 55.4508 125.643 58.8889 125.471C60.5559 125.402 62.327 125.333 63.9593 124.92C65.0358 124.92 66.5291 124.196 67.6057 123.954C67.6752 123.368 67.6404 122.817 67.571 122.265Z" fill="#A5E1E3"/>
<path d="M79.2744 134.675C79.6217 135.572 79.8648 136.433 80.1079 137.123C80.2815 137.571 80.3857 138.157 80.0731 138.536C79.8648 138.778 79.5175 138.881 79.2049 138.881C77.3991 138.915 76.6003 136.813 75.4196 135.778C73.8915 134.434 71.9815 133.296 69.8978 133.158C69.5505 133.124 65.4178 133.021 65.4178 133.124C65.3137 132.4 65.2442 131.642 65.2095 130.918C65.2095 130.676 65.2095 130.435 65.3137 130.194C65.904 128.815 75.0028 128.78 76.1141 129.47C77.5033 130.332 78.5451 132.607 79.2744 134.675Z" fill="#FFEBDE"/>
<path d="M53.0202 96.4106C52.9854 96.8588 52.916 97.3414 52.8812 97.7895C52.8812 97.9964 52.8465 98.2032 52.916 98.41C53.0202 98.7548 53.3327 99.0306 53.68 99.2029C54.6871 99.72 55.8331 99.7545 56.9444 99.7889C57.6043 99.7889 58.403 99.7545 58.785 99.2029C58.9934 98.8927 59.0281 98.479 59.0281 98.0998C59.0976 95.7901 59.8963 92.3773 59.306 90.1711C58.8545 88.4474 55.9373 88.2061 54.3398 87.9648C53.9231 90.7571 53.3327 93.5839 53.0202 96.4106Z" fill="#FFEBDE"/>
<path d="M59.4143 90.0985C59.142 89.0644 56.9291 87.7199 55.8738 88.0646C55.4652 88.2025 55.261 88.6507 55.1248 89.0644C54.6482 90.5811 54.6141 92.2358 54.9886 93.7871C55.0908 94.1663 55.1929 94.511 55.3631 94.8558C55.7376 95.6831 56.4185 96.3726 57.2015 96.8207C57.3717 96.9241 59.087 97.329 59.121 97.0532C59.2912 94.8125 59.925 92.0979 59.4143 90.0985Z" fill="#F0D5C3"/>
<path d="M81.6014 100.72C81.6014 100.72 78.1633 97.5483 73.3361 98.9961L70.1411 108.993C70.1411 108.993 76.2533 109.372 78.8232 111.579H80.0387L83.9629 100.72L83.1989 97.5482L81.6014 100.72Z" fill="#53B4C1"/>
<path d="M82.5388 107.166C82.9208 106.304 83.1639 105.442 82.9903 104.891C82.7125 104.132 80.4898 103.167 79.83 103.684C79.6564 103.822 79.5869 104.063 79.5522 104.27C79.2049 106.028 79.1702 108.373 80.0384 109.993C80.1078 110.131 80.1773 110.234 80.3162 110.338C80.5593 110.475 80.8719 110.406 81.0802 110.2C81.2886 109.993 81.3928 109.751 81.497 109.476C81.6706 108.924 82.1568 108.028 82.5388 107.166Z" fill="#FFEBDE"/>
<path d="M43.4694 134.468C51.4916 136.502 59.375 136.295 67.4666 134.985C68.5432 134.813 69.8281 134.434 70.106 133.4C70.2102 132.986 70.1407 132.572 70.0365 132.159C69.8629 131.262 69.6892 130.366 69.4809 129.47C69.4114 129.125 69.3419 128.815 69.1336 128.539C68.8558 128.194 68.439 128.091 68.0223 127.953C61.6323 126.229 55.1034 125.126 48.505 124.678C45.0669 124.437 40.0661 124.506 38.7117 128.401C38.3297 129.47 38.3297 130.676 38.8159 131.676C39.6493 133.296 41.6288 133.986 43.4694 134.468Z" fill="#141E39"/>
<path d="M56.3516 94.792C54.0917 91.9417 51.2834 83.4143 54.652 80.2773C56.3884 78.6571 60.2085 78.9673 62.2575 79.8636C62.9173 80.1394 63.5771 80.4841 64.0981 81.0012C65.1399 82.0699 65.3483 83.6556 65.3483 85.1379C65.3483 86.8616 64.8667 88.4135 64.45 90.1027C64.0333 91.7574 63.6409 92.6151 62.4254 93.7871C61.2099 94.9592 59.2989 96.4863 57.7014 95.7969C57.1804 95.6245 56.7684 95.2057 56.3516 94.792Z" fill="#FFEBDE"/>
<path d="M56.247 86.3439C56.3512 86.3094 56.8177 86.3784 56.9219 86.3439C57.0628 86.2973 57.9342 86.6789 59.2839 85.3391C60.6337 84.3342 60.291 87.3544 62.201 87.5957C63.6943 87.7681 65.0203 87.4223 66.0326 86.4174C66.7075 85.3391 66.0326 86.3439 66.3701 85.0041C66.5388 84.3342 66.7075 82.9074 66.3701 81.9895C66.1698 81.4446 65.3578 79.6449 64.827 79.3567C63.3332 78.3051 61.9098 78.8741 60.3123 78.7017C58.9579 78.5294 57.5688 78.1502 56.2144 78.426C53.8876 78.8741 52.2901 81.1838 51.9428 83.5279C51.7345 84.8379 51.8039 86.2857 52.1165 87.5957C52.429 89.0091 52.6027 90.2156 53.0889 91.629C53.1583 91.8703 53.332 92.1461 53.6098 92.1116C53.7834 92.0771 53.8529 91.9048 53.9223 91.7324C54.7211 89.802 54.5153 89.4171 54.8973 87.3488C54.932 87.2109 55.5027 86.7823 55.5722 86.6789C56.0036 86.4052 56.1776 86.3784 56.247 86.3439Z" fill="#141E39"/>
<path d="M53.1587 86.3446C52.9504 87.0685 53.3324 89.8953 54.4784 89.8608C54.9299 89.8263 55.173 89.3092 55.173 88.8611C55.173 87.8269 55.2077 86.8272 54.5131 85.9654C54.3742 85.793 54.2006 85.6551 53.9922 85.6207C53.6102 85.5862 53.2976 85.9654 53.1587 86.3446Z" fill="#FFEBDE"/>
<path d="M127.026 34.808C98.6526 34.808 75.6973 45.2188 75.6973 58.0771C75.6973 70.9354 98.6873 81.3462 127.026 81.3462C155.364 81.3462 178.354 70.9354 178.354 58.0771C178.354 45.2188 155.398 34.808 127.026 34.808ZM161.893 71.3836C152.655 75.5892 140.257 77.8989 127.026 77.8989C113.794 77.8989 101.431 75.5892 92.1584 71.3836C83.8931 67.626 79.1354 62.7999 79.1354 58.0771C79.1354 53.3544 83.8931 48.5282 92.1584 44.7707C101.396 40.565 113.794 38.2553 127.026 38.2553C140.257 38.2553 152.62 40.565 161.893 44.7707C170.158 48.5282 174.916 53.3544 174.916 58.0771C174.916 62.7999 170.158 67.626 161.893 71.3836Z" fill="white"/>
<path d="M156.162 62.4208C154.079 62.2484 153.558 60.5248 155.641 59.6974C157.621 58.9045 159.392 57.629 160.781 56.0088C162.379 54.1473 163.559 52.1479 165.365 50.4243C167.171 48.7006 169.22 47.3217 171.408 46.0807C171.616 45.9773 171.825 45.8394 172.033 45.8394C172.45 45.8394 172.797 46.2531 172.867 46.6667C172.936 47.0804 172.762 47.4941 172.589 47.9077C172.207 48.7351 171.755 49.4935 171.2 50.1829C171.095 50.3208 170.957 50.4932 170.957 50.6656C170.957 51.0792 171.512 51.2171 171.825 51.5274C172.207 51.8721 172.172 52.4926 171.894 52.9408C171.616 53.3544 171.165 53.6647 170.748 53.9405C169.88 54.4576 169.047 55.0091 168.178 55.5262C169.047 55.802 169.081 57.1464 168.387 57.7669C167.692 58.3874 166.72 58.4564 165.817 58.4909C166.129 58.939 166.025 59.5595 165.713 60.0077C165.4 60.4558 164.879 60.6971 164.393 60.9384C161.823 62.145 158.975 62.6621 156.162 62.4208Z" fill="#A97C50"/>
<path d="M159.218 57.2154C159.6 54.3541 158.906 50.6655 157.551 48.0801C156.371 45.8394 154.426 44.1847 152.481 42.5645C148.105 38.8759 143.764 35.0839 139.493 31.2574C136.853 28.9133 135.916 24.225 135.499 20.8122C135.464 20.4675 135.429 20.0883 135.291 19.778C134.7 18.3302 131.505 17.1581 130.116 16.7099C128.519 16.2273 127.06 15.8136 125.358 16.055C124.942 16.1239 124.56 16.1928 124.178 16.3652C123.761 16.5376 123.379 16.8478 122.962 17.0547C121.121 17.9165 118.968 16.8478 116.954 17.0891C116.642 17.1236 116.329 17.1926 116.121 17.4339C115.878 17.6752 115.843 18.0544 115.843 18.3991C115.878 20.0538 117.024 22.0532 118.343 23.1219C120.149 24.5697 122.788 24.7076 124.421 26.4657C124.907 27.0173 125.15 27.7067 125.358 28.3962C126.088 31.1885 125.914 34.1531 126.261 37.0144C126.609 39.7032 127.407 42.3232 127.581 45.012C127.755 47.6319 127.338 50.4242 126.991 53.0097C126.713 55.2849 126.435 57.5256 126.157 59.8008C125.914 61.7658 125.532 63.1102 123.9 64.4202C123.552 64.6959 123.24 64.9717 122.893 65.2475C122.719 65.3854 122.545 65.5578 122.511 65.7646C122.441 66.0404 122.684 66.3162 122.927 66.4196C123.205 66.523 123.483 66.523 123.761 66.523C124.316 66.4885 124.907 66.4885 125.462 66.454C125.983 66.4196 126.539 66.4196 127.025 66.2472C129.283 65.4199 130.012 62.076 130.741 60.1111C131.748 57.3877 132.547 54.5954 133.172 51.7687C134.388 53.1821 135.568 54.5954 136.784 56.0088C137.791 57.2154 138.798 58.3874 139.944 59.4561C142.966 62.2828 146.89 64.1099 151.022 64.627C152.064 64.7649 153.141 64.7994 154.183 64.5236C155.745 64.0754 156.301 62.7655 157.308 61.6279C158.385 60.3869 159.01 58.8356 159.218 57.2154Z" fill="#C49A6C"/>
<path d="M154.773 66.4541C156.232 65.7991 157.447 63.8341 158.107 62.4208C158.941 60.6971 159.253 58.7667 159.323 56.8707C159.357 56.1123 159.357 55.3539 159.114 54.6299C158.836 53.7681 158.246 53.0442 157.69 52.3203C156.649 51.0448 155.607 49.7348 154.252 48.7696C152.203 47.2873 149.46 46.4944 146.959 46.2531C144.667 46.0118 142.306 45.8739 140.153 46.8391C139.215 47.2528 138.277 47.7699 137.583 48.5627C136.576 49.7003 136.194 51.3206 136.298 52.8374C136.402 54.3542 136.923 55.8365 137.479 57.2499C137.965 58.4219 138.451 59.594 139.007 60.7316C139.284 61.2832 140.778 63.386 140.361 64.0065C140.222 64.2478 139.875 64.2823 139.597 64.2823C137.895 64.3857 136.228 64.696 134.596 65.1441C134.284 65.2131 133.971 65.3509 133.832 65.6267C133.693 65.937 133.867 66.3507 134.145 66.523C134.422 66.7299 134.804 66.7643 135.152 66.7643C140.5 67.0401 145.918 66.9367 151.3 67.0056C152.516 66.9022 153.731 66.9367 154.773 66.4541Z" fill="#C49A6C"/>
<path d="M156.475 50.6657C153.488 48.1492 149.633 46.7013 145.709 46.5634C143.833 46.4945 141.854 46.6669 140.083 47.3563C139.249 47.6666 138.451 48.1147 137.86 48.7352C137.2 49.4247 136.818 50.321 136.714 51.2862C136.575 52.4583 136.749 53.6303 136.888 54.8024C137.061 56.0434 137.339 57.25 137.825 58.422C137.895 58.6289 138.242 58.5255 138.173 58.3186C137.756 57.3189 137.513 56.2847 137.339 55.2506C137.166 54.2508 137.027 53.2167 137.027 52.1825C137.027 51.2172 137.2 50.2175 137.791 49.4247C138.312 48.7007 139.041 48.2181 139.84 47.8734C141.507 47.1495 143.417 46.9426 145.188 46.9426C147.063 46.9426 148.938 47.2529 150.71 47.8734C152.724 48.5628 154.634 49.597 156.231 50.9415C156.405 51.0449 156.648 50.8036 156.475 50.6657Z" fill="#A97C50"/>
<path d="M136.367 40.2892C136.506 42.0474 136.263 43.8399 135.673 45.5291C135.395 46.3909 134.978 47.1838 134.527 47.9767C134.075 48.7351 133.554 49.4245 133.207 50.2519C132.825 51.2516 132.825 52.3202 132.547 53.3199C132.478 53.5268 132.825 53.6302 132.895 53.4234C133.138 52.4926 133.138 51.5274 133.45 50.6311C133.728 49.7692 134.284 49.0453 134.77 48.2524C135.707 46.7356 136.333 45.0465 136.576 43.3228C136.715 42.3231 136.784 41.3234 136.68 40.3237C136.68 40.0824 136.333 40.0824 136.367 40.2892Z" fill="#A97C50"/>
<path d="M116.988 17.0547C116.676 17.0891 116.363 17.1581 116.155 17.3994C115.912 17.6407 115.877 18.0199 115.877 18.3646C115.877 18.5025 115.877 18.6059 115.912 18.7438C116.988 18.7438 118.065 18.0544 118.482 17.0891C117.961 17.0202 117.474 16.9857 116.988 17.0547Z" fill="#A97C50"/>
<path d="M131.609 19.3644C131.331 21.3983 130.533 23.3288 130.081 25.3282C129.838 26.2934 129.699 27.2931 129.699 28.2928C129.699 29.1202 129.803 30.1199 130.429 30.7404C131.054 31.3954 132.061 31.3954 132.894 31.3609C133.693 31.3609 134.561 31.292 135.29 30.8783C136.054 30.4301 136.332 29.6028 136.367 28.7755C136.367 28.2928 136.332 27.8102 136.298 27.2931C136.263 26.7071 136.228 26.1555 136.159 25.5695C136.054 24.294 135.985 22.984 135.881 21.7085C135.811 20.9501 135.916 19.6402 134.978 19.2955C134.77 19.2265 134.665 19.5712 134.874 19.6402C135.221 19.7781 135.325 20.1573 135.395 20.4675C135.464 20.9157 135.499 21.3983 135.534 21.8809C135.603 22.9151 135.672 23.9493 135.777 24.9835C135.846 26.0176 135.95 27.0518 136.02 28.086C136.054 28.8789 136.054 29.8096 135.429 30.3957C134.874 30.9128 134.04 31.0162 133.311 31.0162C132.547 31.0506 131.54 31.1196 130.88 30.637C130.185 30.1199 130.116 29.1202 130.081 28.3618C130.046 27.431 130.185 26.5003 130.394 25.604C130.88 23.5356 131.679 21.5707 131.957 19.5023C131.991 19.2265 131.644 19.1576 131.609 19.3644Z" fill="#A97C50"/>
<path d="M89.1018 55.3194C89.1713 55.6641 89.2755 56.0088 89.4491 56.3536C90.491 58.284 93.6859 59.6629 95.5265 60.6282C99.0341 62.5242 102.785 63.972 106.674 64.9717C108.55 65.4544 110.425 65.8336 112.37 66.0059C113.828 66.1438 115.287 66.6609 116.78 66.6609C118.169 66.6609 119.628 66.1438 120.392 64.9717C121.642 63.0757 120.461 60.4903 118.864 58.8701C117.197 57.1464 115.113 55.9054 113.03 54.7333C105.91 50.769 98.3743 48.1491 90.8382 45.1155C90.7688 45.081 90.6993 45.0465 90.5951 45.081C90.491 45.1155 90.4215 45.1844 90.352 45.2534C88.3378 47.9767 88.3031 51.6653 88.9976 54.9747C89.0671 55.1125 89.1018 55.216 89.1018 55.3194Z" fill="#141E39"/>
<path d="M92.2967 57.6637C91.2896 57.3189 89.9004 56.8018 88.9628 57.5947C88.546 57.9394 88.2682 58.3876 87.9557 58.8357C86.4971 60.973 84.7259 62.869 82.7117 64.4893C82.1908 64.8685 81.6699 65.2821 81.3573 65.8337C81.2531 66.0061 81.1489 66.2474 81.2531 66.4542C81.3573 66.661 81.5657 66.73 81.774 66.7989C84.587 67.5229 87.0527 65.5234 89.3795 64.2824C94.8318 61.3178 99.9369 63.7653 105.424 64.834C105.563 64.8685 105.702 64.8685 105.806 64.834C105.91 64.765 105.98 64.6271 106.014 64.5237C106.605 62.9035 106.813 61.1454 106.639 59.4562C101.882 58.6978 96.8808 59.1805 92.2967 57.6637Z" fill="#F6D1BA"/>
<path d="M116.502 67.04C113.55 67.3158 109.904 66.2471 107.403 65.799C105.216 65.3853 103.062 64.9027 100.875 64.5235C101.118 62.3172 101.743 60.1455 102.646 58.1116C106.709 58.0771 110.633 57.9737 114.731 58.4563C115.947 58.5942 117.197 58.7666 118.273 59.3181C119.558 59.9731 120.531 61.2141 120.739 62.6275C120.947 64.0409 120.288 65.5577 119.037 66.2816C118.308 66.6953 117.44 66.9366 116.502 67.04Z" fill="#141E39"/>
<path d="M93.8248 35.0839C92.6441 38.1864 91.7411 41.3579 90.5951 44.426C90.4909 44.7017 90.3867 45.012 90.4909 45.2878C90.5604 45.5291 90.7687 45.667 90.9771 45.8049C92.2273 46.6322 93.7901 46.908 95.2139 47.3561C98.0269 48.218 100.597 49.7348 103.306 50.8724C103.931 51.1481 104.799 51.286 105.111 50.7C105.876 49.0453 107.195 47.5975 108.306 46.0807C109.8 44.0812 112.474 41.7371 112.3 39.0482C112.127 35.8423 109.973 33.2913 109.14 30.2577C109.001 29.7061 108.862 29.1201 108.515 28.6375C108.098 27.9825 107.369 27.6033 106.709 27.2241C105.563 26.6036 104.07 25.1557 102.924 24.7765C101.465 24.2939 100.354 25.7418 99.3813 26.707C97.0198 29.0511 95.0403 31.9124 93.8248 35.0839Z" fill="#FFF0C0"/>
<path d="M108.445 28.3272C107.855 25.1213 109.904 21.1569 111.085 18.2612C109.904 17.3649 108.584 16.6755 107.195 16.2273C106.987 16.1584 106.779 16.0894 106.57 16.1584C106.327 16.2273 106.188 16.4686 106.049 16.6755C104.486 19.1575 103.445 21.9843 102.021 24.5697C101.917 24.7421 101.812 24.9489 101.882 25.1213C101.917 25.2592 102.021 25.3971 102.16 25.5005C104.452 27.5688 106.883 29.5683 109.383 31.4987C109.14 30.6024 108.897 29.7062 108.654 28.8443C108.515 28.6375 108.48 28.4996 108.445 28.3272Z" fill="#F6D1BA"/>
<path d="M99.4857 12.3319C100.805 10.7806 100.284 8.02282 98.4786 7.161C97.2284 6.57497 95.6309 6.54049 94.4502 7.29889C93.3041 7.98835 92.5748 9.22936 91.3941 9.84987C90.3175 10.4359 88.9284 10.4704 87.9907 11.2633C86.9836 12.0906 86.7752 13.504 86.8447 14.7795C86.8794 15.1931 86.9141 15.6413 87.1225 16.0205C87.4003 16.5031 87.8865 16.8134 88.338 17.0891C89.4146 17.7096 90.5259 18.2957 91.7761 18.4336C93.7556 18.6404 95.7351 17.5373 96.8117 15.8826C97.3673 15.0553 97.7146 14.09 98.4092 13.3661C98.7564 13.0214 99.1732 12.7111 99.4857 12.3319Z" fill="#DABD94"/>
<path d="M100.354 12.1595C101.813 12.0216 102.403 9.22929 100.771 8.78114C99.7636 8.50536 98.4092 9.12587 98.4092 10.2979C98.4092 11.0563 98.9648 11.7458 99.6594 12.0216C99.8678 12.125 100.111 12.1939 100.354 12.1595Z" fill="#FFE9A3"/>
<path d="M107.161 16.2273C106.952 16.1584 106.744 16.0894 106.536 16.1584C106.292 16.2273 106.154 16.4686 106.015 16.6755C105.459 17.8131 105.633 19.192 105.633 20.433C105.598 21.743 105.667 22.9495 106.292 24.1216C106.536 24.5697 108.411 26.121 108.411 26.2589C108.689 23.5355 110.147 20.5709 111.085 18.2267C109.904 17.3649 108.585 16.6755 107.161 16.2273Z" fill="#F2A59B"/>
<path d="M107.925 22.3634C105.841 21.6395 103.792 20.3985 102.611 18.7438C101.083 16.5375 100.389 12.2284 101.951 9.88429C103.341 7.81593 107.3 7.22989 109.661 7.64356C111.05 7.88487 112.613 8.47091 113.481 9.64298C114.21 10.6082 114.315 11.8837 114.384 13.0558C114.488 15.1586 114.558 17.2614 114.523 19.3988C114.523 20.4674 114.419 21.674 113.655 22.3979C112.856 23.1908 111.571 23.1907 110.46 23.0184C109.626 22.8805 108.793 22.6737 107.925 22.3634Z" fill="#F6D1BA"/>
<path d="M101.917 16.4342C101.882 17.227 102.959 20.0538 104.105 19.7091C104.556 19.5712 104.695 18.9851 104.591 18.5025C104.348 17.4684 104.139 16.3997 103.202 15.7102C103.028 15.5724 102.82 15.4689 102.577 15.4689C102.195 15.5379 101.952 16.0205 101.917 16.4342Z" fill="#F6D1BA"/>
<path d="M106.953 15.1241C106.293 15.2965 105.529 15.3999 105.216 15.9859C105.077 16.2272 105.042 16.5375 105.042 16.8478C105.008 18.6403 105.042 19.9503 104.035 21.5705C103.827 21.8808 103.445 22.2255 103.167 21.9842C103.098 21.9152 103.028 21.8118 102.994 21.7429C102.056 19.8813 101.049 18.0543 100.111 16.1928C99.9027 15.7791 99.6943 15.331 99.5902 14.8828C99.4165 14.2623 99.4165 13.5728 99.4513 12.9179C99.4513 12.1595 99.4513 11.4011 99.6596 10.6427C100.076 9.05692 101.5 7.85038 102.994 7.26434C104.417 6.71278 105.98 6.60936 107.508 6.67831C109.522 6.74725 111.849 6.85067 113.447 8.29852C113.933 8.74667 114.315 9.4706 113.968 10.0222C113.829 10.229 113.62 10.3669 113.412 10.5048C111.189 11.9182 109.557 14.4347 106.953 15.1241Z" fill="#DABD94"/>
<path d="M104 16.8477C104.66 17.5372 105.667 18.0543 106.605 18.1922C106.674 18.1922 106.779 18.2266 106.848 18.1922C106.952 18.1577 106.987 18.0198 107.022 17.9164C107.299 16.7443 106.501 14.4346 105.146 14.0899C103.514 13.6762 103.167 15.917 104 16.8477Z" fill="#F6D1BA"/>
<path d="M114.176 46.1841C113.759 46.4943 113.307 46.7701 112.786 46.8391C110.598 47.1493 107.751 44.6673 106.188 43.4263C103.896 41.6337 101.882 39.5309 100.319 37.0488C99.4855 35.7044 98.7214 34.2565 98.5131 32.7053C98.3047 31.154 98.7215 29.3959 99.9717 28.3962C102.68 26.1899 104.486 29.0856 105.702 31.085C107.299 33.705 109.036 36.187 110.911 38.6001C111.363 39.1861 111.953 39.8411 112.717 39.7722C113.064 39.7377 113.377 39.5998 113.655 39.4274C115.495 38.4277 120.843 35.3597 121.712 34.0152C121.885 33.7739 121.989 33.4637 122.094 33.1879C122.927 31.085 123.76 29.0167 124.594 26.9138C124.976 26.7415 125.462 27.0517 125.601 27.4309C125.74 27.8101 125.671 28.2583 125.601 28.6719C127.094 27.5343 128.518 26.9483 130.289 26.3968C130.88 26.2244 131.644 26.0865 131.956 26.6036C132.13 26.8449 132.095 27.1551 132.061 27.4309C131.852 28.9477 130.984 30.2922 130.15 31.6021C129.143 33.1534 127.893 33.8084 126.504 34.9805C122.371 38.3588 118.725 42.2542 114.731 45.7359C114.523 45.9083 114.349 46.0807 114.176 46.1841Z" fill="#F6D1BA"/>
<path d="M195.336 108.304C166.963 108.304 144.007 118.715 144.007 131.573C144.007 144.431 166.997 154.842 195.336 154.842C223.674 154.842 246.664 144.431 246.664 131.573C246.664 118.715 223.709 108.304 195.336 108.304ZM230.203 144.879C220.965 149.085 208.567 151.395 195.336 151.395C182.104 151.395 169.741 149.085 160.468 144.879C152.203 141.122 147.445 136.296 147.445 131.573C147.445 126.85 152.203 122.024 160.468 118.266C169.741 114.061 182.104 111.751 195.336 111.751C208.567 111.751 220.93 114.061 230.203 118.266C238.468 122.024 243.226 126.85 243.226 131.573C243.226 136.296 238.468 141.122 230.203 144.879Z" fill="white"/>
<path d="M199.364 141.26C197.663 140.398 195.857 139.846 194.121 139.019C194.016 138.95 193.877 138.881 193.808 138.778C193.704 138.64 193.738 138.433 193.808 138.261C193.947 137.571 194.12 136.882 194.259 136.192C194.294 136.089 194.294 136.02 194.364 135.951C194.468 135.882 194.572 135.882 194.676 135.917C197.42 136.227 200.615 136.261 202.941 137.95C203.775 138.571 204.435 139.364 205.06 140.191C205.824 141.156 206.623 142.156 207.387 143.121C207.769 143.569 208.151 144.155 207.977 144.707C207.734 145.5 206.588 145.534 205.789 145.293C203.393 144.466 201.622 142.397 199.364 141.26Z" fill="white"/>
<path d="M175.669 134.022C183.101 137.676 190.845 139.124 199.041 139.503C200.117 139.537 201.472 139.468 201.958 138.503C202.132 138.124 202.166 137.71 202.166 137.262C202.166 136.331 202.201 135.435 202.201 134.504C202.201 134.16 202.201 133.815 202.062 133.505C201.854 133.125 201.472 132.919 201.09 132.712C195.221 129.678 189.039 127.265 182.684 125.473C179.35 124.542 174.488 123.577 172.335 127.058C171.744 128.024 171.467 129.196 171.779 130.264C172.196 132.091 173.967 133.194 175.669 134.022Z" fill="#594A42"/>
<path d="M188.494 105.167C187.869 105.718 187.522 106.511 187.209 107.304C185.751 110.786 184.257 114.268 182.799 117.749C185.265 120.128 189.397 120.335 192.592 120.369C192.87 120.369 193.217 120.369 193.426 120.128C193.599 119.956 193.634 119.68 193.634 119.404C193.773 116.681 193.912 113.957 194.016 111.234C194.12 108.993 193.738 106.649 193.669 104.408C191.898 104.408 189.953 103.822 188.494 105.167Z" fill="#BE1E2D"/>
<path d="M188.703 141.26C190.404 140.398 192.21 139.846 193.947 139.019C194.051 138.95 194.19 138.881 194.259 138.778C194.363 138.64 194.329 138.433 194.259 138.261C194.12 137.571 193.947 136.882 193.808 136.192C193.773 136.089 193.773 136.02 193.703 135.951C193.599 135.882 193.495 135.882 193.391 135.917C190.647 136.227 187.452 136.261 185.126 137.95C184.292 138.571 183.632 139.364 183.007 140.191C182.243 141.156 181.444 142.156 180.68 143.121C180.298 143.569 179.916 144.155 180.09 144.707C180.333 145.5 181.479 145.534 182.278 145.293C184.674 144.466 186.411 142.397 188.703 141.26Z" fill="#FFF6F1"/>
<path d="M196.482 103.685C199.642 103.167 205.094 102.512 207.039 105.822C207.317 106.304 207.525 106.856 207.664 107.408C209.852 114.75 209.644 122.403 208.706 129.918C202.524 130.987 196.273 131.538 190.022 131.573C189.779 131.573 189.501 131.573 189.293 131.435C188.946 131.228 188.876 130.746 188.841 130.332C188.286 124.161 188.043 117.956 188.077 111.751C188.112 109.752 188.182 106.649 189.883 105.236C191.411 103.96 193.808 104.236 195.613 103.822C195.926 103.788 196.204 103.753 196.482 103.685Z" fill="white"/>
<path d="M216.312 136.227C208.88 139.881 201.135 141.329 192.94 141.708C191.863 141.742 190.509 141.673 190.022 140.708C189.849 140.329 189.814 139.915 189.814 139.467C189.814 138.536 189.779 137.64 189.779 136.709C189.779 136.365 189.779 136.02 189.918 135.71C190.127 135.33 190.509 135.124 190.891 134.917C196.76 131.883 202.941 129.47 209.297 127.678C212.63 126.747 217.492 125.782 219.646 129.263C220.236 130.228 220.514 131.401 220.201 132.469C219.784 134.296 217.979 135.399 216.312 136.227Z" fill="#594A42"/>
<path d="M213.429 130.504C212.769 126.161 212.317 121.748 211.241 117.508C210.303 113.751 210.338 109.752 208.601 106.236C208.15 105.305 207.56 104.443 206.691 103.857C204.851 102.616 202.42 102.995 200.232 103.478C200.961 106.063 200.336 108.683 200.51 111.303C200.718 114.164 201.517 116.922 202.107 119.714C202.837 123.265 203.219 126.885 203.601 130.504C206.865 131.021 210.199 131.056 213.429 130.504Z" fill="#BE1E2D"/>
<path d="M192.731 131.293C190.543 131.391 188.425 130.605 186.411 129.851C186.688 125.331 186.932 120.81 187.209 116.256C187.418 112.521 187.8 108.819 188.807 105.183C188.842 105.019 188.911 104.855 189.015 104.691C189.328 104.233 190.022 104.167 190.647 104.167C191.55 104.167 192.453 104.167 193.356 104.167C193.356 104.167 193.426 116.125 193.46 116.944C193.53 121.76 193.53 126.575 192.731 131.293Z" fill="#BE1E2D"/>
<path d="M201.865 125.954C201.378 126.264 200.857 126.402 200.302 126.299C199.781 126.195 199.295 125.954 198.808 125.885C197.975 125.781 197.142 126.092 196.447 126.54C195.752 127.022 195.197 127.643 194.641 128.229C194.294 128.643 193.912 129.125 194.016 129.642C194.19 130.297 195.023 130.47 195.683 130.504C196.968 130.573 198.288 130.573 199.572 130.504C200.441 130.47 201.378 130.366 202.108 129.884C202.455 129.677 202.767 129.367 203.08 129.091C205.65 126.954 209.192 125.506 212.109 123.885C213.394 123.162 215.27 122.231 215.513 120.611C215.617 119.99 215.513 119.335 215.374 118.715C215.061 117.232 214.54 115.646 213.742 114.337C211.936 115.129 210.095 115.819 208.393 116.853C208.602 117.749 208.88 118.611 209.227 119.438C207.734 120.921 206.032 122.231 204.4 123.541C203.705 124.196 202.837 125.368 201.865 125.954Z" fill="#9B8579"/>
<path d="M206.657 120.197C205.997 120.128 204.226 113.716 203.948 112.923C203.566 111.751 203.323 110.338 202.733 109.269C202.246 108.407 201.83 107.89 201.552 106.856C201.274 105.787 200.788 104.753 200.128 103.891C202.663 103.236 205.962 102.478 208.289 103.995C210.269 105.27 211.658 108.2 212.595 110.234C213.637 112.509 214.679 114.785 215.721 117.06C215.79 117.163 215.825 117.301 215.825 117.439C215.79 117.611 215.651 117.715 215.513 117.818C212.977 119.611 209.782 120.473 206.657 120.197Z" fill="#BE1E2D"/>
<path d="M191.411 104.477C191.377 104.512 191.377 104.546 191.342 104.615C191.203 104.96 191.168 105.305 191.099 105.649C190.89 107.132 190.682 108.649 190.474 110.131C191.099 109.407 191.446 108.442 191.759 107.545C191.967 107.89 193.634 110.338 193.53 110.51C193.877 109.752 193.669 108.959 193.669 108.131C193.703 106.994 193.773 105.856 193.808 104.684C195.752 104.202 197.767 103.995 199.746 104.029C199.885 106.132 200.163 108.2 200.58 110.269C200.962 109.097 201.413 107.89 201.517 106.649C202.594 107.339 203.705 107.959 204.816 108.614C203.879 106.546 202.976 104.477 202.038 102.443C201.795 101.926 201.587 101.409 201.17 101.065C200.371 100.375 199.295 100.41 198.322 100.547C197.037 100.72 195.752 100.754 194.502 101.237C193.391 101.685 192.557 102.892 191.828 103.822C191.689 103.995 191.515 104.202 191.411 104.477Z" fill="#ED1C24"/>
<path d="M189.745 91.9983C189.745 90.8607 189.536 89.5852 189.293 88.4476C187.661 88.551 186.445 89.6541 186.411 91.2743C186.411 91.5846 186.411 91.9293 186.445 92.2396C186.654 93.6185 187.8 94.6527 188.876 95.5489C189.293 94.4114 189.71 93.2393 189.745 91.9983Z" fill="#141E39"/>
<path d="M199.607 102.719C199.642 103.167 199.712 103.65 199.746 104.098C199.746 104.305 199.781 104.512 199.712 104.719C199.607 105.063 199.295 105.339 198.948 105.511C197.94 106.029 196.794 106.063 195.683 106.098C195.023 106.098 194.225 106.063 193.843 105.511C193.634 105.201 193.599 104.788 193.599 104.408C193.53 102.099 192.731 98.6859 193.322 96.4796C193.773 94.756 196.69 94.5147 198.288 94.2734C198.739 97.0657 199.33 99.8924 199.607 102.719Z" fill="#9B8579"/>
<path d="M193.356 96.4796C193.564 95.7902 194.606 95.0318 195.301 94.8249C195.822 94.687 197.35 94.5492 197.662 94.9973C197.766 95.1352 197.801 95.342 197.836 95.5144C197.975 96.4796 198.079 97.4104 198.148 98.3756C198.218 99.0651 198.253 99.7545 198.079 100.444C197.905 101.202 197.523 101.857 197.107 102.512C196.794 103.064 196.377 103.65 195.752 103.788C195.509 103.822 195.231 103.788 194.988 103.719C193.46 103.236 193.425 102.168 193.252 100.823C193.113 99.4443 192.939 97.893 193.356 96.4796Z" fill="#7D6B61"/>
<path d="M197.211 100.927C199.781 97.8932 200.858 88.9303 197.176 86.1724C195.266 84.7591 191.516 85.483 189.571 86.5861C188.946 86.9308 188.321 87.3445 187.869 87.9305C186.966 89.1026 186.897 90.7228 187.07 92.2052C187.244 93.9288 187.661 95.6524 188.251 97.2727C188.842 98.8929 189.675 100.479 191.029 101.513C192.384 102.547 194.363 102.961 195.857 102.099C196.378 101.789 196.829 101.375 197.211 100.927Z" fill="#9B8579"/>
<path d="M197.142 93.9977C197.767 94.7906 198.461 95.5145 198.6 96.6521C198.67 97.3071 198.67 97.962 198.948 98.5825C199.052 98.686 199.225 98.617 199.295 98.5136C199.364 98.4102 199.399 98.2723 199.434 98.1344C199.538 97.3071 199.677 96.4797 199.781 95.6524C199.816 95.4111 199.851 95.1353 199.885 94.894C199.92 94.5837 199.955 94.3079 200.024 93.9977C200.024 92.7911 200.302 91.5846 200.302 90.3436C200.302 89.2749 200.059 88.1373 199.225 87.4134C198.982 87.2066 198.67 87.0342 198.461 86.7929C198.079 86.4137 197.941 85.8621 197.593 85.4485C196.933 84.6556 195.753 84.5866 194.711 84.5866C192.662 84.5866 190.752 84.8624 188.738 84.9314C188.39 84.9314 188.078 84.9658 187.73 85.0348C187.071 85.1727 186.48 85.5519 185.925 85.9311C185.577 86.1724 185.23 86.3792 185.022 86.7584C184.709 87.2755 184.813 87.896 184.883 88.4821C184.917 88.7923 184.987 89.1026 185.091 89.4128C186.202 91.9293 191.377 89.0336 193.009 88.3786C193.599 89.2749 194.433 89.9988 195.371 90.4815C195.614 90.6194 195.892 90.7228 195.996 90.9641C196.1 91.1365 196.065 91.3433 196.065 91.5501C196.135 92.5843 196.621 93.3082 197.142 93.9977Z" fill="#141E39"/>
<path d="M199.468 92.6531C199.677 93.3771 199.294 96.2038 198.148 96.1694C197.697 96.1349 197.454 95.6178 197.454 95.1696C197.454 94.1355 197.419 93.1358 198.114 92.2739C198.253 92.1016 198.426 91.9637 198.635 91.9292C199.051 91.8947 199.364 92.2739 199.468 92.6531Z" fill="#9B8579"/>
<path d="M196.725 130.091H180.021C179.777 130.091 179.534 129.918 179.465 129.711L175.228 117.784C175.089 117.405 175.367 116.991 175.784 116.991H192.071C192.592 116.991 193.044 117.301 193.217 117.784L197.315 129.298C197.419 129.677 197.142 130.091 196.725 130.091Z" fill="#E6E7E8"/>
<path d="M206.935 130.091H180.021V131.538H206.935V130.091Z" fill="#E6E7E8"/>
</svg>
