<svg width="73" height="75" viewBox="0 0 73 75" fill="none" xmlns="http://www.w3.org/2000/svg">
<path d="M61.3272 19.3602H61.3287L71.5786 15.3991L62.6896 11.9961H62.6881C62.7496 12.4971 62.7819 13.0069 62.7819 13.524C62.7819 15.6349 62.256 17.6213 61.3272 19.3602Z" fill="#FD8087"/>
<path d="M1.42242 72.0193C6.81736 75.5276 14.0349 73.9982 17.5432 68.6033L25.7842 55.9307L11.8704 55.9308L1.42242 72.0193Z" fill="#FD8087"/>
<path d="M38.0736 15.4037C37.9806 14.7906 37.9321 14.1631 37.9321 13.5241C37.9321 6.66173 43.4951 1.09875 50.3574 1.09875C57.2197 1.09875 62.7827 6.66173 62.7827 13.5241C62.7827 17.6888 60.7316 21.3721 57.5867 23.6266V28.2337C57.5867 43.5303 45.1863 55.9307 29.8898 55.9307H11.8703L38.0736 15.4037Z" fill="#FFE177"/>
<path d="M38.0353 15.3987C47.4213 25.9022 45.8257 41.2667 34.3066 50.0215C24.8311 57.223 11.5447 57.7448 1.56142 52.118L38.0353 15.3987Z" fill="#60B7FF"/>
<path d="M35.6356 17.8149C38.4443 26.9003 35.3598 37.0329 26.8144 43.5263C20.3977 48.4032 12.2314 50.216 4.52823 49.1303L35.6356 17.8149Z" fill="#8AC9FE"/>
<path d="M54.4507 14.1626C55.0574 14.1626 55.5493 13.6707 55.5493 13.064C55.5493 12.4572 55.0574 11.9653 54.4507 11.9653C53.8439 11.9653 53.352 12.4572 53.352 13.064C53.352 13.6707 53.8439 14.1626 54.4507 14.1626Z" fill="black"/>
<path d="M0.500214 71.4206L5.79144 63.2728C6.12207 62.7639 6.80223 62.6193 7.31128 62.9498C7.82019 63.2803 7.96478 63.9608 7.63429 64.4697L2.97165 71.6496C5.12154 72.7533 7.56544 73.083 9.96202 72.575C12.7199 71.9906 15.0851 70.3674 16.6219 68.0037L23.7594 57.0287H12.4674L10.7443 59.6822C10.4138 60.1914 9.7335 60.3358 9.22459 60.0054C8.71554 59.675 8.57095 58.9946 8.90144 58.4857L10.225 56.4474C6.98593 55.8187 3.88107 54.6872 1.02143 53.0755C0.36969 52.5776 0.289703 52.0004 0.781326 51.3441L16.7737 35.2448C17.2016 34.8143 17.897 34.8121 18.3274 35.2396C18.7579 35.6673 18.7602 36.3628 18.3326 36.7932L6.93026 48.2721C13.8909 48.7214 20.7897 46.7251 26.1497 42.6515C33.495 37.07 36.8694 28.3276 35.0604 19.953L23.089 32.0048C22.6614 32.4353 21.9657 32.4378 21.5354 32.01C21.105 31.5824 21.1025 30.8869 21.5301 30.4564L36.9107 14.9725C36.8594 14.4933 36.8328 14.0083 36.8328 13.5241C36.8328 6.06702 42.8997 0.00012207 50.3567 0.00012207C57.0213 0.00012207 62.5746 4.84602 63.68 11.1992L71.971 14.373C72.3955 14.5355 72.676 14.9427 72.6768 15.3973C72.6775 15.8518 72.3981 16.26 71.9742 16.4239L62.0824 20.2466C61.2219 21.7466 60.0746 23.0866 58.6846 24.1751C58.735 26.535 58.7716 29.0051 58.517 31.3489C58.248 32.0559 57.8445 32.3805 57.3061 32.3225C56.7029 32.257 56.2671 31.7148 56.3325 31.1116C56.5996 28.6517 56.5269 26.0993 56.4872 23.6258C56.4872 23.2716 56.658 22.939 56.9457 22.7328C59.9122 20.6063 61.6832 17.1637 61.6832 13.5238C61.6832 7.2782 56.6021 2.19718 50.3566 2.19718C44.1111 2.19718 39.03 7.27835 39.03 13.5238C39.03 14.0109 39.0631 14.4981 39.1247 14.9766C43.6301 20.1752 45.7611 26.6439 45.1273 33.2391C44.4631 40.1524 40.8566 46.4234 34.9719 50.8964C32.8344 52.5207 30.4887 53.8384 27.9924 54.8309H29.889C41.6306 54.8309 52.1303 46.9682 55.4224 35.7102C55.5928 35.1279 56.2032 34.7933 56.7853 34.9642C57.3678 35.1344 57.7018 35.7447 57.5316 36.3271C55.3735 43.7071 50.1849 50.0477 43.4105 53.6673V59.0787L49.4147 60.4047C50.0072 60.5355 50.3815 61.1219 50.2507 61.7143C49.9297 62.3892 49.4932 62.6678 48.9409 62.5502L44.3824 61.5435L45.3482 63.3849C45.6301 63.9222 45.423 64.5863 44.8855 64.8681C44.3482 65.1498 43.684 64.943 43.4023 64.4055L41.9252 61.5891L37.1757 64.9887L41.4213 65.9262C42.0138 66.057 42.3881 66.6434 42.2573 67.2358C41.9363 67.9107 41.4998 68.1893 40.9475 68.0717L36.389 67.065L37.355 68.9066C37.6368 69.4439 37.4297 70.1079 36.8922 70.3898C36.3549 70.6715 35.6907 70.4645 35.4089 69.9272L33.9317 67.1106L28.9119 70.7037C28.3661 71.0455 27.8551 70.9608 27.379 70.4498C27.0258 69.9565 27.1395 69.2701 27.6329 68.917L33.2197 64.9179V56.8381C30.9916 57.0923 28.6303 57.0761 26.3805 57.0278L18.464 69.201C16.6073 72.0564 13.7495 74.0178 10.4176 74.7238C7.1185 75.423 3.64829 74.7767 0.822784 72.9391C0.314316 72.6094 0.169876 71.9294 0.500214 71.4206ZM68.5179 15.4039L63.8793 13.628C63.8692 14.9257 63.671 16.2012 63.3025 17.4193L68.5179 15.4039ZM35.4171 63.5934C35.4768 63.5204 41.2133 59.3968 41.2133 59.3968V54.7237C39.3522 55.5216 37.4124 56.116 35.4171 56.5018V63.5934ZM42.9402 33.0293C43.4915 27.2926 41.7326 21.6511 37.9736 17.0203L36.872 18.1292C38.1446 22.6878 38.0281 27.4652 36.5254 31.9889C34.9158 36.8351 31.7876 41.1271 27.4792 44.4011C22.2324 48.3887 15.6275 50.5323 8.85426 50.5323C7.54786 50.5323 6.23517 50.4524 4.92481 50.2909L3.38403 51.842C6.99267 53.6373 11.0222 54.6549 15.0498 54.8315C21.6709 55.0604 28.3324 53.1827 33.6422 49.1475C39.0333 45.0496 42.3354 39.3253 42.9402 33.0293Z" fill="black"/>
</svg>
