<svg width="300" height="271" viewBox="0 0 300 271" fill="none" xmlns="http://www.w3.org/2000/svg">
<path d="M12.8782 143.194C11.6126 146.533 10.7321 150.011 10.6725 153.559C10.6147 156.762 11.2852 159.936 12.4032 162.858C14.5488 168.476 18.3489 173.273 23.054 176.706C28.3254 180.545 36.805 190.802 43.389 190.759C43.8375 190.753 43.7546 191.192 43.6671 190.865C62.7892 192.928 80.7726 198.027 90.0614 198.846C113.52 200.939 116.317 185.068 135.415 198.72C144.249 205.019 153.754 215.826 162.83 221.754C171.906 227.682 186.506 226.806 197.449 226.372C205.904 226.035 214.032 222.789 221.411 218.006C225.806 216.477 229.995 214.397 233.966 211.732C239.451 208.041 244.376 203.342 248.384 197.955C252.517 192.406 255.82 186.035 257.615 179.31C258.582 175.696 259.005 171.932 258.596 168.252C258.242 165.158 257.324 162.179 256.009 159.43C254.98 157.296 253.753 155.306 252.366 153.434C247.801 140.162 236.412 130.272 225.149 122.108C212.306 112.795 198.236 103.726 191.358 89.0001C188.175 82.1664 186.73 74.4759 183.37 67.7381C176.122 53.2111 161.043 45.1571 146.169 39.7293C136.889 36.3489 127.093 33.6232 117.126 34.6412C112.405 35.1206 107.61 36.5764 103.356 38.9598C103.215 38.7254 102.931 38.5725 102.598 38.7158C96.458 41.2429 90.1295 44.048 85.2837 48.9689C82.6698 51.6199 80.8283 54.8235 79.5447 58.3279C78.1828 62.0431 77.2909 65.9199 75.9744 69.6549C72.4994 79.5536 67.2799 88.8365 60.6932 96.9472C59.9805 97.3428 59.2678 97.7384 58.5717 98.1268C51.0645 102.335 43.7429 107.171 37.3707 113.084C26.5333 120.006 17.5658 130.884 12.8782 143.194ZM233.157 208.627C246.543 195.856 257.055 177.279 253.884 159.254C253.823 158.867 253.745 158.487 253.667 158.108C256.803 163.624 258.053 169.932 256.83 176.46C255.573 183.19 252.427 189.73 248.565 195.339C244.903 200.675 240.387 205.365 235.299 209.2C232.221 211.519 228.889 213.555 225.401 215.205C228.116 213.189 230.708 210.961 233.157 208.627ZM83.1515 78.5457C80.0385 84.2647 75.0795 88.3294 69.6271 91.79C71.0459 89.1226 72.3117 86.4031 73.5232 83.7463C77.7073 74.5456 81.6628 64.7841 88.9833 57.6559C89.0709 57.5788 89.1471 57.4967 89.2401 57.4075C87.2691 64.4742 86.6703 72.0812 83.1515 78.5457ZM66.0617 92.0667C70.028 86.3736 73.3922 80.202 75.9799 73.7353C77.334 70.3481 78.4111 66.8835 79.4315 63.3941C80.5647 59.5216 81.8431 55.6259 84.2776 52.3636C88.1026 47.2429 93.7402 44.1944 99.3573 41.627C96.3646 43.9689 93.8192 46.8659 91.9893 50.2908C91.1996 51.7624 90.5741 53.2911 90.0281 54.8544C86.5908 57.7519 83.6508 61.3993 81.2656 65.2307C75.7754 74.0497 72.5782 84.055 67.4922 93.0934C66.2505 93.8349 64.9914 94.5544 63.7376 95.2618C64.5332 94.2107 65.3062 93.1497 66.0617 92.0667ZM22.9806 128.099C25.5542 124.796 28.4498 121.778 31.5841 119.08C31.3719 119.319 31.1711 119.563 30.9702 119.807C23.3519 128.952 18.0914 140.623 18.2087 152.447C18.326 164.271 24.4984 175.995 34.7423 180.545C36.177 180.911 37.5482 181.205 38.8556 181.429C28.5039 180.507 18.9303 174.016 14.4237 164.329C13.1418 161.566 12.2461 158.568 12.009 155.453C11.7535 152.07 12.3662 148.648 13.4437 145.4C15.5271 139.16 18.9492 133.259 22.9806 128.099Z" fill="#FFD9D9"/>
<path d="M21.3078 138.383C20.0422 141.722 19.1617 145.201 19.1021 148.748C19.0443 151.951 19.7148 155.125 20.8328 158.047C21.5581 159.948 22.4769 161.747 23.5499 163.439C24.0439 163.452 24.5545 163.459 25.0477 163.443C24.2228 162.204 23.4863 160.918 22.8427 159.543C21.5608 156.779 20.6651 153.781 20.4281 150.666C20.1725 147.284 20.7853 143.862 21.8627 140.613C23.9515 134.362 27.3735 128.46 31.405 123.3C33.9786 119.997 36.8741 116.979 40.0084 114.281C39.7962 114.52 39.5954 114.764 39.3946 115.008C31.7762 124.153 26.5157 135.825 26.633 147.649C26.6828 152.93 27.9488 158.179 30.235 162.792C35.5934 161.625 40.8723 158.997 45.3034 155.523C54.4128 148.382 60.9222 138.278 67.9737 128.914C75.6585 118.717 84.3684 109.081 94.9936 102.399C105.614 95.7281 118.408 92.2527 130.118 95.0488C138.406 97.017 145.671 101.954 151.961 107.735C166.697 121.259 176.692 139.404 188.49 155.798C197.429 168.209 207.627 179.842 220.202 188.188C228.086 193.41 236.981 197.271 246.266 198.967C257.295 186.581 265.088 170.307 262.313 154.443C262.252 154.056 262.175 153.676 262.097 153.297C265.232 158.813 266.483 165.122 265.26 171.65C264.003 178.379 260.857 184.919 256.994 190.528C254.778 193.756 252.246 196.745 249.471 199.456C250.045 199.533 250.614 199.593 251.187 199.641C253.218 197.615 255.104 195.425 256.83 193.108C260.963 187.559 264.265 181.188 266.061 174.463C267.027 170.849 267.451 167.085 267.041 163.405C266.687 160.311 265.769 157.332 264.454 154.583C263.425 152.449 262.198 150.459 260.812 148.587C256.246 135.315 244.857 125.425 233.594 117.261C220.751 107.948 206.681 98.8789 199.804 84.153C196.621 77.3193 195.175 69.6288 191.816 62.891C184.568 48.364 169.488 40.31 154.615 34.8822C145.334 31.5019 135.539 28.7761 125.571 29.7941C120.85 30.2735 116.055 31.7293 111.802 34.1127C111.661 33.8783 111.376 33.7255 111.043 33.8688C104.903 36.3958 98.5749 39.2009 93.7291 44.1218C91.1152 46.7728 89.2737 49.9764 87.9901 53.4808C86.6282 57.196 85.7363 61.0728 84.4197 64.8078C80.9448 74.7065 75.7253 83.9893 69.1387 92.1001C68.4259 92.4956 67.7132 92.8912 67.0171 93.2796C59.5099 97.4877 52.1883 102.324 45.8161 108.237C34.9629 115.195 25.9954 126.073 21.3078 138.383ZM91.5811 73.7349C88.4681 79.4539 83.5091 83.5186 78.0567 86.9792C79.4755 84.3118 80.7413 81.5923 81.9528 78.9355C86.1369 69.7348 90.0924 59.9733 97.4128 52.8451C97.5004 52.768 97.5767 52.686 97.6696 52.5968C95.6986 59.6635 95.0999 67.2705 91.5811 73.7349ZM74.4913 87.2559C78.4576 81.5628 81.8218 75.3912 84.4095 68.9245C85.7636 65.5374 86.8407 62.0727 87.861 58.5833C88.9943 54.7108 90.2727 50.8152 92.7072 47.5528C96.5322 42.4322 102.17 39.3837 107.787 36.8162C104.794 39.1582 102.249 42.0551 100.419 45.48C99.6292 46.9516 99.0037 48.4803 98.4577 50.0437C95.0203 52.9412 92.0804 56.5885 89.6952 60.4199C84.2049 69.2389 81.0078 79.2442 75.9218 88.2826C74.6801 89.0241 73.421 89.7436 72.1672 90.451C72.9628 89.3999 73.7358 88.3389 74.4913 87.2559Z" fill="#FFD9D9"/>
<path d="M136.932 212.407C210.117 212.407 269.446 211.246 269.446 209.815C269.446 208.384 210.117 207.224 136.932 207.224C63.7462 207.224 4.41748 208.384 4.41748 209.815C4.41748 211.246 63.7462 212.407 136.932 212.407Z" fill="#FFB5B5"/>
<path d="M37.0457 44.9085C38.0273 45.6937 38.8911 45.7723 39.2052 44.0447C39.5978 41.8067 37.9095 38.3907 36.6923 36.5846C36.2212 35.8779 35.6322 35.1711 34.8077 35.0926C33.8261 35.0141 33.0016 35.9171 32.8445 36.8595C32.6875 37.8018 33.0016 38.7834 33.3157 39.7257C33.6298 40.5895 35.4752 43.652 37.0457 44.9085Z" fill="#F6D1BA"/>
<path d="M62.4101 37.8411C62.3709 39.8828 60.2114 42.7098 58.9549 44.2018C58.6016 44.6337 58.2089 45.0656 57.6592 45.2227C57.1096 45.3797 56.4421 45.2619 56.2065 44.7908C56.0494 44.4766 56.0494 44.1233 56.0887 43.7699C56.2065 42.7098 56.4028 41.6889 56.6777 40.6681C57.0703 39.1761 57.8163 37.8804 58.9942 36.8988C59.6224 36.3884 60.4077 35.7994 61.193 35.9957C61.9782 36.2313 62.4494 37.0558 62.4101 37.8411Z" fill="#F6D1BA"/>
<path d="M60.2505 37.9982C58.5621 38.8227 57.5806 40.7859 57.8554 42.6312C57.8947 42.8276 58.1695 42.9454 58.3266 42.9061C58.5622 42.8276 58.6407 42.6312 58.6014 42.4349C58.4051 40.9037 59.3082 39.3724 60.6431 38.7049C61.1143 38.4693 60.7216 37.7626 60.2505 37.9982Z" fill="#EFA294"/>
<path d="M34.7684 38.7834C35.5144 38.9012 35.9855 39.5687 36.2996 40.1969C36.7315 41.0607 37.0849 42.003 37.4776 42.9453C37.5561 43.1416 37.7524 43.2987 37.9487 43.2202C38.145 43.1809 38.3021 42.9453 38.2236 42.749C37.988 42.1993 37.7524 41.6496 37.5168 41.0999C37.3205 40.6288 37.1242 40.1576 36.8886 39.7257C36.496 38.9797 35.8677 38.1944 34.9647 38.0767C34.7684 38.0374 34.5328 38.1159 34.4935 38.3515C34.4543 38.4693 34.5328 38.7441 34.7684 38.7834Z" fill="#EFA294"/>
<path d="M37.7916 209.108C38.2627 208.834 38.6554 208.48 38.8517 207.97C39.1658 207.263 39.048 206.478 38.9695 205.693C38.6554 203.415 38.6161 201.491 38.7339 199.253C38.9302 195.602 38.9302 191.911 38.7339 188.26C38.7339 188.024 38.6946 187.749 38.5768 187.553C38.4198 187.317 38.1842 187.239 37.9094 187.121C35.5928 186.296 33.0407 186.532 30.6064 186.885C30.3708 186.925 30.1352 186.964 29.9389 187.121C29.7818 187.239 29.7426 187.435 29.664 187.631C28.4469 191.518 27.7009 196.426 25.5021 199.842C24.0886 202.041 22.1254 204.043 21.8506 206.635C21.8113 207.028 21.8113 207.42 22.0076 207.734C22.2432 208.205 22.7929 208.441 23.3033 208.637C27.2297 210.051 32.3732 209.854 36.4173 209.423C36.967 209.462 37.3989 209.344 37.7916 209.108Z" fill="#BC9264"/>
<path d="M72.854 208.559C72.5007 208.559 72.108 208.52 71.7939 208.362C70.3804 207.773 70.1056 205.81 70.4982 204.318C71.205 201.648 71.9117 199.764 71.5976 196.937C71.2442 194.031 70.3019 191.204 70.4197 188.26C70.4197 188.024 70.459 187.749 70.5768 187.553C70.7338 187.317 70.9694 187.239 71.2442 187.121C73.5608 186.296 76.1129 186.532 78.5473 186.885C78.7828 186.925 79.0184 186.964 79.2147 187.121C79.3718 187.239 79.411 187.435 79.4896 187.631C80.589 191.047 81.335 196.544 84.5938 198.664C85.5754 199.293 86.6748 199.685 87.7349 200.078C91.1116 201.334 98.0612 203.062 98.3753 207.499C98.3753 207.695 98.3753 207.891 98.2968 208.088C98.1397 208.323 97.7864 208.362 97.5115 208.402C89.5018 209.148 81.492 208.402 73.4823 208.48C73.2074 208.559 73.0111 208.559 72.854 208.559Z" fill="#BC9264"/>
<path d="M29.3108 112.795C29.3501 116.918 29.2716 121.08 29.036 125.163C28.7219 129.953 26.8372 134.586 27.3477 139.455C27.701 142.753 28.1722 145.305 27.5047 148.643C26.798 152.019 25.5415 155.239 25.1489 158.655C24.7955 161.757 25.2274 164.858 24.9919 167.96C24.8348 170.238 24.3244 172.476 23.971 174.753C22.9502 180.839 22.8324 187.003 22.6753 193.167C22.6753 193.953 22.636 194.738 22.8716 195.484C23.4606 197.29 25.3452 198.232 27.1121 198.978C31.117 200.627 36.1819 201.766 39.3623 198.861C41.561 196.858 42.0322 193.639 42.3071 190.694C42.8567 185.275 43.2494 179.896 43.485 174.478C43.7205 169.531 42.739 163.366 43.9169 158.616C44.2702 157.124 45.1733 155.906 45.5267 154.336C46.0763 151.744 46.2334 148.957 46.5475 146.287C47.215 141.025 47.9217 135.803 48.5892 130.542C49.4923 123.71 51.1413 116.8 51.2591 109.929C51.2591 109.536 51.2591 109.144 51.0628 108.829C50.788 108.358 50.199 108.201 49.6886 108.083C45.0948 107.023 40.3439 106.591 35.6323 106.788C30.8814 106.906 29.2323 107.73 29.3108 112.795Z" fill="#140C15"/>
<path d="M76.3095 156.927C77.5266 160.893 78.9401 164.819 79.8824 168.785C81.3744 174.989 82.4346 181.31 83.5339 187.592C83.9658 190.223 84.3192 193.207 82.5916 195.209C81.5315 196.426 79.8824 197.015 78.3119 197.447C75.799 198.154 72.9328 198.586 70.734 197.172C69.1635 196.152 68.2997 194.306 67.593 192.579C65.3157 187.003 63.6273 181.231 62.6065 175.303C62.2924 173.418 62.0175 171.494 61.193 169.727C60.7218 168.667 60.0544 167.686 59.5832 166.625C58.8372 164.976 58.6016 163.17 58.3268 161.403C57.7771 157.438 57.6593 152.962 56.1673 149.271C54.5967 145.423 52.9477 141.615 51.5342 137.727C48.6287 129.561 46.2336 121.198 45.1735 112.56C44.9772 111.107 44.9772 109.34 46.1551 108.476C46.7833 108.044 47.5686 107.966 48.3146 107.887C52.5158 107.495 56.5599 107.495 60.7611 106.906C65.8261 106.199 66.1009 109.34 67.2396 113.463C68.2604 117.153 69.4776 120.766 69.7132 124.574C69.9488 128.579 70.6162 132.584 71.7156 136.471C72.6187 139.73 73.8751 142.989 74.1107 146.365C74.3463 149.978 75.2493 153.472 76.3095 156.927Z" fill="#140C15"/>
<path d="M24.717 103.961C30.9599 96.8934 36.7709 87.0383 36.6924 77.4187C36.6924 75.4556 36.5746 73.4139 35.6323 71.6863C34.6899 69.9587 32.5697 68.7415 30.7243 69.409C27.9759 70.3906 25.8556 74.9059 24.4814 77.2617C22.4005 80.8739 20.3195 84.4862 18.2385 88.0984C16.4717 91.161 14.6655 94.2628 13.9588 97.718C13.5269 99.7989 13.4876 102.037 14.3907 103.961C15.2938 105.885 17.2962 107.377 19.4164 107.298C21.5367 107.22 23.3035 105.571 24.717 103.961Z" fill="#EFA294"/>
<path d="M73.2075 99.7596C71.4014 98.5031 69.9879 96.1473 68.967 94.4983C66.7683 90.8075 64.5695 86.9989 62.2137 83.3867C59.2297 78.7929 55.5782 73.3352 59.5831 68.1132C60.4861 66.9353 62.0174 65.9144 63.3916 66.4249C63.9413 66.6212 64.3732 67.0138 64.8051 67.4457C67.7106 70.3119 69.713 73.7671 71.7155 77.2616C73.7964 80.8738 75.8774 84.4861 77.9584 88.0983C79.9215 91.5142 82.1203 98.032 77.2124 100.231C75.7596 100.937 74.3854 100.584 73.2075 99.7596Z" fill="#EFA294"/>
<path d="M35.2395 93.9879C36.2211 84.8788 37.9879 75.3377 37.7916 66.1501C37.7916 65.3648 37.7131 64.4617 37.1634 63.8728C36.6137 63.2446 35.6321 63.0875 34.8076 63.2446C28.015 64.7758 23.696 72.6678 20.4372 78.1647C18.0813 82.1303 15.7255 86.0959 13.9587 90.3757C13.8016 90.7683 13.6446 91.2002 13.6838 91.5928C13.7624 92.1032 14.155 92.5351 14.5084 92.8885C18.3562 96.54 23.2641 99.0921 28.4862 100.113C29.8211 100.388 31.2739 100.506 32.4911 99.8774C34.4935 98.8173 35.0039 96.2259 35.2395 93.9879Z" fill="#9FB5CF"/>
<path d="M59.3079 93.9879C58.3263 84.8788 56.5595 75.3377 56.7558 66.1501C56.7558 65.3648 56.8343 64.4617 57.384 63.8728C57.9337 63.2446 58.9153 63.0875 59.7398 63.2446C66.5324 64.7758 70.8514 72.6678 74.1103 78.1647C76.4661 82.1303 78.8219 86.0959 80.5888 90.3757C80.7458 90.7683 80.9029 91.2002 80.8636 91.5928C80.7851 92.1032 80.3924 92.5351 80.0391 92.8885C76.1912 96.54 71.2833 99.0921 66.0613 100.113C64.7263 100.388 63.2735 100.506 62.0564 99.8774C60.0147 98.8173 59.5435 96.2259 59.3079 93.9879Z" fill="#9FB5CF"/>
<path d="M30.9207 76.0837C30.7637 75.0629 30.9993 72.55 29.9784 71.9218C29.0753 71.3721 26.5625 81.0309 26.0913 82.0911C24.6778 85.1536 22.1257 87.5879 20.2803 90.4542C19.2595 92.064 18.4742 93.7916 17.8853 95.637C21.0656 97.8357 24.6778 99.367 28.4864 100.113C29.2717 100.27 30.1355 100.388 30.96 100.309C31.706 98.5425 31.9023 96.5793 32.0594 94.6554C32.3342 90.6112 32.2557 86.5278 31.8631 82.4837C31.6275 80.3242 31.2348 78.204 30.9207 76.0837Z" fill="#7799BA"/>
<path d="M63.9019 76.0837C64.059 75.0629 63.8234 72.55 64.8443 71.9218C65.7473 71.3721 68.2602 81.0309 68.7313 82.0911C70.1448 85.1536 72.697 87.5879 74.5423 90.4542C75.5632 92.064 76.3485 93.7916 76.9374 95.637C73.7571 97.8357 70.1448 99.367 66.3363 100.113C65.551 100.27 64.6872 100.388 63.8627 100.309C63.1167 98.5425 62.9204 96.5793 62.7633 94.6554C62.4885 90.6112 62.567 86.5278 62.9596 82.4837C63.1952 80.3242 63.5486 78.204 63.9019 76.0837Z" fill="#7799BA"/>
<path d="M66.3756 107.18C66.3756 106.984 66.3756 106.827 66.3363 106.631C65.8259 98.464 66.6111 90.3757 66.6111 82.1696C66.4934 75.4555 67.4357 66.8961 60.6431 63.2053C59.74 62.7342 58.837 62.263 57.8554 61.9882C56.5597 61.6348 55.1855 61.5955 53.8505 61.517C46.0371 61.2814 31.9415 58.7685 29.193 69.2126C28.5648 71.5684 28.6433 74.042 28.6826 76.4764C28.7611 79.7745 28.8789 83.0334 28.9575 86.3315C28.9575 92.9671 29.4679 99.4848 28.9575 106.081C28.8397 107.652 28.9967 109.418 30.1746 110.518C30.8421 111.146 31.7844 111.46 32.6875 111.696C41.8751 114.248 51.6518 113.58 61.1143 112.088C63.0774 111.774 65.3547 111.225 66.1007 109.379C66.4148 108.672 66.4148 107.926 66.3756 107.18Z" fill="#9FB5CF"/>
<path d="M47.1753 71.4899C47.1753 76.9475 47.2146 82.4051 47.2146 87.8627C47.2146 90.4934 47.1753 93.124 47.2931 95.7154C47.4109 98.3854 47.8428 101.016 47.9606 103.686C48.1176 106.709 47.9606 109.733 47.4894 112.756C47.4109 113.266 48.1569 113.463 48.2354 112.952C48.628 110.321 48.8244 107.691 48.7851 105.021C48.7458 102.351 48.3532 99.681 48.1176 97.0111C47.9213 94.3412 47.9606 91.6713 47.9606 89.0014C47.9606 86.2529 47.9606 83.4652 47.9213 80.7168C47.9213 77.615 47.9213 74.5524 47.882 71.4506C47.9606 70.9794 47.1753 70.9794 47.1753 71.4899Z" fill="#7799BA"/>
<path d="M76.82 151.313C74.15 136.196 71.2838 121.119 67.3182 106.317C67.2397 105.963 67.1219 105.61 66.8863 105.335C66.4544 104.825 65.6691 104.746 65.0017 104.707C53.6545 104.157 42.3466 103.411 31.078 103.411C30.2927 103.45 29.4289 103.529 28.84 104.039C28.0547 104.746 28.0154 105.924 28.0154 106.984C28.094 121.708 25.1492 136.275 23.8928 150.959C23.8535 151.627 23.775 152.333 24.0498 152.962C24.4817 153.982 25.6596 154.493 26.759 154.846C42.1503 159.833 59.0336 158.616 74.6212 154.375C75.485 154.14 76.4273 153.825 76.7807 153.001C77.0163 152.373 76.8985 151.823 76.82 151.313Z" fill="#DFBC92"/>
<path d="M35.3965 126.498C35.3179 125.752 34.8468 118.645 34.9253 118.645C43.4847 118.567 52.0834 118.174 60.6822 118.174C61.0748 118.174 61.5067 118.174 61.7815 118.449C62.0171 118.685 62.0564 119.077 62.0564 119.391C62.1349 121.276 62.2527 123.121 62.3312 125.006C62.4097 126.851 62.4883 128.854 61.4282 130.346C60.0539 132.388 57.2662 132.78 54.8319 132.977C50.8663 133.291 46.9399 133.408 42.9743 133.369C41.7179 133.369 40.4614 133.33 39.3228 132.859C36.9277 131.877 35.7106 129.129 35.3965 126.498Z" fill="#BC9264"/>
<path d="M55.0676 56.7268C51.8873 56.02 48.3536 55.1562 45.134 55.9022C41.7966 56.6875 38.7733 57.4728 36.4175 60.2212C35.5929 61.1635 35.0432 62.3022 34.5328 63.4408C33.6298 65.4433 32.923 67.5242 32.4126 69.6445C35.0433 69.0162 37.7132 68.388 40.3438 67.7598C41.2076 67.5635 42.1892 67.3672 42.9352 67.8383C43.2493 68.0346 43.4849 68.3488 43.7205 68.6236C44.9769 70.2334 46.1548 71.9217 47.2542 73.6493C49.1388 71.7647 51.0628 69.88 52.9474 67.9954C53.183 67.7598 53.4578 67.5242 53.7719 67.4457C54.0468 67.3672 54.3609 67.4064 54.6357 67.485C57.3057 67.9954 59.9756 68.6236 62.6062 69.2911C61.5461 66.2678 60.486 63.2445 59.4651 60.2605C59.2296 59.593 58.994 58.8863 58.5228 58.3366C57.659 57.355 56.3241 57.0016 55.0676 56.7268Z" fill="#ACC5DC"/>
<path d="M53.654 46.6753C53.654 46.9109 42.6994 46.2042 41.6786 46.1257C41.4037 46.0864 41.2467 52.9575 41.3252 53.7035C41.6393 56.2949 40.9719 59.1219 39.7939 61.3992C41.8356 64.5402 44.2307 67.4457 46.9006 70.1157C47.097 70.312 47.3718 70.5476 47.6859 70.5083C47.8822 70.469 48.0393 70.3512 48.1963 70.2334C50.984 67.7991 53.4184 64.9721 55.4208 61.8703C55.4993 61.7525 54.3214 59.1219 54.2429 58.7292C53.9681 57.4335 54.0073 56.2164 54.0466 54.8814C54.0859 52.133 53.6932 49.3845 53.654 46.6753Z" fill="#F6D1BA"/>
<path d="M56.3632 26.4547C58.0515 28.4179 58.2871 32.305 58.4441 34.8178C58.6404 38.5086 57.8552 42.1601 57.1092 45.7331C56.3239 49.3846 54.0466 53.1932 50.1203 54.214C46.3117 55.1956 42.2676 52.879 40.1081 49.6202C37.9486 46.3613 37.3204 42.3172 36.967 38.4301C36.7707 36.1135 36.6136 33.7185 37.2811 31.4804C38.3019 27.9075 41.7964 24.1774 45.6442 24.0596C48.8638 23.9811 52.0049 23.7848 55.0282 25.3553C55.5386 25.6694 56.0098 26.0228 56.3632 26.4547Z" fill="#F6D1BA"/>
<path d="M57.0398 33.4436C58.0606 33.208 58.9637 32.7761 59.7097 32.1479C61.2017 30.8129 62.1048 29.0068 61.9477 27.0044C61.9085 26.5725 61.7514 25.9835 61.3195 25.9442C61.0447 25.905 60.8091 26.1406 60.5342 26.1798C60.0238 26.2583 59.5919 25.8657 59.2778 25.5123C57.6287 23.667 56.0975 21.8608 53.8987 20.6437C49.1871 18.0523 42.9049 17.5811 38.6252 20.8792C37.6436 21.6253 36.8191 22.5676 36.4265 23.7455C36.0338 24.9234 36.1909 26.2976 37.0154 27.2007C38.5074 28.8497 40.078 27.397 41.727 27.1614C43.5331 26.9258 45.4963 27.6326 46.8313 28.8497C47.8521 29.7921 48.5589 31.0878 49.6582 31.9908C51.4251 33.4828 54.5269 34.0718 57.0398 33.4436Z" fill="#B19677"/>
<path d="M40.54 28.3786C40.54 28.1823 40.54 27.986 40.54 27.8289C40.5792 27.0044 40.697 26.2191 40.9326 25.4339C41.0897 24.9627 41.2467 24.4915 41.1682 24.0204C40.8148 21.3505 37.1633 24.4523 36.3781 25.3553C34.2578 27.7504 34.8075 31.8338 35.2787 34.7786C35.5143 36.3098 35.7498 37.8019 35.9854 39.3331C36.1817 40.7466 37.1633 44.4374 38.0271 41.2178C38.5768 39.1368 38.2627 36.781 38.5375 34.6608C38.7731 32.7761 40.3044 32.0694 40.54 30.2633C40.5792 29.5958 40.54 29.0068 40.54 28.3786Z" fill="#B19677"/>
<path d="M60.0148 25.9443C59.6221 24.7664 56.167 22.0179 55.2639 23.7455C55.0676 24.0989 55.0676 24.4915 55.0283 24.9234C54.989 26.7296 55.1461 28.5357 55.5387 30.2633C55.9706 32.1479 57.2271 32.9332 57.2271 34.9356C57.2271 35.878 56.4811 41.1785 57.07 41.689C57.3449 41.9245 57.816 41.8067 58.0516 41.5319C58.2872 41.2571 58.405 40.9037 58.4835 40.5503C59.5436 36.3099 60.1326 31.9516 60.1326 27.5541C60.2111 27.0044 60.2111 26.4547 60.0148 25.9443Z" fill="#B19677"/>
<path d="M44.7804 32.0301C44.5056 32.0694 41.0111 32.5405 41.0111 32.462C40.8541 31.9516 41.6001 31.4412 41.9927 31.2056C42.4246 30.9307 42.9351 30.8129 43.4455 30.6952C43.6811 30.6559 43.8774 30.5774 44.113 30.5381C44.5449 30.4203 45.016 30.3025 45.4087 30.4203C45.8406 30.5381 46.1939 30.97 46.0761 31.4019C45.9191 31.8731 45.2909 31.9909 44.7804 32.0301Z" fill="#140C15"/>
<path d="M51.887 32.1086C52.1618 32.1479 55.6563 32.619 55.6563 32.5405C55.8133 32.0301 55.0673 31.5197 54.6747 31.2841C54.2428 31.0092 53.7324 30.8914 53.2219 30.7736C52.9864 30.7344 52.79 30.6559 52.5545 30.6166C52.1226 30.4988 51.6514 30.381 51.2588 30.4988C50.8269 30.6166 50.4735 31.0485 50.5913 31.4804C50.7876 31.9516 51.3765 32.0693 51.887 32.1086Z" fill="#140C15"/>
<path d="M54.0075 55.7845C54.0075 55.4312 54.0075 55.0778 54.0468 54.6852C54.1253 51.976 53.7327 49.2275 53.6541 46.5184C53.6541 46.7539 42.6996 46.0472 41.6788 45.9687C41.4039 45.9294 41.2469 52.8005 41.3254 53.5465C41.3254 53.6643 41.3647 53.7821 41.3647 53.8999C41.561 54.1747 41.718 54.4496 41.9143 54.6852C43.3278 56.5306 45.3695 58.0226 47.6861 58.2581C50.0026 58.4937 52.2799 57.3944 54.0075 55.7845Z" fill="#EFA294"/>
<path d="M57.07 44.7344C57.3056 43.5095 57.5412 42.3284 57.7375 41.1035C54.6357 40.0973 51.7695 38.9162 48.3928 38.8724C44.8591 38.8287 41.3646 39.7036 38.0272 40.9722C37.8309 41.0597 37.6346 41.1472 37.4775 41.3222C37.9487 44.0782 38.6947 46.7904 40.0689 49.109C42.2284 52.7399 46.2726 55.3209 50.0811 54.2273C54.0467 53.0461 56.2848 48.8028 57.07 44.7344Z" fill="#34699C"/>
<path d="M68.4562 110.714C68.1029 109.261 67.7102 107.769 67.3176 106.317C67.2391 105.963 67.1213 105.61 66.8857 105.335C66.4538 104.825 65.6685 104.746 65.0011 104.707C53.6539 104.157 42.346 103.411 31.0774 103.411C30.2921 103.45 29.4283 103.529 28.8394 104.039C28.0541 104.746 28.0148 105.924 28.0148 106.984C28.0148 108.24 28.0148 109.536 27.9756 110.793C41.4822 110.989 54.9889 110.95 68.4562 110.714Z" fill="#BC9264"/>
<path d="M24.2847 86.096V104.432C24.2847 106.003 25.5411 107.259 27.1116 107.259H68.2598C69.8303 107.259 71.0868 106.003 71.0868 104.432V86.096C71.0868 84.5254 69.8303 83.269 68.2598 83.269H27.1116C25.5411 83.3082 24.2847 84.5647 24.2847 86.096Z" fill="#EF4136"/>
<path d="M44.0955 92.0912C44.0597 92.2147 43.9465 92.2997 43.8179 92.2997C43.6904 92.2997 43.5779 92.2162 43.5411 92.0941L42.8571 89.8261C42.8178 89.7083 42.7786 89.5905 42.7393 89.3942C42.7313 89.3623 42.6086 89.3665 42.6013 89.3986C42.5709 89.5335 42.5297 89.6738 42.4645 89.8261L41.8165 92.094C41.7817 92.2158 41.6704 92.2997 41.5438 92.2997C41.4153 92.2997 41.3028 92.2133 41.2698 92.089L40.4201 88.8944C40.3818 88.7503 40.4905 88.6089 40.6396 88.6089C40.7431 88.6089 40.8335 88.6789 40.8594 88.7792L41.4044 90.8862C41.4405 91.0307 41.7459 91.0278 41.7863 90.8845C41.7899 90.8719 41.7934 90.8594 41.797 90.847L42.3967 88.836C42.4369 88.7013 42.5608 88.6089 42.7014 88.6089C42.8407 88.6089 42.9638 88.6996 43.0051 88.8326L43.6424 90.8862C43.6458 90.8984 43.6493 90.9105 43.6528 90.9227C43.692 91.0602 43.9848 91.0594 44.035 90.9255L44.5806 88.8159C44.6061 88.7172 44.6952 88.6482 44.7972 88.6482C44.9462 88.6482 45.0536 88.7912 45.0121 88.9343L44.0955 92.0912Z" fill="white"/>
<path d="M46.7046 92.3783C46.312 92.3783 45.9586 92.2605 45.723 91.9856C45.4874 91.75 45.3696 91.3967 45.3696 90.9648C45.3696 90.5329 45.4874 90.1795 45.6837 89.9047C45.9193 89.6298 46.1942 89.512 46.5868 89.512C46.9402 89.512 47.215 89.6298 47.4113 89.8654C47.6076 90.101 47.7254 90.3758 47.7254 90.7685C47.7254 90.9202 47.6024 91.0433 47.4506 91.0433H46.6422C46.1996 91.0433 45.7634 91.4763 46.0764 91.7893C46.2334 91.9464 46.469 92.0249 46.7439 92.0249C46.9688 92.0249 47.1736 91.9846 47.3872 91.9185C47.5142 91.8791 47.6469 91.9705 47.6469 92.1035C47.6469 92.1756 47.6065 92.2424 47.5403 92.2712C47.4727 92.3005 47.4097 92.3232 47.343 92.3433C47.2596 92.3685 47.1708 92.3638 47.0837 92.3612C46.968 92.3577 46.8465 92.3783 46.7046 92.3783ZM46.5868 89.8654C46.3643 89.8654 46.2118 89.9355 46.0632 90.0756C46.0456 90.0922 46.0313 90.1083 46.0174 90.1281C45.8358 90.387 46.0894 90.6899 46.4056 90.6899H46.726C47.0178 90.6899 47.2841 90.4054 47.1145 90.168C47.0729 90.1098 47.0489 90.0633 47.0056 90.0064C46.9178 89.8913 46.7782 89.8654 46.5868 89.8654Z" fill="white"/>
<path d="M48.7626 88.609C48.7776 88.609 48.792 88.615 48.8026 88.6256C48.8167 88.6397 48.8224 88.6601 48.8172 88.6793C48.7759 88.8309 48.7024 89.0169 48.629 89.2372C48.5616 89.4394 48.4942 89.6127 48.402 89.7819C48.3734 89.8343 48.3176 89.8654 48.2579 89.8654C48.1472 89.8654 48.066 89.7614 48.0911 89.6537C48.1527 89.3892 48.2033 89.1397 48.2502 88.9129C48.2871 88.7351 48.4441 88.609 48.6256 88.609H48.7626Z" fill="white"/>
<path d="M51.927 89.512C51.9885 89.512 52.05 89.512 52.1059 89.5176C52.1899 89.526 52.2356 89.6068 52.2272 89.6908C52.2142 89.8205 52.0821 89.9067 51.9517 89.9049C51.9314 89.9047 51.9103 89.9047 51.8878 89.9047C51.6522 89.9047 51.4559 89.9832 51.2988 90.1795C51.1418 90.3758 51.0632 90.5721 51.0632 90.847V92.123C51.0632 92.2423 50.9666 92.339 50.8473 92.339C50.728 92.339 50.6313 92.2423 50.6313 92.123V89.7348C50.6313 89.6334 50.7135 89.5513 50.8148 89.5513C50.9107 89.5513 50.9904 89.6251 50.9978 89.7207L51.0221 90.0374C51.0232 90.0511 51.0346 90.0617 51.0484 90.0617C51.0576 90.0617 51.0662 90.0568 51.071 90.0489C51.1514 89.9172 51.2319 89.8212 51.3123 89.7361C51.3798 89.6647 51.4631 89.6092 51.5564 89.5785C51.6911 89.5342 51.809 89.512 51.927 89.512Z" fill="white"/>
<path d="M53.9683 92.3783C53.5756 92.3783 53.2223 92.2605 52.9867 91.9856C52.7511 91.75 52.6333 91.3967 52.6333 90.9648C52.6333 90.5329 52.7511 90.1795 52.9474 89.9047C53.183 89.6298 53.4578 89.512 53.8505 89.512C54.2038 89.512 54.4787 89.6298 54.675 89.8654C54.8713 90.101 54.9891 90.3758 54.9891 90.7685C54.9891 90.9202 54.8661 91.0433 54.7143 91.0433H53.8666C53.424 91.0433 52.9878 91.4763 53.3008 91.7893C53.4578 91.9464 53.6934 92.0249 53.9683 92.0249C54.1932 92.0249 54.398 91.9846 54.6116 91.9185C54.7386 91.8791 54.8713 91.9705 54.8713 92.1035C54.8713 92.1756 54.8309 92.2424 54.7647 92.2712C54.6971 92.3005 54.6341 92.3232 54.5674 92.3433C54.484 92.3685 54.3952 92.3637 54.3081 92.3612C54.1948 92.3578 54.0815 92.3783 53.9683 92.3783ZM53.8505 89.8654C53.6279 89.8654 53.4755 89.9355 53.3269 90.0756C53.3093 90.0922 53.295 90.1083 53.2811 90.1281C53.0995 90.387 53.3531 90.6899 53.6693 90.6899H53.9897C54.2814 90.6899 54.5478 90.4054 54.3782 90.168C54.3366 90.1098 54.3126 90.0629 54.267 90.0078C54.1708 89.8915 54.0106 89.8654 53.8505 89.8654Z" fill="white"/>
<path d="M41.7183 98.2677C41.7183 99.4456 41.4434 100.349 40.8545 100.977C40.2655 101.605 39.441 101.958 38.3809 101.958C37.2815 101.958 36.4569 101.644 35.9073 100.977C35.3183 100.349 35.0435 99.4063 35.0435 98.2284C35.0435 97.0505 35.3183 96.1474 35.9073 95.5192C36.4962 94.891 37.3207 94.5769 38.4201 94.5769C39.4802 94.5769 40.3048 94.891 40.8937 95.5585C41.4434 96.1867 41.7183 97.0898 41.7183 98.2677ZM36.2606 98.2677C36.2606 99.1315 36.4569 99.7989 36.8103 100.27C37.1637 100.741 37.6741 100.938 38.3809 100.938C39.0876 100.938 39.598 100.702 39.9514 100.27C40.3048 99.8382 40.5011 99.1315 40.5011 98.2677C40.5011 97.4039 40.344 96.7364 39.9907 96.2652C39.6373 95.7941 39.1269 95.5978 38.4201 95.5978C37.7134 95.5978 37.203 95.8333 36.8496 96.2652C36.4177 96.7364 36.2606 97.3646 36.2606 98.2677Z" fill="white"/>
<path d="M48.0004 96.8543C48.0004 97.6003 47.7648 98.1892 47.2544 98.5819C46.7832 98.9745 46.0765 99.1708 45.1734 99.1708C44.7614 99.1708 44.4274 99.5048 44.4274 99.9168V101.252C44.4274 101.577 44.1637 101.841 43.8385 101.841C43.5132 101.841 43.2495 101.577 43.2495 101.252V96.7757C43.2495 95.6264 44.1812 94.6948 45.3305 94.6948C46.2335 94.6948 46.901 94.8911 47.3329 95.2444C47.7648 95.5978 48.0004 96.1475 48.0004 96.8543ZM44.4274 97.561C44.4274 97.908 44.7087 98.1892 45.0556 98.1892C45.6446 98.1892 46.1157 98.0714 46.3906 97.8751C46.6654 97.6788 46.8225 97.3254 46.8225 96.8935C46.8225 96.5009 46.7047 96.1868 46.4299 95.9905C46.1943 95.7941 45.8016 95.6764 45.252 95.6764C44.7966 95.6764 44.4274 96.0455 44.4274 96.5009V97.561Z" fill="white"/>
<path d="M53.4582 101.35C53.4582 101.621 53.2385 101.841 52.9674 101.841H51.4361C50.3194 101.841 49.4141 100.935 49.4141 99.8186V96.7168C49.4141 95.6001 50.3194 94.6948 51.4361 94.6948H52.9674C53.2385 94.6948 53.4582 94.9145 53.4582 95.1856C53.4582 95.4566 53.2385 95.6764 52.9674 95.6764H51.5736C51.0314 95.6764 50.592 96.1158 50.592 96.6579C50.592 97.2 51.0314 97.6395 51.5736 97.6395H52.8104C53.0814 97.6395 53.3011 97.8593 53.3011 98.1303C53.3011 98.4014 53.0814 98.6211 52.8104 98.6211H51.711C51.093 98.6211 50.592 99.1221 50.592 99.7401C50.592 100.358 51.093 100.859 51.711 100.859H52.9674C53.2385 100.859 53.4582 101.079 53.4582 101.35Z" fill="white"/>
<path d="M60.9969 101.841C60.0935 101.841 59.2544 101.374 58.778 100.606L56.0172 96.1585C56.013 96.1517 56.0055 96.1475 55.9975 96.1475C55.9835 96.1475 55.9727 96.1598 55.9744 96.1736L56.0104 96.4616C56.0497 97.0506 56.0889 97.6395 56.0889 98.1107V101.311C56.0889 101.603 55.8516 101.841 55.5589 101.841C55.2661 101.841 55.0288 101.603 55.0288 101.311V95.6011C55.0288 95.1005 55.4346 94.6948 55.9352 94.6948C56.2503 94.6948 56.5428 94.8584 56.7076 95.127L59.9294 100.376C59.934 100.383 59.9421 100.388 59.9508 100.388C59.9647 100.388 59.976 100.377 59.976 100.363C59.9757 100.26 59.9726 99.9934 59.9367 99.5634C59.9367 99.0923 59.8975 98.7389 59.8975 98.4641V95.2248C59.8975 94.9321 60.1348 94.6948 60.4275 94.6948C60.7203 94.6948 60.9576 94.9321 60.9576 95.2248V101.801C60.9576 101.823 60.9752 101.841 60.9969 101.841Z" fill="white"/>
<path d="M80.3533 66.1108C80.4319 66.0715 80.5497 66.0322 80.6282 66.0322C81.9632 65.6003 83.2589 65.1684 84.5938 64.7365C85.065 64.5795 85.6147 64.4617 85.968 64.8151C86.1644 65.0114 86.2036 65.2862 86.2036 65.5611C86.1643 66.3463 85.7324 67.0531 85.1042 67.485C88.7165 66.3071 92.4072 65.4433 96.2158 65.2077C96.7262 65.1684 97.3937 65.2077 97.6293 65.6789C97.8256 66.0715 97.6293 66.5819 97.3152 66.896C97.0011 67.2101 96.6084 67.4065 96.2943 67.7206C95.7839 68.1917 95.5091 68.8199 95.1557 69.4089C93.5459 71.961 90.4441 72.8248 87.7741 73.8457C84.3582 75.1806 82.6699 76.5156 82.1987 80.3241C81.5705 85.5854 81.8454 92.0247 80.1178 97.0504C79.5288 98.6995 78.2724 100.27 76.5841 100.584C74.8565 100.898 73.0896 99.8774 72.1473 98.3853C71.205 96.8933 71.0086 95.0872 71.1264 93.3204C71.4013 89.394 73.0111 85.2713 74.1497 81.502C74.6994 79.6567 75.2884 77.772 75.3276 75.8088C75.3276 74.1205 74.8565 72.7855 75.2491 71.0972C75.6417 69.3696 77.173 67.6028 78.7435 66.7782C79.254 66.5034 79.8037 66.3071 80.3533 66.1108Z" fill="#F6D1BA"/>
<path d="M27.7794 99.6418C28.0543 97.6001 27.4653 94.9302 26.6015 93.0455C26.523 92.8492 26.4445 92.6529 26.2482 92.5351C25.934 92.2995 25.5021 92.4173 25.1488 92.4958C22.4396 93.3204 19.8482 94.4983 17.4139 96.0296C17.0605 96.2651 16.7071 96.4615 16.4715 96.8148C15.647 97.9142 16.0004 100.702 16.4323 101.919C16.8249 103.136 17.4139 104.353 18.3169 105.256C19.22 106.16 20.5157 106.749 21.8114 106.631C22.9108 106.513 23.8531 105.924 24.6776 105.217C26.3267 103.804 27.4653 101.801 27.7794 99.6418Z" fill="#18558F"/>
<path d="M96.1766 65.1684C92.3681 65.4433 88.6773 66.3071 85.0651 67.4457C85.6933 67.0138 86.1252 66.3071 86.1644 65.5218C86.1644 65.247 86.1252 64.9721 85.9289 64.7758C85.5755 64.4224 85.0258 64.5795 84.5546 64.6973C83.2197 65.1292 81.924 65.5611 80.589 65.993C80.5105 66.0322 80.3927 66.0715 80.3142 66.0715C79.7645 66.2678 79.2148 66.4641 78.7044 66.6997C77.1338 67.485 75.6026 69.2518 75.2099 71.0187C74.8173 72.707 75.3277 74.042 75.2885 75.7303C75.2885 76.9475 75.0529 78.1254 74.7388 79.3033C76.0737 79.9315 77.5657 80.2456 79.0578 80.4812C80.0393 80.6382 81.0602 80.7953 82.081 80.8738C82.1203 80.6382 82.1203 80.4419 82.1596 80.2063C82.5915 76.3978 84.3191 75.0628 87.735 73.7279C90.4049 72.707 93.5067 71.8432 95.1165 69.2911C95.4699 68.7021 95.7447 68.0739 96.2552 67.6028C96.5693 67.2887 97.0012 67.0923 97.276 66.7782C97.5901 66.4641 97.7864 65.9537 97.5901 65.5611C97.3545 65.1684 96.7263 65.1684 96.1766 65.1684Z" fill="#34699C"/>
<path d="M85.7715 66.6213C83.4157 67.5243 81.1777 68.7022 79.0575 70.0372C78.6256 70.312 79.0182 70.9795 79.4501 70.7047C81.5311 69.409 83.6906 68.2311 85.9679 67.3673C86.439 67.2102 86.2427 66.4249 85.7715 66.6213Z" fill="white"/>
<path d="M24.0887 101.88C22.6359 102.351 21.1832 102.508 20.0445 101.055C19.4556 100.27 19.1807 99.2885 18.9844 98.3069C18.6703 96.8541 18.474 95.4406 18.2384 93.9879C18.1206 93.2026 18.0028 92.3781 18.3562 91.6714C18.5918 91.2002 18.9844 90.8468 19.377 90.5327C20.7905 89.3155 22.3611 88.0198 24.2457 88.0984C26.6408 88.2162 29.0751 88.4125 31.4309 88.8444C32.2162 89.0014 33.1585 89.2763 33.3548 90.0615C33.3941 90.2579 33.3941 90.4542 33.2763 90.6112C33.1585 90.729 32.9622 90.7683 32.8052 90.8075C30.5279 91.0431 28.2506 91.1217 25.9733 91.0431C28.1721 91.2395 30.4101 91.4358 32.491 92.221C33.1585 92.4566 33.9045 93.0063 33.7475 93.6738C33.6297 94.302 32.8444 94.5376 32.2162 94.6554C30.1745 94.9695 28.0935 95.0087 26.0518 94.7732C27.7794 94.7732 29.5463 95.1658 31.1168 95.8725C31.3917 95.9903 31.7058 96.1866 31.7058 96.5008C31.7058 96.8541 31.3524 97.0505 31.0383 97.1682C30.2138 97.4823 29.3892 97.4823 28.5647 97.9142C28.9181 98.621 28.604 99.4848 28.0543 100.034C27.5046 100.584 26.7586 100.898 26.0518 101.173C25.3844 101.369 24.7561 101.644 24.0887 101.88Z" fill="#34699C"/>
<path d="M42.5425 36.5453C42.5817 36.3883 42.6602 36.192 42.6995 36.0349C42.6995 35.9956 42.778 35.9171 42.778 35.8386C42.778 35.7993 42.8173 35.7601 42.8173 35.7601C42.8173 35.7601 42.8958 35.6815 42.8566 35.7208C42.9743 35.603 43.0136 35.5245 43.1707 35.4852C43.1314 35.5245 43.2099 35.4852 43.2099 35.4852C43.2099 35.4852 43.3277 35.4459 43.2885 35.4459C43.2492 35.4459 43.367 35.4459 43.367 35.4459C43.367 35.4459 43.4848 35.4459 43.4062 35.4459C43.6811 35.4852 43.8774 35.6423 44.0345 35.8386C44.2308 36.1134 44.3486 36.3883 44.4664 36.7024C44.5449 36.8987 44.7412 37.0558 44.9375 36.9772C45.1338 36.938 45.2909 36.7024 45.2124 36.5061C45.0553 36.0742 44.8983 35.6815 44.5842 35.2889C44.3093 34.9355 43.9167 34.6999 43.4455 34.6607C43.0136 34.6214 42.5817 34.8177 42.3069 35.1318C41.9928 35.4852 41.8357 35.9171 41.7179 36.349C41.6394 36.5453 41.7964 36.7809 41.9928 36.8202C42.2676 36.8594 42.5032 36.7416 42.5425 36.5453Z" fill="#140C15"/>
<path d="M54.8715 36.3491C54.7538 35.9172 54.5967 35.4853 54.2826 35.1319C54.0077 34.8178 53.5759 34.5823 53.144 34.6608C52.7121 34.7001 52.3194 34.9356 52.0053 35.289C51.7305 35.6424 51.5342 36.0743 51.3771 36.5062C51.2986 36.7025 51.4556 36.9381 51.6519 36.9773C51.8875 37.0559 52.0446 36.8988 52.1231 36.7025C52.2409 36.3884 52.3587 36.1135 52.555 35.8387C52.7121 35.6424 52.9084 35.4853 53.1832 35.4461C53.144 35.4461 53.1832 35.4461 53.2225 35.4461C53.2617 35.4461 53.301 35.4461 53.3403 35.4461C53.2617 35.4461 53.3795 35.4461 53.3795 35.4461C53.3795 35.4461 53.4973 35.4853 53.4581 35.4853C53.5758 35.5638 53.6544 35.6031 53.7722 35.7209C53.7329 35.6816 53.7722 35.7602 53.8114 35.7602C53.8507 35.7994 53.8507 35.8387 53.8507 35.8387C53.89 35.9172 53.9292 35.9957 53.9685 36.035C54.047 36.1921 54.0863 36.3884 54.1255 36.5454C54.2041 36.7418 54.4004 36.8595 54.5967 36.8203C54.8323 36.7418 54.9501 36.5454 54.8715 36.3491Z" fill="#140C15"/>
<path d="M76.9375 192.814C77.1338 194.581 77.5264 196.269 78.1546 197.918C78.7043 199.332 79.3325 201.138 80.6282 202.08C81.2957 202.551 82.081 202.748 82.8662 202.905C83.8086 203.101 84.7509 203.297 85.6932 203.494C87.6171 203.886 89.541 204.318 91.465 204.711C91.9754 204.829 92.1717 204.043 91.6613 203.965C89.8944 203.612 88.1276 203.219 86.3607 202.866C85.4576 202.669 84.5938 202.512 83.6908 202.316C82.9448 202.159 82.1202 202.041 81.4135 201.688C80.746 201.334 80.3141 200.706 79.9215 200.039C79.5289 199.293 79.1755 198.507 78.8614 197.722C78.2724 196.152 77.8798 194.502 77.6835 192.814C77.6835 192.343 76.8982 192.343 76.9375 192.814Z" fill="#140C15"/>
<path d="M97.3933 208.52C97.7074 208.48 98.0216 208.441 98.1786 208.205C98.2964 208.048 98.2964 207.813 98.2571 207.616C98.2571 207.342 98.1786 207.106 98.1394 206.87C88.9517 206.635 79.7248 206.674 70.5371 207.028C70.7727 207.616 71.1653 208.127 71.7543 208.362C72.1077 208.52 72.461 208.559 72.8144 208.559C72.9714 208.559 73.1678 208.559 73.3248 208.559C81.3738 208.52 89.4228 209.226 97.3933 208.52Z" fill="#140C15"/>
<path d="M90.7974 207.577C91.19 205.732 92.1716 204.122 93.5458 202.866C93.9385 202.512 93.3495 201.962 92.9962 202.316C91.5041 203.651 90.444 205.418 90.0121 207.381C89.9336 207.852 90.6796 208.088 90.7974 207.577Z" fill="#140C15"/>
<path d="M29.7036 195.366C29.3502 197.015 29.0361 198.625 28.6827 200.274C28.5256 201.059 28.3686 201.884 28.2115 202.669C28.0937 203.258 27.8582 203.965 28.2115 204.554C28.5256 205.064 29.2324 205.221 29.7821 205.339C30.4888 205.457 31.1956 205.496 31.9023 205.378C32.2557 205.339 32.6091 205.261 32.9232 205.182C33.198 205.104 33.6299 205.025 33.8262 204.79C34.0225 204.554 33.9833 204.083 34.0225 203.808C34.0618 203.376 34.1403 202.944 34.1796 202.512C34.4544 200.588 34.69 198.704 34.9649 196.78C35.0434 196.269 34.2581 196.269 34.1796 196.78C33.8262 199.371 33.4728 201.923 33.1587 204.515C33.2373 204.397 33.3551 204.279 33.4336 204.122C32.452 204.515 31.4311 204.711 30.371 204.593C29.9784 204.554 29.0361 204.475 28.8398 204.043C28.6827 203.612 28.9575 202.866 29.0361 202.434C29.468 200.156 29.9391 197.84 30.4103 195.563C30.5673 195.091 29.8213 194.895 29.7036 195.366Z" fill="#140C15"/>
<path d="M22.4788 207.459C24.5597 205.614 27.3867 204.672 30.1351 204.829C33.237 205.025 35.8284 206.753 38.1449 208.716C38.5375 209.03 39.0872 208.48 38.6946 208.166C36.221 206.085 33.4725 204.24 30.1351 204.043C27.1511 203.847 24.1278 204.907 21.8898 206.91C21.5364 207.224 22.0861 207.813 22.4788 207.459Z" fill="#140C15"/>
<path d="M36.4962 209.54C36.9281 209.501 37.3992 209.344 37.7919 209.148C38.263 208.873 38.6556 208.52 38.852 208.009V207.97C33.1588 208.205 27.387 208.48 21.8901 207.106C21.8901 207.342 21.9294 207.577 22.0472 207.813C22.2828 208.284 22.8325 208.52 23.3429 208.716C27.3085 210.129 32.452 209.933 36.4962 209.54Z" fill="#140C15"/>
<path d="M62.0568 119.431C62.0568 119.077 62.0176 118.724 61.782 118.488C61.5071 118.213 61.0752 118.214 60.6826 118.214C52.0839 118.214 43.4852 118.606 34.9257 118.685C34.8865 118.685 34.965 119.627 35.0043 120.844C44.0349 120.687 53.0655 120.569 62.0961 120.412C62.0961 120.059 62.0961 119.745 62.0568 119.431Z" fill="#4F3D3B"/>
<path d="M166.89 209.305C166.065 209.423 165.241 209.54 164.377 209.658C161.668 195.445 159.037 181.192 156.485 166.939C156.328 166.115 156.21 165.173 156.681 164.427C157.663 162.895 160.254 163.955 160.922 165.683C162.375 169.492 166.262 209.383 166.89 209.305Z" fill="#F4C06B"/>
<path d="M141.84 209.697C141.015 209.737 140.151 209.776 139.327 209.815C137.992 195.405 136.735 180.956 135.558 166.547C135.479 165.683 135.44 164.741 135.989 164.073C137.128 162.66 139.602 163.955 140.073 165.722C141.172 169.649 141.211 209.737 141.84 209.697Z" fill="#140C15"/>
<path d="M105.521 209.305C106.346 209.423 107.17 209.54 108.034 209.658C110.743 195.445 113.374 181.192 115.926 166.939C116.083 166.115 116.201 165.173 115.73 164.427C114.748 162.895 112.157 163.955 111.489 165.683C110.036 169.492 106.149 209.383 105.521 209.305Z" fill="#F4C06B"/>
<path d="M130.571 209.697C131.396 209.737 132.26 209.776 133.084 209.815C134.419 195.405 135.676 180.956 136.853 166.547C136.932 165.683 136.971 164.741 136.422 164.073C135.283 162.66 132.809 163.955 132.338 165.722C131.278 169.649 131.2 209.737 130.571 209.697Z" fill="#F4C06B"/>
<path d="M120.952 167.803C117.025 167.764 113.02 167.646 109.487 165.997C104.068 163.445 103.95 157.791 103.165 152.648C102.066 145.776 101.359 138.866 100.966 131.916C100.77 128.265 100.613 124.613 100.535 120.962C100.456 117.546 100.652 113.541 103.401 111.46C105.207 110.086 107.68 109.929 109.958 109.89C113.138 109.811 116.318 109.693 119.499 109.615C124.25 109.497 129.197 109.379 133.516 111.382C140.073 114.444 140.191 120.844 141.133 127.087C142.389 135.175 143.96 143.264 145.845 151.234C148.083 160.854 157.859 161.05 165.908 163.798C166.654 164.073 167.44 164.348 167.95 164.937C168.5 165.526 168.696 166.468 168.225 167.096C167.754 167.725 166.851 167.764 166.065 167.803C151.184 167.921 136.343 167.764 121.462 167.764C121.226 167.803 121.109 167.803 120.952 167.803Z" fill="#EF4136"/>
<path d="M106.228 110.086C103.911 110.989 103.361 113.541 103.479 115.779C103.636 118.527 104.068 121.315 104.539 124.024C105.482 129.6 106.817 135.057 107.995 140.554C109.133 145.855 109.84 151.352 111.999 156.377C112.745 158.144 113.884 159.558 115.612 160.461C117.653 161.482 120.009 161.992 122.247 162.463C125.271 163.052 128.333 163.366 131.396 163.877C132.927 164.112 134.419 164.387 135.911 164.78C137.128 165.094 139.091 165.761 138.816 167.411C138.738 167.921 139.484 168.117 139.562 167.607C139.955 164.898 136.814 164.152 134.851 163.72C132.22 163.131 129.511 162.817 126.841 162.424C124.171 162.031 121.462 161.6 118.871 160.854C117.143 160.343 115.337 159.754 114.08 158.38C113.334 157.555 112.903 156.574 112.471 155.553C111.96 154.297 111.528 153.04 111.175 151.705C110.468 149.153 109.997 146.522 109.487 143.931C108.426 138.552 107.092 133.212 106.031 127.794C105.403 124.731 104.893 121.629 104.5 118.527C104.225 116.132 103.479 112.01 106.385 110.871C106.934 110.675 106.699 109.929 106.228 110.086Z" fill="#140C15"/>
<path d="M201.599 209.305C202.424 209.423 203.248 209.54 204.112 209.658C206.821 195.445 209.452 181.192 212.004 166.939C212.161 166.115 212.279 165.173 211.808 164.427C210.826 162.895 208.235 163.955 207.567 165.683C206.114 169.492 202.227 209.383 201.599 209.305Z" fill="#F4C06B"/>
<path d="M226.688 209.697C227.513 209.737 228.377 209.776 229.201 209.815C230.536 195.405 231.793 180.956 232.971 166.547C233.049 165.683 233.088 164.741 232.539 164.073C231.4 162.66 228.926 163.955 228.455 165.722C227.356 169.649 227.277 209.737 226.688 209.697Z" fill="#140C15"/>
<path d="M262.968 209.305C262.143 209.423 261.319 209.54 260.455 209.658C257.746 195.445 255.115 181.192 252.563 166.939C252.406 166.115 252.288 165.173 252.759 164.427C253.741 162.895 256.332 163.955 257 165.683C258.453 169.492 262.34 209.383 262.968 209.305Z" fill="#F4C06B"/>
<path d="M237.917 209.697C237.093 209.737 236.229 209.776 235.404 209.815C234.07 195.405 232.813 180.956 231.635 166.547C231.557 165.683 231.517 164.741 232.067 164.073C233.206 162.66 235.679 163.955 236.15 165.722C237.25 169.649 237.289 209.737 237.917 209.697Z" fill="#F4C06B"/>
<path d="M247.537 167.803C251.464 167.764 255.468 167.646 259.002 165.997C264.421 163.445 264.538 157.791 265.324 152.647C266.423 145.776 267.13 138.866 267.522 131.916C267.719 128.265 267.876 124.613 267.954 120.962C268.033 117.546 267.836 113.541 265.088 111.46C263.282 110.086 260.808 109.929 258.531 109.89C255.351 109.811 252.17 109.693 248.99 109.615C244.239 109.497 239.292 109.379 234.973 111.382C228.416 114.444 228.298 120.844 227.356 127.087C226.099 135.175 224.529 143.263 222.644 151.234C220.406 160.854 210.63 161.05 202.581 163.798C201.835 164.073 201.049 164.348 200.539 164.937C200.028 165.526 199.793 166.468 200.264 167.096C200.735 167.725 201.638 167.764 202.423 167.803C217.304 167.921 232.146 167.764 247.027 167.764C247.262 167.803 247.419 167.803 247.537 167.803Z" fill="#EF4136"/>
<path d="M262.065 110.871C264.695 111.892 264.303 115.386 264.067 117.624C263.792 120.373 263.36 123.082 262.85 125.791C261.829 131.21 260.533 136.549 259.395 141.968C258.845 144.638 258.374 147.347 257.746 150.017C257.432 151.312 257.078 152.569 256.646 153.825C256.254 155.003 255.822 156.22 255.194 157.32C254.251 158.93 252.798 159.872 251.071 160.461C248.676 161.285 246.163 161.796 243.65 162.188C240.627 162.66 237.525 163.013 234.541 163.602C232.421 164.034 228.455 164.662 228.926 167.685C229.005 168.196 229.751 167.96 229.672 167.489C229.476 166.076 231.007 165.329 232.107 164.976C233.402 164.623 234.698 164.348 236.033 164.112C238.781 163.641 241.569 163.327 244.357 162.856C246.87 162.463 249.383 161.953 251.738 161.05C253.427 160.422 254.879 159.44 255.822 157.869C256.45 156.849 256.882 155.671 257.274 154.532C257.706 153.276 258.099 151.98 258.413 150.684C259.081 148.014 259.512 145.266 260.101 142.596C261.24 137.099 262.575 131.602 263.635 126.066C264.185 123.043 264.656 120.019 264.97 116.957C265.206 114.444 265.088 111.264 262.3 110.164C261.79 109.929 261.593 110.675 262.065 110.871Z" fill="#140C15"/>
<path d="M232.774 140.24C234.069 149.114 235.365 158.027 236.661 166.9C237.956 175.774 239.252 184.687 240.548 193.56C241.294 198.586 242.001 203.572 242.747 208.598C242.786 208.991 242.668 209.383 242.236 209.501C241.883 209.58 241.412 209.383 241.333 208.991C240.037 200.117 238.742 191.204 237.446 182.331C236.15 173.457 234.855 164.544 233.559 155.671C232.813 150.645 232.106 145.659 231.36 140.633C231.321 140.24 231.439 139.848 231.871 139.73C232.224 139.651 232.734 139.887 232.774 140.24Z" fill="#140C15"/>
<path d="M200.146 140.123C200.578 149.075 201.01 158.066 201.441 167.018C201.873 175.97 202.305 184.961 202.737 193.914C202.973 198.978 203.208 204.043 203.483 209.069C203.522 210.012 202.07 210.012 202.03 209.069C201.599 200.117 201.167 191.126 200.735 182.174C200.303 173.222 199.871 164.23 199.439 155.278C199.203 150.213 198.968 145.148 198.693 140.123C198.614 139.18 200.067 139.18 200.146 140.123Z" fill="#140C15"/>
<path d="M138.267 140.633C136.971 149.506 135.675 158.419 134.379 167.293C133.084 176.166 131.788 185.079 130.492 193.953C129.746 198.978 129.04 203.965 128.294 208.991C128.254 209.383 127.744 209.58 127.391 209.501C126.959 209.383 126.841 208.991 126.88 208.598C128.176 199.724 129.472 190.812 130.767 181.938C132.063 173.065 133.359 164.152 134.654 155.278C135.4 150.252 136.107 145.266 136.853 140.24C136.892 139.848 137.403 139.651 137.756 139.73C138.188 139.848 138.306 140.24 138.267 140.633Z" fill="#140C15"/>
<path d="M169.206 140.123C168.774 149.075 168.342 158.066 167.91 167.018C167.478 175.97 167.046 184.961 166.615 193.914C166.379 198.978 166.143 204.043 165.869 209.069C165.829 210.012 164.377 210.012 164.416 209.069C164.848 200.117 165.28 191.126 165.712 182.174C166.143 173.222 166.575 164.23 167.007 155.278C167.243 150.213 167.478 145.148 167.753 140.123C167.792 139.18 169.245 139.18 169.206 140.123Z" fill="#140C15"/>
<path d="M238.781 135.764H127.587V142.4H238.781V135.764Z" fill="#F4C06B"/>
<path d="M179.14 123.75C179.415 127.676 179.925 131.602 180.632 135.411C181.496 136.039 189.349 135.961 190.173 135.411C190.88 131.563 191.39 127.637 191.665 123.71H179.14V123.75Z" fill="white"/>
<path d="M190.959 123.278C189.192 123.043 187.425 123.082 185.658 123.082C183.734 123.043 181.771 123.121 179.926 123.357C179.533 123.396 179.062 123.553 179.14 123.789C179.18 123.907 179.376 123.985 179.572 124.064C181.104 124.496 183.263 124.417 184.951 124.417C186.836 124.417 189.428 124.535 191.155 123.985C191.391 123.907 191.666 123.789 191.626 123.632C191.666 123.435 191.273 123.318 190.959 123.278Z" fill="#1A1A1A"/>
<path d="M187.503 115.347C186.051 118.214 185.305 121.433 184.951 124.653C184.873 125.556 184.794 126.459 184.755 127.362C184.755 127.598 185.148 127.598 185.148 127.362C185.265 124.182 185.736 121.001 186.797 118.017C187.111 117.193 187.425 116.368 187.857 115.583C187.935 115.308 187.621 115.112 187.503 115.347Z" fill="#252E2D"/>
<path d="M192.176 118.92C190.92 119.509 189.663 120.216 188.642 121.158C188.132 121.629 187.661 122.14 187.268 122.689C186.836 123.318 186.483 124.064 186.208 124.77C185.855 125.674 185.501 126.577 185.187 127.48C185.109 127.715 185.501 127.833 185.58 127.597C185.815 126.812 186.09 126.066 186.404 125.32C186.718 124.574 186.993 123.828 187.425 123.161C188.171 122.022 189.192 121.08 190.331 120.373C190.998 119.941 191.666 119.588 192.372 119.274C192.608 119.156 192.412 118.802 192.176 118.92Z" fill="#252E2D"/>
<path d="M181.731 115.74C183.341 118.567 184.519 121.59 185.226 124.77C185.422 125.673 185.579 126.577 185.697 127.48C185.736 127.715 186.129 127.715 186.09 127.48C185.658 124.221 184.715 121.04 183.341 118.056C182.949 117.193 182.517 116.368 182.046 115.543C181.928 115.308 181.574 115.504 181.731 115.74Z" fill="#252E2D"/>
<path d="M178.551 120.883C179.337 120.412 180.24 119.98 181.182 119.941C182.085 119.902 182.87 120.412 183.538 121.001C184.716 122.022 185.501 123.396 185.815 124.888C186.012 125.752 186.011 126.616 185.854 127.48C185.815 127.715 186.208 127.833 186.247 127.597C186.522 125.948 186.247 124.221 185.423 122.768C185.03 122.022 184.48 121.355 183.891 120.805C183.224 120.216 182.399 119.666 181.496 119.588C180.358 119.47 179.258 120.02 178.316 120.569C178.159 120.648 178.355 121.001 178.551 120.883Z" fill="#252E2D"/>
<path d="M190.762 116.015C190.291 116.368 186.404 118.842 186.286 118.449C185.462 115.269 186.09 111.539 187.778 108.751C188.328 107.887 188.995 107.063 189.859 106.513C190.723 105.963 191.901 105.845 192.804 106.317C193.393 106.631 193.864 107.141 194.139 107.73C194.885 109.183 194.689 110.989 193.982 112.442C193.314 113.895 192.097 115.033 190.762 116.015Z" fill="#197164"/>
<path d="M187.896 122.258C188.878 118.135 191.469 114.405 195.003 112.049C195.671 111.617 196.652 111.225 197.241 111.774C197.438 111.971 197.555 112.245 197.634 112.52C198.498 115.347 197.045 118.685 194.414 120.02C192.333 121.04 189.742 120.962 187.936 122.375" fill="#197164"/>
<path d="M177.727 114.169C178.355 114.798 179.062 115.308 179.769 115.818C180.711 116.486 181.693 117.153 182.478 118.017C182.792 118.331 183.028 118.685 183.342 118.999C183.342 118.999 183.97 116.525 184.009 116.211C184.127 115.033 183.97 113.816 183.695 112.717C183.303 111.264 182.635 109.85 181.457 108.908C179.651 107.495 176.549 107.495 176.157 110.282C176 111.421 176.431 112.638 177.177 113.541C177.295 113.737 177.492 113.973 177.727 114.169Z" fill="#198467"/>
<path d="M181.418 114.366C180.357 113.541 178.944 113.266 177.727 112.677C177.138 112.402 176.549 111.931 176.156 111.421C176.274 112.206 176.667 112.913 177.138 113.541C177.334 113.777 177.53 113.973 177.727 114.209C178.355 114.837 179.062 115.347 179.768 115.858C180.711 116.525 181.692 117.193 182.478 118.056C182.753 118.331 182.988 118.645 183.224 118.92C183.263 117.153 182.713 115.386 181.418 114.366Z" fill="#197164"/>
<path d="M179.258 122.454C180.004 121.237 180.907 120.648 182.007 119.823C182.046 119.784 182.085 119.784 182.085 119.745C182.085 119.666 182.046 119.627 182.007 119.588C180.829 118.135 179.337 117.075 177.374 117.193C175.921 117.271 174.507 118.096 173.722 119.352C173.172 120.216 172.937 121.237 172.858 122.218C172.819 123.161 172.976 124.142 173.486 124.967C173.997 125.752 174.939 126.341 175.882 126.223C176.745 126.145 177.491 125.517 178.002 124.771C178.512 124.064 178.826 123.239 179.258 122.454Z" fill="#198467"/>
<path d="M197.83 113.345C197.751 114.641 196.77 115.701 195.631 116.368C194.453 117.036 193.118 117.428 191.98 118.174C190.802 118.96 189.859 120.059 188.996 121.158C188.682 121.512 188.407 121.865 188.132 122.258C189.938 120.962 192.412 121.04 194.414 120.02C196.809 118.842 198.183 115.976 197.83 113.345Z" fill="#198467"/>
<path d="M189.506 120.059C188.799 119.47 187.778 119.705 186.758 119.941C185.815 120.177 184.755 119.98 183.852 120.255C183.106 120.491 182.399 121.001 182.085 121.708C181.85 122.218 181.81 122.807 181.85 123.357C181.967 124.496 182.399 125.595 183.224 126.38C183.734 126.851 184.323 127.205 184.991 127.44C186.286 127.912 187.857 127.833 188.917 126.969C189.585 126.42 189.977 125.634 190.252 124.81C190.684 123.2 190.723 122.179 190.016 120.687C189.859 120.451 189.702 120.216 189.506 120.059Z" fill="#198467"/>
</svg>
