<svg width="150" height="46" viewBox="0 0 150 46" fill="none" xmlns="http://www.w3.org/2000/svg">
<rect width="150" height="45.6221" rx="22.8111" fill="#00A3FF"/>
<path d="M62.66 20.52C62.66 21.62 62.06 22.28 60.78 22.28H58.66V18.8H60.78C62.06 18.8 62.66 19.48 62.66 20.52ZM55.24 15.96V30H58.66V24.7H59.48L62.4 30H66.26L63.02 24.44C65.18 23.8 66.14 22.14 66.14 20.38C66.14 17.94 64.42 15.96 60.98 15.96H55.24ZM73.2069 21.42C74.3469 21.42 75.3069 22.12 75.3069 23.34H71.0269C71.2269 22.1 72.0869 21.42 73.2069 21.42ZM78.5469 26.3H74.9069C74.6269 26.9 74.0869 27.38 73.1269 27.38C72.0269 27.38 71.1269 26.7 71.0069 25.24H78.7469C78.7869 24.9 78.8069 24.56 78.8069 24.24C78.8069 20.84 76.5069 18.68 73.2469 18.68C69.9269 18.68 67.6069 20.88 67.6069 24.42C67.6069 27.96 69.9669 30.16 73.2469 30.16C76.0269 30.16 78.0069 28.48 78.5469 26.3ZM79.5511 18.84L83.5111 30H87.7311L91.6911 18.84H88.0511L85.6311 26.8L83.2111 18.84H79.5511ZM93.1306 30H96.5506V18.84H93.1306V30ZM94.8506 17.68C96.0506 17.68 96.8706 16.86 96.8706 15.84C96.8706 14.8 96.0506 13.98 94.8506 13.98C93.6306 13.98 92.8106 14.8 92.8106 15.84C92.8106 16.86 93.6306 17.68 94.8506 17.68ZM103.949 21.42C105.089 21.42 106.049 22.12 106.049 23.34H101.769C101.969 22.1 102.829 21.42 103.949 21.42ZM109.289 26.3H105.649C105.369 26.9 104.829 27.38 103.869 27.38C102.769 27.38 101.869 26.7 101.749 25.24H109.489C109.529 24.9 109.549 24.56 109.549 24.24C109.549 20.84 107.249 18.68 103.989 18.68C100.669 18.68 98.3491 20.88 98.3491 24.42C98.3491 27.96 100.709 30.16 103.989 30.16C106.769 30.16 108.749 28.48 109.289 26.3ZM113.233 30H116.993L118.813 22.76L120.573 30H124.353L127.373 18.84H124.153L122.593 26.78L120.693 18.84H117.073L115.193 26.82L113.613 18.84H110.193L113.233 30Z" fill="#FFF9F3"/>
<path d="M29.9259 12.6448C24.1155 12.6448 19.3887 17.3716 19.3887 23.182C19.3887 28.9925 24.1155 33.7193 29.9259 33.7193C35.7364 33.7193 40.4632 28.9925 40.4632 23.182C40.4632 17.3716 35.7364 12.6448 29.9259 12.6448ZM34.536 24.0601H30.804V27.7921C30.804 28.2769 30.4107 28.6701 29.9259 28.6701C29.4412 28.6701 29.0479 28.2769 29.0479 27.7921V24.0601H25.3159C24.8311 24.0601 24.4378 23.6668 24.4378 23.182C24.4378 22.6973 24.8311 22.304 25.3159 22.304H29.0479V18.572C29.0479 18.0872 29.4412 17.6939 29.9259 17.6939C30.4107 17.6939 30.804 18.0872 30.804 18.572V22.304H34.536C35.0208 22.304 35.414 22.6973 35.414 23.182C35.414 23.6668 35.0208 24.0601 34.536 24.0601V24.0601Z" fill="#FFF9F3"/>
</svg>
