<svg width="217" height="66" viewBox="0 0 217 66" fill="none" xmlns="http://www.w3.org/2000/svg">
<rect width="217" height="66" rx="25" fill="#00A3FF"/>
<path d="M86.99 29.78C86.99 31.43 86.09 32.42 84.17 32.42H80.99V27.2H84.17C86.09 27.2 86.99 28.22 86.99 29.78ZM75.86 22.94V44H80.99V36.05H82.22L86.6 44H92.39L87.53 35.66C90.77 34.7 92.21 32.21 92.21 29.57C92.21 25.91 89.63 22.94 84.47 22.94H75.86ZM102.81 31.13C104.52 31.13 105.96 32.18 105.96 34.01H99.5403C99.8403 32.15 101.13 31.13 102.81 31.13ZM110.82 38.45H105.36C104.94 39.35 104.13 40.07 102.69 40.07C101.04 40.07 99.6903 39.05 99.5103 36.86H111.12C111.18 36.35 111.21 35.84 111.21 35.36C111.21 30.26 107.76 27.02 102.87 27.02C97.8903 27.02 94.4103 30.32 94.4103 35.63C94.4103 40.94 97.9503 44.24 102.87 44.24C107.04 44.24 110.01 41.72 110.82 38.45ZM112.327 27.26L118.267 44H124.597L130.537 27.26H125.077L121.447 39.2L117.817 27.26H112.327ZM132.696 44H137.826V27.26H132.696V44ZM135.276 25.52C137.076 25.52 138.306 24.29 138.306 22.76C138.306 21.2 137.076 19.97 135.276 19.97C133.446 19.97 132.216 21.2 132.216 22.76C132.216 24.29 133.446 25.52 135.276 25.52ZM148.924 31.13C150.634 31.13 152.074 32.18 152.074 34.01H145.654C145.954 32.15 147.244 31.13 148.924 31.13ZM156.934 38.45H151.474C151.054 39.35 150.244 40.07 148.804 40.07C147.154 40.07 145.804 39.05 145.624 36.86H157.234C157.294 36.35 157.324 35.84 157.324 35.36C157.324 30.26 153.874 27.02 148.984 27.02C144.004 27.02 140.524 30.32 140.524 35.63C140.524 40.94 144.064 44.24 148.984 44.24C153.154 44.24 156.124 41.72 156.934 38.45ZM162.85 44H168.49L171.22 33.14L173.86 44H179.53L184.06 27.26H179.23L176.89 39.17L174.04 27.26H168.61L165.79 39.23L163.42 27.26H158.29L162.85 44Z" fill="#FFF9F3"/>
<path d="M43.2927 18.2927C34.8869 18.2927 28.0488 25.1308 28.0488 33.5366C28.0488 41.9425 34.8869 48.7805 43.2927 48.7805C51.6986 48.7805 58.5366 41.9425 58.5366 33.5366C58.5366 25.1308 51.6986 18.2927 43.2927 18.2927ZM49.9619 34.8069H44.563V40.2058C44.563 40.9071 43.994 41.4761 43.2927 41.4761C42.5914 41.4761 42.0225 40.9071 42.0225 40.2058V34.8069H36.6235C35.9222 34.8069 35.3533 34.2379 35.3533 33.5366C35.3533 32.8353 35.9222 32.2664 36.6235 32.2664H42.0225V26.8674C42.0225 26.1661 42.5914 25.5972 43.2927 25.5972C43.994 25.5972 44.563 26.1661 44.563 26.8674V32.2664H49.9619C50.6632 32.2664 51.2322 32.8353 51.2322 33.5366C51.2322 34.2379 50.6632 34.8069 49.9619 34.8069V34.8069Z" fill="#FFF9F3"/>
</svg>
