<svg width="289" height="212" viewBox="0 0 289 212" fill="none" xmlns="http://www.w3.org/2000/svg">
<path d="M83.3974 39.6958C76.8742 44.7549 70.6401 50.1254 64.9839 56.0406C48.3871 73.2417 39.3868 96.7472 37.2399 119.863C35.6298 137.103 39.4694 155.394 51.1945 168.704C57.3461 175.67 65.3142 180.962 73.5301 185.632C81.5395 190.146 89.9618 194.194 98.9621 196.645C108.788 199.331 119.027 200.148 129.224 200.81C156.308 202.522 183.887 203.144 210.186 196.723C249.201 187.189 278.39 165.551 286.358 127.297C289.413 112.547 290.198 97.0974 285.615 82.6983C282.023 71.4904 275.004 61.2943 265.054 54.2505C255.27 47.3234 244.081 43.6652 234.131 37.2051C223.686 30.3948 216.709 20.043 206.883 12.5711C195.694 4.04838 181.905 -0.0767519 167.579 0.00108086C146.771 0.11783 130.958 7.43411 114.114 18.4474C103.627 25.2578 93.1821 32.146 83.3974 39.6958Z" fill="#FFE9A3"/>
<path d="M196 8C217.167 13.6667 261.3 29.8 268.5 49C275.7 68.2 281.167 77.3333 283 79.5" stroke="#FFE9A3" stroke-width="1.5"/>
<path d="M203 11C227 27.5 251.041 28.5986 257 44.979C262.959 61.3594 267.483 69.1515 269 71" stroke="#FFE9A3" stroke-width="2"/>
<path d="M238.755 192.637C239.787 183.648 240.53 174.541 242.182 165.746C243.957 156.056 244.948 146.132 243.585 136.325C235.328 135.352 226.989 134.807 218.69 134.613C217.41 134.574 216.048 134.574 214.974 135.197C212.951 136.364 214.066 139.205 213.984 141.034C213.86 143.797 213.695 146.521 213.612 149.284C213.406 154.772 213.282 160.298 213.282 165.785C213.282 176.798 213.695 187.773 214.562 198.747C214.809 201.86 235.37 199.214 237.516 198.475C237.682 198.397 237.888 198.358 238.012 198.202C238.177 198.008 238.218 197.774 238.26 197.541C238.383 195.906 238.59 194.272 238.755 192.637Z" fill="#1C272B"/>
<path d="M270.174 191.314C269.678 182.48 268.357 173.179 269.018 164.462C269.761 154.655 269.678 144.653 267.242 135.041C258.903 134.885 250.563 135.08 242.265 135.703C240.985 135.78 239.622 135.936 238.631 136.637C236.732 137.96 238.136 140.723 238.26 142.552C238.425 145.315 238.549 148.039 238.755 150.802C239.622 163.294 242.141 175.203 244.7 187.5C245.444 191.08 246.228 194.7 248.003 197.93C248.21 198.319 248.457 198.669 248.788 198.903C249.283 199.253 249.944 199.292 250.563 199.292C254.774 199.409 258.985 199.37 263.196 199.175C265.674 199.058 268.564 198.669 269.72 196.607C270.339 195.517 270.298 194.233 270.256 193.026C270.256 192.443 270.215 191.898 270.174 191.314Z" fill="#1C272B"/>
<path d="M199.988 127.141C199.906 127.102 199.864 127.063 199.782 127.063C197.8 126.207 195.818 125.351 193.837 124.495C192.35 123.833 190.781 123.133 189.749 121.926C187.85 119.669 189.832 115.661 191.236 113.52C191.525 113.092 191.814 112.703 192.309 112.47C192.681 112.314 193.052 112.236 193.465 112.236C199.658 111.691 205.355 113.52 211.011 115.739C212.333 116.244 213.736 116.867 214.356 118.074C214.768 118.891 214.768 119.825 214.562 120.72C214.067 122.666 212.58 124.3 210.929 125.545C207.543 127.997 203.828 128.737 199.988 127.141Z" fill="#F2A59B"/>
<path d="M266.871 115.349C266.954 113.987 267.077 112.625 267.201 111.263C267.862 104.064 268.522 96.864 269.183 89.6645C269.472 86.5512 269.761 83.3211 268.811 80.3246C265.054 68.1048 244.329 72.8915 234.957 74.0201C229.136 74.7206 222.943 75.6157 218.649 79.3906C214.397 83.1265 213.406 88.9251 210.557 93.4394C206.635 99.6271 201.763 105.465 197.428 111.419C197.222 111.691 197.016 112.002 196.974 112.314C196.892 112.703 197.057 113.092 197.263 113.442C198.502 115.777 202.052 118.696 204.406 120.097C205.19 120.564 214.273 123.794 214.356 122.51C214.067 127.219 213.736 131.928 213.447 136.637C213.406 137.026 213.406 137.454 213.654 137.765C213.901 138.076 214.273 138.193 214.645 138.31C223.934 140.995 234.173 140.567 243.751 140.061C247.467 139.867 250.522 140.528 254.155 140.84C258.655 141.229 263.651 139.75 267.862 138.466C268.068 138.388 268.275 138.349 268.399 138.193C268.688 137.921 268.646 137.454 268.564 137.065C267.16 130.138 266.417 122.393 266.871 115.349Z" fill="#9B8579"/>
<path d="M250.398 88.6136C249.902 90.754 249.407 92.8944 248.911 95.0348C248.498 96.8639 248.333 98.9654 247.631 100.678C247.012 100.483 246.434 100.327 245.815 100.133C245.691 100.094 245.608 100.055 245.526 99.9772C245.443 99.8604 245.443 99.7437 245.485 99.6269C245.98 95.891 247.301 92.4274 248.168 88.8082C249.118 84.8387 250.109 80.9082 251.058 76.9387C251.223 76.1993 251.43 75.4599 251.347 74.7205C251.265 73.9811 250.852 73.2417 250.15 72.8914C249.531 72.5801 248.787 72.6579 248.086 72.7357C243.833 73.2416 239.539 73.3973 235.246 73.6308C233.553 73.7476 231.736 73.9032 230.498 74.9929C229.59 75.8101 229.218 76.9387 228.846 78.0673C227.608 81.8811 226.534 85.7338 225.585 89.5865C224.677 93.2836 224.429 96.9806 223.603 100.678C222.777 100.639 221.993 100.561 221.167 100.483C221.085 97.6422 222.117 94.8792 222.654 92.0772C223.19 89.1195 223.768 86.123 224.429 83.1653C225.213 79.5461 226.287 75.6545 229.466 73.5141C232.686 71.3347 236.897 70.751 240.778 70.4786C244.329 70.2062 248.705 68.883 252.008 70.9067C253.37 71.7628 254.031 73.3973 253.989 74.954C253.989 76.0825 253.659 77.1722 253.37 78.2229C252.379 81.7643 251.223 85.0722 250.398 88.6136Z" fill="#C49A6C"/>
<path d="M218.36 85.4615C217.865 90.0536 218.112 94.6847 217.947 99.3157C217.865 101.573 217.741 103.83 217.245 106.048C216.791 108.111 216.172 110.134 215.635 112.158C215.057 114.454 214.644 116.828 214.851 119.202C214.892 119.435 215.305 119.435 215.264 119.202C214.851 114.921 216.544 110.835 217.493 106.749C218.525 102.351 218.401 97.7591 218.401 93.2837C218.401 90.6763 218.484 88.0689 218.732 85.4615C218.814 85.228 218.401 85.228 218.36 85.4615Z" fill="#64534B"/>
<path d="M231.489 137.96C231.943 145.354 232.521 152.903 236.072 159.636C236.939 161.232 238.012 162.866 239.746 163.683C240.201 163.917 240.655 163.255 240.159 163.022C238.632 162.282 237.682 160.92 236.939 159.519C236.072 157.924 235.37 156.25 234.792 154.499C233.677 151.113 233.099 147.572 232.769 144.031C232.563 142.007 232.439 139.944 232.315 137.921C232.274 137.493 231.448 137.454 231.489 137.96Z" fill="#BAAF7B"/>
<path d="M214.356 188.24C224.223 189.796 234.255 190.419 244.205 190.108C249.16 189.952 254.279 189.757 259.151 188.94C262.66 188.356 266.5 188.862 269.802 187.345C270.215 187.15 270.628 186.917 270.835 186.527C271.041 186.177 271.041 185.749 271 185.36C270.504 174.113 270.009 162.866 269.513 151.619C269.266 146.093 269.018 140.567 268.77 135.041C268.77 130.138 268.316 125.234 268.068 120.331C260.142 118.657 254.238 110.835 251.306 104.141C250.109 101.417 249.242 98.5764 248.416 95.7744C248.293 95.3463 248.127 94.8794 247.756 94.6459C247.384 94.4124 246.889 94.4124 246.435 94.4124C238.095 94.7237 229.838 94.568 221.539 95.9301C220.714 96.0468 218.98 101.806 218.649 102.663C217.659 105.27 216.833 107.916 216.09 110.563C214.727 115.466 212.828 119.591 212.704 124.806C212.25 144.692 211.755 164.617 211.301 184.504C211.259 185.593 211.301 186.8 212.168 187.578C212.746 187.967 213.571 188.123 214.356 188.24Z" fill="#163B56"/>
<path d="M233.264 57.3639C233.388 56.3521 233.512 55.3013 233.677 54.2895C233.719 54.056 233.76 53.7836 233.925 53.589C234.09 53.3944 234.379 53.3555 234.627 53.3166C238.879 52.4605 243.173 51.9545 247.508 51.8767C248.169 56.1964 248.747 60.5551 249.242 64.9137C249.655 68.3772 250.398 71.9186 249.366 75.3044C248.581 77.7561 247.549 80.1689 245.939 82.2704C243.875 84.9556 240.902 87.096 237.434 87.7187C231.737 88.7305 227.195 80.5192 229.466 76.1605C230.251 74.6039 231.489 73.5531 231.902 71.8019C232.274 70.2452 232.191 68.5718 232.232 67.0152C232.274 65.2639 232.48 63.5516 232.728 61.8004C232.893 60.3216 233.099 58.8427 233.264 57.3639Z" fill="#F6D1BA"/>
<path d="M247.012 51.8767C242.842 51.9935 238.673 52.4605 234.627 53.3166C234.379 53.3555 234.09 53.4334 233.925 53.589C233.76 53.7836 233.718 54.0171 233.677 54.2895C233.553 55.3013 233.429 56.3521 233.264 57.3639C233.058 58.8427 232.893 60.3216 232.686 61.8004C232.48 63.5516 232.232 65.2639 232.191 67.0152C232.149 68.6107 232.273 70.2452 231.86 71.8019C231.613 72.8137 231.117 73.592 230.581 74.3315C232.397 75.5379 234.709 76.1994 236.773 75.5379C239.498 74.6817 240.985 71.9576 242.099 69.4669C244.494 63.9019 246.145 58.0644 247.095 52.1491L247.012 51.8767Z" fill="#F2A59B"/>
<path d="M217.617 47.518C219.103 44.0934 224.471 32.7298 217.906 31.4066C216.998 31.212 216.131 31.8736 215.512 32.5352C211.507 36.8938 210.929 44.0544 215.677 48.1796C215.924 48.3742 216.172 48.5687 216.461 48.6076C216.998 48.6076 217.369 48.0239 217.617 47.518Z" fill="#2B2522"/>
<path d="M220.466 68.1438C224.058 72.4635 229.714 71.3349 234.049 68.6497C238.301 66.0423 241.645 62.3063 244.288 58.2201C246.889 54.2117 249.613 49.6585 249.902 44.8718C250.15 40.6688 249.49 36.1545 246.6 32.9244C241.067 26.8146 225.255 25.6082 218.938 31.1343C216.75 33.0412 215.511 35.8042 215.016 38.6062C214.521 41.4082 214.644 44.2491 214.81 47.09C215.016 50.9816 214.727 55.2624 215.594 59.0373C215.924 60.594 216.626 62.2674 217.328 63.7073C217.823 64.7191 218.732 65.5364 219.31 66.4703C219.64 67.0541 220.053 67.6378 220.466 68.1438Z" fill="#F6D1BA"/>
<path d="M231.82 37.3998C232.026 37.3998 232.232 37.3998 232.398 37.4776C232.81 37.6722 232.934 38.1781 233.017 38.6062C233.512 40.7855 235.494 41.486 237.434 42.1865C238.219 42.4589 238.714 43.2372 238.879 44.0156C239.045 44.7939 238.962 45.5722 238.962 46.3895C238.962 47.7904 239.168 49.1525 239.623 50.4757C239.705 50.787 239.87 51.0983 240.118 51.254C240.531 51.5264 241.15 51.3708 241.563 51.0983C242.595 50.4368 243.173 49.1525 244.37 48.8023C248.251 47.7126 247.426 53.1998 247.178 54.7954C246.971 56.1185 247.219 57.6752 248.458 58.2979C249.779 56.8969 250.109 54.99 250.398 53.1609C251.1 48.8412 251.802 44.5215 252.504 40.2018C252.999 37.2052 253.247 33.6638 250.811 31.718C250.027 31.0953 248.994 30.7062 248.21 30.0835C246.848 29.0328 246.228 27.3594 245.196 26.0362C240.118 19.5372 231.407 23.351 224.842 24.4406C222.448 24.8298 219.888 24.6741 217.782 23.5455C216.998 23.1175 216.214 22.5726 215.347 22.7283C214.48 22.884 213.943 23.7401 213.86 24.5574C213.778 25.3746 214.025 26.1919 214.149 27.0091C214.273 27.5929 214.356 28.2155 214.273 28.7993C214.191 29.4219 213.943 30.0057 213.778 30.5894C213.282 32.2239 212.869 34.1697 212.704 35.882C212.663 36.349 212.663 36.8549 212.993 37.1663C213.2 37.3609 213.489 37.4776 213.778 37.5944C216.214 38.3727 218.897 37.9057 221.374 37.8668C224.801 37.8279 228.31 37.4387 231.82 37.3998Z" fill="#2B2522"/>
<path d="M230.168 42.3422C229.012 41.8752 227.773 41.7196 226.535 41.6028C225.172 41.4471 225.172 42.3033 224.801 43.393C224.718 43.6654 224.636 44.0156 224.842 44.2102C224.966 44.288 225.09 44.327 225.255 44.327C227.443 44.5604 229.672 44.5605 231.861 44.755C231.984 44.755 232.108 44.7939 232.232 44.7161C232.439 44.6383 232.521 44.4048 232.48 44.2102C232.232 43.354 230.911 42.6536 230.168 42.3422Z" fill="#2B2522"/>
<path d="M232.178 49.2119C230.206 47.9043 227.601 48.667 226.545 49.2119C226.31 49.3027 225.77 49.5779 225.489 49.9523C225.137 50.4204 226.193 50.0291 227.601 49.4843C228.728 49.0484 230.183 49.1211 230.77 49.2119C231.758 49.3071 234.149 50.5194 232.178 49.2119Z" fill="#281812"/>
<path d="M214.78 50.1423C215.925 48.7421 217.882 49.0878 218.718 49.4357C218.898 49.4863 219.325 49.6613 219.588 49.9561C219.918 50.3247 219.11 50.1121 218.028 49.8084C217.163 49.5654 216.158 49.812 215.764 49.9657C215.09 50.1736 213.634 51.5426 214.78 50.1423Z" fill="#281812"/>
<path d="M215.883 42.1086C214.769 42.6924 214.769 43.5485 214.769 44.6771C215.594 44.7938 216.461 44.6771 217.246 44.4047C217.328 44.3658 217.452 44.3268 217.493 44.249C217.948 43.6653 217.824 41.9919 216.915 41.8362C216.544 41.7584 216.172 41.9529 215.883 42.1086Z" fill="#2B2522"/>
<path d="M219.599 61.8782C220.92 62.6955 222.613 62.6565 224.016 62.0728C225.503 61.4891 226.617 60.3216 227.484 59.1152C227.773 58.6871 227.072 58.2979 226.783 58.726C226.039 59.7767 225.09 60.7886 223.81 61.3334C222.613 61.8782 221.126 61.9171 220.012 61.2166C219.558 60.9442 219.145 61.6058 219.599 61.8782Z" fill="#F2A59B"/>
<path d="M215.801 164.617C215.47 158.974 214.81 153.332 215.016 147.65C215.057 146.093 215.181 144.537 215.429 142.98C215.346 143.019 215.305 143.058 215.223 143.136C215.883 143.058 216.585 143.058 217.246 143.058C218.402 143.058 219.558 143.058 220.714 143.097C222.241 143.136 223.769 143.136 225.296 143.174C227.03 143.213 228.806 143.252 230.54 143.291C232.397 143.33 234.255 143.369 236.113 143.408C237.93 143.447 239.788 143.486 241.604 143.486C243.297 143.486 244.948 143.525 246.641 143.486C248.045 143.486 249.448 143.447 250.811 143.408C251.802 143.369 252.834 143.33 253.825 143.174C254.279 143.097 254.939 143.058 255.27 142.746C255.352 142.669 255.394 142.591 255.394 142.513C255.27 142.513 255.105 142.513 254.981 142.513C254.65 147.222 254.32 151.931 254.031 156.64C253.949 157.807 253.866 158.974 253.783 160.181C253.701 161.309 253.66 162.438 253.453 163.528C253.123 165.279 252.297 166.797 250.852 167.925C249.572 168.937 247.962 169.56 246.352 169.949C244.659 170.377 242.925 170.61 241.191 170.688C236.278 171 231.365 170.961 226.452 170.572C225.214 170.494 223.975 170.377 222.737 170.221C221.581 170.105 220.383 169.988 219.269 169.754C218.278 169.56 217.369 169.171 216.791 168.353C216.296 167.653 216.048 166.758 215.966 165.902C215.842 165.474 215.801 165.045 215.801 164.617C215.801 164.384 215.388 164.384 215.388 164.617C215.47 166.291 215.677 168.276 217.204 169.365C218.071 169.988 219.145 170.143 220.136 170.26C221.374 170.416 222.654 170.572 223.893 170.688C228.929 171.194 234.008 171.35 239.086 171.116C242.76 170.961 246.724 170.727 249.944 168.898C251.389 168.081 252.586 166.913 253.247 165.474C253.701 164.462 253.866 163.411 253.99 162.321C254.114 161.154 254.155 159.986 254.238 158.819C254.568 153.954 254.898 149.129 255.228 144.264C255.27 143.68 255.311 143.058 255.352 142.474C255.352 142.24 254.981 142.24 254.939 142.474C254.939 142.435 254.939 142.435 254.939 142.435C254.898 142.474 254.981 142.396 254.939 142.435L254.898 142.474C254.939 142.435 254.898 142.474 254.857 142.513C254.816 142.513 254.733 142.552 254.774 142.552C254.527 142.63 254.279 142.707 253.99 142.746C253.123 142.902 252.215 142.941 251.306 142.98C249.985 143.058 248.664 143.058 247.343 143.097C245.733 143.097 244.081 143.097 242.471 143.097C240.696 143.097 238.879 143.058 237.104 143.019C235.246 142.98 233.43 142.941 231.572 142.902C229.796 142.863 228.021 142.824 226.287 142.785C224.718 142.746 223.149 142.707 221.581 142.669C220.342 142.63 219.103 142.63 217.865 142.63C217.08 142.63 216.255 142.63 215.47 142.669C215.346 142.669 215.264 142.669 215.14 142.707C215.057 142.707 214.975 142.746 214.934 142.863C214.067 148.506 214.562 154.266 214.975 159.947C215.099 161.504 215.223 163.061 215.305 164.617C215.388 164.851 215.801 164.851 215.801 164.617Z" fill="#C49A6C"/>
<path d="M245.485 54.1727C242.966 56.7022 239.333 58.0643 240.902 53.1609C241.976 49.814 243.255 45.8446 246.063 43.6653C249.696 40.9022 250.604 45.3776 249.201 48.919C248.416 50.9815 246.971 52.6549 245.485 54.1727Z" fill="#F6D1BA"/>
<path d="M274.963 95.541C274.921 94.1789 274.839 92.8557 274.756 91.4937C274.385 86.4734 274.302 80.8306 270.421 76.9779C267.531 74.098 263.361 72.4246 259.192 72.4636C258.861 72.4636 258.49 72.5025 258.201 72.6581C257.912 72.8138 257.705 73.1251 257.54 73.3976C254.072 79.1961 252.379 84.6833 251.265 91.1823C249.985 98.5764 250.233 106.165 249.985 113.637C249.985 114.065 249.944 114.532 250.15 114.96C250.563 115.855 251.801 116.167 252.834 116.322C259.481 117.256 266.251 117.49 272.94 117.023C273.518 116.984 274.22 116.867 274.55 116.4C274.756 116.128 274.756 115.739 274.798 115.388C274.963 108.773 275.21 102.157 274.963 95.541Z" fill="#9B8579"/>
<path d="M213.282 145.276C212.208 145.003 211.713 143.719 212.043 142.707C212.374 141.657 213.282 140.878 214.19 140.178C208.906 141.151 203.497 141.462 198.13 141.034C197.593 140.995 196.974 140.917 196.644 140.489C196.313 140.1 196.396 139.516 196.52 139.01C196.809 137.609 197.18 136.053 198.502 135.313C198.914 135.08 199.451 134.924 199.699 134.574C199.947 134.224 199.947 133.796 200.112 133.406C200.483 132.472 201.598 132.005 202.589 131.655C207.956 129.787 214.644 126.868 220.507 127.335C222.571 127.491 224.553 127.958 226.658 128.114C229.796 128.347 232.273 131.188 234.792 133.173C232.356 135.858 229.961 138.816 226.658 140.528C222.86 142.474 218.855 144.031 214.727 145.159C214.314 145.276 213.86 145.393 213.406 145.315C213.364 145.315 213.323 145.315 213.282 145.276Z" fill="#F6D1BA"/>
<path d="M257.334 78.0284C254.733 81.2973 254.32 85.617 253.742 89.5476C252.999 94.2565 252.297 98.9264 251.554 103.635C251.141 106.282 250.728 108.928 250.315 111.574C250.274 111.808 250.687 111.925 250.728 111.691C251.471 107.021 252.173 102.351 252.916 97.6422C253.288 95.3072 253.66 92.9722 254.031 90.6373C254.361 88.5358 254.65 86.3954 255.105 84.2939C255.6 82.1535 256.343 80.0131 257.747 78.2229C257.829 78.0284 257.499 77.8338 257.334 78.0284Z" fill="#64534B"/>
<path d="M233.264 134.34C231.53 134.885 228.475 135.975 226.576 135.586C224.347 135.119 223.191 132.472 222.406 130.682C222.324 130.449 222.2 130.215 222.241 129.982C222.282 129.632 222.571 129.359 222.86 129.087C224.14 128.036 225.544 127.102 226.948 126.207C232.315 122.743 237.806 119.513 243.214 116.128C246.93 113.793 250.811 111.574 255.146 110.485C259.481 109.434 264.353 109.706 267.986 112.119C268.646 112.547 269.266 113.053 269.555 113.754C270.009 114.882 269.472 116.089 268.935 117.178C268.233 118.618 267.49 120.019 266.417 121.265C263.816 124.3 259.687 125.701 255.765 126.985C248.251 129.476 240.737 131.928 233.264 134.34Z" fill="#F6D1BA"/>
<path d="M199.08 124.767C199.782 123.989 200.442 123.249 201.062 122.549C202.796 120.525 204.654 118.307 204.943 115.7C204.984 115.233 204.984 114.727 204.736 114.337C204.53 114.026 204.158 113.793 203.828 113.598C198.667 110.64 190.864 110.407 185.869 113.715C184.754 114.454 183.763 115.349 182.772 116.244C180.873 117.957 179.015 119.63 177.116 121.342C176.827 121.615 176.538 121.887 176.497 122.276C176.455 122.938 177.24 123.327 177.942 123.444C179.222 123.638 180.543 123.405 181.699 122.821C181.327 123.016 180.254 125.818 179.965 126.402C179.098 127.997 178.272 129.671 177.694 131.383C177.529 131.889 177.364 132.395 177.446 132.901C177.57 133.718 178.272 134.418 179.098 134.691C182.277 135.703 187.272 133.873 189.997 132.356C193.506 130.371 196.438 127.608 199.08 124.767Z" fill="#F6D1BA"/>
<path d="M208.327 97.6813L177.157 122.315L178.148 124.183C178.849 125.545 180.336 126.402 181.946 126.402H197.098C198.089 126.402 198.956 125.857 199.41 125.039L210.433 103.441C211.217 101.923 210.887 100.094 209.649 98.8877L208.327 97.6813Z" fill="#11191C"/>
<path d="M188.882 98.6542L177.157 121.615C176.868 122.16 177.281 122.782 177.942 122.782H194.373C195.364 122.782 196.231 122.237 196.685 121.42L208.41 98.4596C208.699 97.9148 208.287 97.2921 207.626 97.2921H191.194C190.203 97.2921 189.336 97.8369 188.882 98.6542Z" fill="#1C272B"/>
<path d="M179.304 121.187L190.657 98.8877H206.263L194.91 121.187H179.304Z" fill="white"/>
<path d="M234.833 54.3284C236.815 52.6939 238.879 51.1761 240.985 49.7362C241.48 49.386 242.017 49.0357 242.513 48.7244C243.008 48.4131 243.503 48.1406 244.081 48.0239C245.114 47.8293 246.104 48.4131 246.641 49.2303C247.302 50.2032 247.26 51.3707 246.971 52.4604C246.682 53.5111 246.228 54.5229 245.692 55.4958C244.701 57.3638 243.503 59.1151 242.058 60.6717C240.448 62.423 238.59 63.9407 236.526 65.186C236.32 65.3028 236.526 65.653 236.733 65.5363C240.613 63.2013 243.834 59.8545 245.939 55.9628C246.476 54.951 247.013 53.9003 247.343 52.8106C247.673 51.721 247.797 50.5145 247.26 49.4249C246.848 48.5687 246.022 47.8293 245.031 47.6347C243.834 47.4012 242.802 48.1017 241.852 48.7244C239.334 50.3978 236.898 52.188 234.586 54.0559C234.338 54.2116 234.627 54.484 234.833 54.3284Z" fill="black"/>
<path d="M232.81 69.8171C229.218 71.5294 223.191 72.4634 220.383 69.0777C216.957 64.9525 214.768 59.9712 214.108 54.7565C217.741 51.6042 220.466 52.0712 225.09 52.7717C228.64 53.3166 231.902 53.122 235.453 52.8885C236.402 56.3909 238.012 59.6988 240.242 62.6176C240.407 62.8121 240.531 63.0067 240.531 63.2402C240.531 63.4348 240.366 63.5905 240.242 63.7072C238.177 66.1979 235.783 68.4161 232.81 69.8171Z" fill="black"/>
<path d="M218.401 55.6905C217.947 59.2708 219.227 62.7733 220.755 65.9645C221.209 66.8984 221.663 67.7935 222.158 68.7275C222.282 68.961 222.613 68.7664 222.53 68.5329C220.92 65.4196 219.227 62.1506 218.814 58.6482C218.69 57.6753 218.69 56.7024 218.814 55.7294C218.856 55.4181 218.443 55.4181 218.401 55.6905Z" fill="#D1D3D4"/>
<path d="M289 149.828H0V206.179H289V149.828Z" fill="#6B7C69"/>
<path d="M0 163.838H289" stroke="#879B85" stroke-width="3" stroke-miterlimit="10"/>
<path d="M24.5021 148.615L18.0832 114.951C18.0832 114.951 17.5208 112.509 23.8363 111.855C30.152 111.201 107.789 110.578 107.789 110.578C107.789 110.578 111.093 110.202 111.788 112.825C112.483 115.447 107.326 149.126 107.326 149.126" stroke="white" stroke-width="3" stroke-miterlimit="10"/>
<path d="M60.5192 133.1C60.5089 134.603 60.1507 135.806 59.3025 136.518C57.6744 137.884 55.5386 136.797 53.4065 134.726C49.0736 130.519 44.7581 122.252 44.7581 122.252C44.7581 122.252 39.4021 112.628 36.7355 104.556C35.1038 99.6213 34.4781 95.2656 36.6972 94.0469C42.5471 90.8352 52.5698 111.59 52.5698 111.59C52.5698 111.59 54.1969 114.489 55.9792 118.337C58.1494 123.022 60.5494 129.118 60.5192 133.1Z" fill="#FFBBBB"/>
<path d="M60.5192 133.1C58.8459 133.703 55.5445 134.362 53.4064 134.726C49.0734 130.519 44.758 122.252 44.758 122.252C44.758 122.252 39.4019 112.628 36.7354 104.556L55.979 118.337C58.1494 123.023 60.5493 129.118 60.5192 133.1Z" fill="#EAA9A9"/>
<path d="M8.92723 93.0143C11.6899 96.3821 32.2557 122.087 36.8794 126.839C41.5019 131.59 45.6587 138.889 50.4551 140.735C54.6421 142.346 58.0246 136.758 57.4301 132.313C57.3443 131.665 57.1729 131.042 56.9075 130.469C56.9075 130.469 35.0196 99.9635 29.0027 93.0329C22.9861 86.1025 18.1538 78.9946 15.4352 78.2578C13.2763 77.6722 10.0836 78.0306 8.0614 79.8874C7.53768 80.3683 7.0927 80.9501 6.76353 81.6419C5.16548 85.006 6.16558 89.6451 8.92723 93.0143Z" fill="#FED6D7"/>
<path d="M8.9272 93.0142C11.6899 96.382 32.2556 122.087 36.8793 126.839C41.5019 131.59 45.6586 138.889 50.455 140.735C54.642 142.346 58.0246 136.758 57.43 132.313C55.7948 133.214 53.4646 133.728 50.6752 133.301C44.9215 132.419 15.7932 96.2172 11.0999 89.1942C8.27022 84.9585 7.90512 81.7592 8.06149 79.8873C7.53776 80.3682 7.09279 80.95 6.76361 81.6418C5.16545 85.0059 6.16554 89.645 8.9272 93.0142Z" fill="#FFBBBB"/>
<path d="M8.77136 79.3275C8.77136 79.3275 8.59327 85.0203 16.1257 94.0464C23.6581 103.073 45.0289 128.629 48.1336 130.586C51.2384 132.543 56.2136 132.481 57.0324 131.634" stroke="black" stroke-miterlimit="10"/>
<path d="M19.9778 82.162C19.9778 82.162 16.1894 85.1283 17.8645 86.9639C19.0857 88.3023 22.1215 84.7763 22.1215 84.7763" fill="#FFBBBB"/>
<path d="M26.3508 89.5295C26.3508 89.5295 22.5625 92.4958 24.2375 94.3316C25.4588 95.6699 28.4946 92.1438 28.4946 92.1438" fill="#FFBBBB"/>
<path d="M31.5656 96.1481C31.5656 96.1481 27.7773 99.1145 29.4524 100.95C30.6736 102.289 33.7094 98.7625 33.7094 98.7625" fill="#FFBBBB"/>
<path d="M37.0121 103.266C37.0121 103.266 33.1079 106.357 34.7829 108.192C36.0043 109.531 39.1559 106.005 39.1559 106.005" fill="#FFBBBB"/>
<path d="M42.5748 110.758C42.5748 110.758 38.5546 113.849 40.2295 115.685C41.4509 117.023 44.6025 113.497 44.6025 113.497" fill="#FFBBBB"/>
<path d="M20.5574 82.7864C20.5574 82.7864 16.769 85.7527 18.444 87.5884C19.6654 88.9269 22.7011 85.4007 22.7011 85.4007" stroke="black" stroke-miterlimit="10"/>
<path d="M26.9304 90.1539C26.9304 90.1539 23.1421 93.1202 24.8171 94.9559C26.0385 96.2944 29.0742 92.7682 29.0742 92.7682" stroke="black" stroke-miterlimit="10"/>
<path d="M32.1458 96.7721C32.1458 96.7721 28.3574 99.7384 30.0324 101.574C31.2538 102.912 34.2895 99.3864 34.2895 99.3864" stroke="black" stroke-miterlimit="10"/>
<path d="M37.4755 104.015C37.4755 104.015 33.687 106.981 35.362 108.817C36.5833 110.155 39.6191 106.629 39.6191 106.629" stroke="black" stroke-miterlimit="10"/>
<path d="M42.923 111.507C42.923 111.507 39.1347 114.474 40.8098 116.309C42.031 117.648 45.0669 114.122 45.0669 114.122" stroke="black" stroke-miterlimit="10"/>
<path d="M78.1445 107.57C78.1445 107.57 85.3023 109.854 87.8052 109.218C90.3081 108.581 94.2895 112.216 93.5486 114.583C92.8077 116.95 90.0689 118.556 88.551 121.686C87.0328 124.816 82.4948 124.413 82.4948 124.413L78.1445 107.57Z" fill="#40A1A8"/>
<path d="M80.5377 136.84C80.5377 136.84 84.0052 132.511 87.0065 130.106C90.0076 127.7 93.2143 124.418 91.891 121.707C90.5678 118.996 88.5874 120.537 85.5925 118.426C82.5977 116.314 87.043 112.621 85.4627 109.635C83.8822 106.65 77.1948 100.307 71.0955 104.165C64.9961 108.023 80.5377 136.84 80.5377 136.84Z" fill="black"/>
<path d="M74.3078 142.133C74.3078 142.133 80.0632 140.881 81.9219 138.057C83.7809 135.233 84.2686 132.746 85.7783 130.64C87.2882 128.534 91.6174 125.326 90.2087 121.876C88.7998 118.426 86.4766 120.014 85.7638 118.065C85.0509 116.116 86.9885 114.205 84.6965 112.449C82.4044 110.693 78.6608 111.865 77.6797 113.857C76.6989 115.849 74.1932 120.105 74.3245 120.773C74.4558 121.441 71.9669 127.27 71.8441 128.338C71.7211 129.406 70.3753 132.248 70.3095 133.018C70.2437 133.787 68.9384 141.767 74.3078 142.133Z" fill="#53B4C1"/>
<path d="M62.8917 115.184C62.8917 115.184 58.2589 109.395 60.6389 107.369C63.0186 105.343 65.6157 104.919 65.4962 103.285C65.3767 101.65 64.7563 99.2945 69.8037 101.393C74.851 103.491 72.3308 105.18 75.2445 106.29C78.1582 107.399 76.715 104.004 79.4145 105.042C82.1138 106.08 80.9155 114.983 80.1953 115.68C79.4751 116.377 78.4574 120.319 77.7767 121.646C77.0959 122.972 74.6515 124.341 74.4029 124.599C74.1544 124.858 62.8917 115.184 62.8917 115.184Z" fill="#53B4C1"/>
<path d="M64.7962 136.657C64.7962 136.657 63.6744 126.341 62.3532 121.247C61.0319 116.153 58.9802 113.164 60.249 111.793C61.5179 110.422 61.7461 112.981 65.1328 112.77C68.5196 112.558 67.1328 110.706 64.7456 109.532C62.3585 108.358 65.1568 106.157 67.9188 107.562C70.6805 108.967 70.1142 110.693 73.2124 110.99C76.3107 111.287 80.1797 113.731 79.4759 116.377C78.7723 119.023 76.1567 125.25 75.5153 126.957C74.8739 128.663 73.3324 130.865 72.4908 132.682C71.6493 134.499 71.225 137.6 70.7868 137.879C70.3486 138.158 65.6612 139.018 64.7962 136.657Z" fill="#80CEDB"/>
<path d="M67.1128 112.005C67.1128 112.005 67.2267 134.832 67.1128 137.746" stroke="black" stroke-miterlimit="10"/>
<path d="M81.0929 112.005L79.5903 115.248" stroke="black" stroke-miterlimit="10"/>
<path d="M63.9097 108.87V112.659" stroke="black" stroke-miterlimit="10"/>
<path d="M74.2603 134.916C74.2603 134.916 79.1272 124.078 83.6853 120.381" stroke="black" stroke-miterlimit="10"/>
<path d="M68.3887 102.955C68.3887 102.955 71.0362 105.054 71.3351 110.453" stroke="black" stroke-miterlimit="10"/>
<path d="M74.4745 107.57C74.5929 107.57 74.6888 107.467 74.6888 107.339C74.6888 107.212 74.5929 107.108 74.4745 107.108C74.3562 107.108 74.2603 107.212 74.2603 107.339C74.2603 107.467 74.3562 107.57 74.4745 107.57Z" stroke="black" stroke-miterlimit="10"/>
<path d="M72.9545 106.704C73.0424 106.704 73.1137 106.627 73.1137 106.533C73.1137 106.438 73.0424 106.361 72.9545 106.361C72.8667 106.361 72.7954 106.438 72.7954 106.533C72.7954 106.627 72.8667 106.704 72.9545 106.704Z" stroke="black" stroke-miterlimit="10"/>
<path d="M72.3686 105.365C72.6041 105.365 72.7949 105.159 72.7949 104.906C72.7949 104.652 72.6041 104.446 72.3686 104.446C72.1332 104.446 71.9424 104.652 71.9424 104.906C71.9424 105.159 72.1332 105.365 72.3686 105.365Z" stroke="black" stroke-miterlimit="10"/>
<path d="M73.288 109.078C73.4722 109.078 73.6215 108.917 73.6215 108.719C73.6215 108.52 73.4722 108.359 73.288 108.359C73.1039 108.359 72.9546 108.52 72.9546 108.719C72.9546 108.917 73.1039 109.078 73.288 109.078Z" stroke="black" stroke-miterlimit="10"/>
<path d="M80.8658 117.683C80.9297 117.683 80.9816 117.627 80.9816 117.558C80.9816 117.489 80.9297 117.433 80.8658 117.433C80.8018 117.433 80.75 117.489 80.75 117.558C80.75 117.627 80.8018 117.683 80.8658 117.683Z" stroke="black" stroke-miterlimit="10"/>
<path d="M81.3855 115.878C81.5469 115.878 81.6778 115.737 81.6778 115.563C81.6778 115.389 81.5469 115.248 81.3855 115.248C81.2241 115.248 81.0933 115.389 81.0933 115.563C81.0933 115.737 81.2241 115.878 81.3855 115.878Z" stroke="black" stroke-miterlimit="10"/>
<path d="M82.7921 118.775C82.9866 118.775 83.1443 118.605 83.1443 118.395C83.1443 118.186 82.9866 118.016 82.7921 118.016C82.5976 118.016 82.4399 118.186 82.4399 118.395C82.4399 118.605 82.5976 118.775 82.7921 118.775Z" stroke="black" stroke-miterlimit="10"/>
<path d="M83.4149 116.907C83.5643 116.907 83.6853 116.776 83.6853 116.615C83.6853 116.454 83.5643 116.324 83.4149 116.324C83.2656 116.324 83.1445 116.454 83.1445 116.615C83.1445 116.776 83.2656 116.907 83.4149 116.907Z" stroke="black" stroke-miterlimit="10"/>
<path d="M61.978 115.563C62.2347 115.563 62.4428 115.339 62.4428 115.062C62.4428 114.786 62.2347 114.561 61.978 114.561C61.7213 114.561 61.5132 114.786 61.5132 115.062C61.5132 115.339 61.7213 115.563 61.978 115.563Z" stroke="black" stroke-miterlimit="10"/>
<path d="M61.7198 113.627C61.8339 113.627 61.9264 113.527 61.9264 113.404C61.9264 113.281 61.8339 113.182 61.7198 113.182C61.6057 113.182 61.5132 113.281 61.5132 113.404C61.5132 113.527 61.6057 113.627 61.7198 113.627Z" stroke="black" stroke-miterlimit="10"/>
<path d="M63.1121 115.657C63.2334 115.657 63.3316 115.551 63.3316 115.42C63.3316 115.29 63.2334 115.184 63.1121 115.184C62.9909 115.184 62.8926 115.29 62.8926 115.42C62.8926 115.551 62.9909 115.657 63.1121 115.657Z" stroke="black" stroke-miterlimit="10"/>
<path d="M89.8916 112.005C89.9979 112.005 90.084 111.913 90.084 111.798C90.084 111.684 89.9979 111.591 89.8916 111.591C89.7854 111.591 89.6992 111.684 89.6992 111.798C89.6992 111.913 89.7854 112.005 89.8916 112.005Z" stroke="black" stroke-miterlimit="10"/>
<path d="M90.3276 113.627C90.5682 113.627 90.7632 113.417 90.7632 113.157C90.7632 112.898 90.5682 112.688 90.3276 112.688C90.0871 112.688 89.8921 112.898 89.8921 113.157C89.8921 113.417 90.0871 113.627 90.3276 113.627Z" stroke="black" stroke-miterlimit="10"/>
<path d="M91.6721 113.157C91.819 113.157 91.938 113.029 91.938 112.871C91.938 112.713 91.819 112.584 91.6721 112.584C91.5253 112.584 91.4062 112.713 91.4062 112.871C91.4062 113.029 91.5253 113.157 91.6721 113.157Z" stroke="black" stroke-miterlimit="10"/>
<path d="M87.8817 112.039C87.9965 112.039 88.0895 111.939 88.0895 111.815C88.0895 111.691 87.9965 111.591 87.8817 111.591C87.7669 111.591 87.6738 111.691 87.6738 111.815C87.6738 111.939 87.7669 112.039 87.8817 112.039Z" stroke="black" stroke-miterlimit="10"/>
<path d="M88.8971 110.453C89.1296 110.453 89.318 110.25 89.318 109.999C89.318 109.749 89.1296 109.546 88.8971 109.546C88.6646 109.546 88.4761 109.749 88.4761 109.999C88.4761 110.25 88.6646 110.453 88.8971 110.453Z" stroke="black" stroke-miterlimit="10"/>
<path d="M117.314 101.447L116.593 142.849L106.49 147.637L106.417 147.623L105.828 147.504L88.3164 143.964L89.5575 100.975L94.5959 95.2146L95.1049 91.1611L114.561 92.2764L115.591 92.3338V96.6021L117.185 101.043L117.314 101.447Z" fill="#3E3FA9"/>
<path d="M117.183 101.042L111.776 97.5996L114.564 92.2762L115.589 92.3336V96.6019L117.183 101.042Z" fill="black"/>
<path d="M115.59 92.3339V92.3446L113.616 97.6089L108.407 103.158L108.066 110.603L107.25 128.882L106.416 147.623L88.3145 143.964L88.6181 133.442L89.1319 115.638L89.5554 100.975L94.5943 95.2148L95.1213 91.1608L115.59 92.3339Z" fill="white"/>
<path d="M115.589 92.3341V92.3448L113.615 97.6091L108.406 103.159L89.5649 100.975L94.5989 95.215L95.1235 91.161L115.589 92.3341Z" fill="#EBECF0"/>
<path d="M108.055 110.604L107.244 128.882L88.6167 133.442L89.1309 115.638L108.055 110.604Z" fill="#158AFE"/>
<path d="M94.5972 95.215L113.597 97.6091" stroke="black" stroke-miterlimit="10"/>
<path d="M103.291 99.2043C103.291 99.8685 102.202 100.413 100.838 100.413C99.4747 100.413 98.3848 99.8808 98.3848 99.2166V96.8438L103.281 96.8682L103.291 99.2043Z" fill="#3E3FA9"/>
<path d="M100.805 98.0713C102.169 98.0713 103.274 97.5327 103.274 96.8683C103.274 96.2039 102.169 95.6653 100.805 95.6653C99.4421 95.6653 98.3369 96.2039 98.3369 96.8683C98.3369 97.5327 99.4421 98.0713 100.805 98.0713Z" fill="#158AFE"/>
<path d="M116.592 142.849L106.49 147.636L106.416 147.623L105.827 147.504C106.194 144.693 106.713 140.912 106.713 140.912L116.592 142.849Z" fill="black"/>
<path d="M113.236 98.6285L111.739 142.133" stroke="black" stroke-miterlimit="10"/>
<path d="M89.8267 131.794L90.5188 116.759L92.2601 119.119L94.2302 115.561L94.5486 130.296" stroke="black" stroke-miterlimit="10"/>
<path d="M96.6649 115.248L96.0273 129.422" stroke="black" stroke-miterlimit="10"/>
<path d="M98.7997 114.562L97.9966 129.109L101.47 128.11" stroke="black" stroke-miterlimit="10"/>
<path d="M103.211 113.812L102.516 128.173" stroke="black" stroke-miterlimit="10"/>
<path d="M106.513 113.5L102.979 119.119L106.339 126.862" stroke="black" stroke-miterlimit="10"/>
<path d="M31.5297 116.917L35.7461 117.155C35.7461 117.155 34.7753 123.161 34.3006 123.962C33.826 124.764 33.8258 128.091 33.8258 128.091C33.8258 128.091 37.1149 132.629 38.0019 134.697C38.8887 136.765 43.7833 141.181 48.9802 140.085C54.1769 138.99 59.3834 138.342 62.5192 137.098C65.6547 135.854 68.5614 137.346 68.5614 137.346L70.9115 137.737L71.6943 138.975C71.6943 138.975 68.0575 142.982 66.3875 144.332C64.7174 145.683 50.0108 154.137 41.2645 150.283C32.5182 146.429 26.0532 137.754 28.1896 129.6C28.1896 129.6 30.234 127.732 30.2319 124.624C30.2301 121.516 31.5297 116.917 31.5297 116.917Z" fill="#E39B13"/>
<path d="M39.9858 143.805L29.8755 125.245L27.5852 128.542L30.564 135.685L33.5259 141.945C33.5257 141.945 37.3491 144.5 39.9858 143.805Z" fill="black"/>
<path d="M30.3474 117.129L34.3961 118.421C34.3961 118.421 32.1508 124.016 31.5155 124.676C30.8802 125.337 30.1592 128.571 30.1592 128.571C30.1592 128.571 32.3744 133.811 32.7886 136.045C33.2027 138.279 37.0054 143.805 42.296 144.047C47.5862 144.29 52.7892 144.969 56.108 144.548C59.4265 144.128 61.9296 146.31 61.9296 146.31L64.1301 147.281L64.623 148.683C64.623 148.683 60.2188 151.663 58.3022 152.556C56.3857 153.45 40.2538 157.97 32.5843 152.022C24.9151 146.073 20.508 136.012 24.3522 128.621C24.3522 128.621 26.7447 127.319 27.4162 124.296C28.0875 121.273 30.3474 117.129 30.3474 117.129Z" fill="#E6B326"/>
<path d="M32.0762 114.167L35.4368 116.921C35.4368 116.921 31.4969 121.296 30.6855 121.67C29.8745 122.045 28.1361 124.794 28.1361 124.794C28.1361 124.794 28.4839 130.54 28.1361 132.787C27.7885 135.035 29.5267 141.653 34.3938 143.901C39.261 146.149 43.9026 148.772 47.1441 149.646C50.3857 150.52 51.9579 153.517 51.9579 153.517L53.646 155.265V156.764C53.646 156.764 48.5973 157.869 46.5113 157.972C44.4256 158.075 27.8793 156.139 22.6646 147.648C17.4498 139.157 16.6511 128.066 22.677 122.622C22.677 122.622 25.3486 122.319 26.971 119.749C28.5934 117.179 32.0762 114.167 32.0762 114.167Z" fill="#F6D470"/>
<path d="M35.7466 117.155C35.7466 117.155 33.3229 117.53 32.4875 116.917C31.652 116.305 30.5703 115.933 30.5703 115.933L32.0769 114.167L35.7466 117.155Z" fill="black"/>
<path d="M33.1577 116.37C33.1577 116.37 30.4924 119.885 29.7584 120.551C29.0243 121.216 26.977 122.868 26.977 122.868C26.977 122.868 25.7658 124.138 25.2318 126.965C24.6978 129.791 22.226 140.447 30.5694 146.774C38.9129 153.101 53.7461 156.015 53.7461 156.015" stroke="black" stroke-miterlimit="10"/>
<path d="M59.1559 147.54C59.0235 147.54 58.9162 147.424 58.9162 147.282C58.9162 147.139 59.0235 147.024 59.1559 147.024C59.2882 147.024 59.3955 147.139 59.3955 147.282C59.3955 147.424 59.2882 147.54 59.1559 147.54Z" stroke="black" stroke-miterlimit="10"/>
<path d="M57.7253 146.445C57.4905 146.445 57.3001 146.24 57.3001 145.987C57.3001 145.734 57.4905 145.529 57.7253 145.529C57.9601 145.529 58.1504 145.734 58.1504 145.987C58.1504 146.24 57.9601 146.445 57.7253 146.445Z" stroke="black" stroke-miterlimit="10"/>
<path d="M57.0053 148.177C56.842 148.177 56.7097 148.034 56.7097 147.858C56.7097 147.682 56.842 147.54 57.0053 147.54C57.1685 147.54 57.3008 147.682 57.3008 147.858C57.3008 148.034 57.1685 148.177 57.0053 148.177Z" stroke="black" stroke-miterlimit="10"/>
<path d="M54.6005 146.931C54.3586 146.931 54.1624 146.72 54.1624 146.459C54.1624 146.198 54.3586 145.987 54.6005 145.987C54.8424 145.987 55.0386 146.198 55.0386 146.459C55.0386 146.72 54.8424 146.931 54.6005 146.931Z" stroke="black" stroke-miterlimit="10"/>
<path d="M69.3895 139.45C69.1969 139.45 69.0407 139.282 69.0407 139.074C69.0407 138.867 69.1969 138.699 69.3895 138.699C69.5821 138.699 69.7383 138.867 69.7383 139.074C69.7383 139.282 69.5821 139.45 69.3895 139.45Z" stroke="black" stroke-miterlimit="10"/>
<path d="M66.8247 138.996C66.5993 138.996 66.4166 138.799 66.4166 138.556C66.4166 138.313 66.5993 138.116 66.8247 138.116C67.0502 138.116 67.2329 138.313 67.2329 138.556C67.2329 138.799 67.0502 138.996 66.8247 138.996Z" stroke="black" stroke-miterlimit="10"/>
<path d="M66.8247 140.864C66.5993 140.864 66.4166 140.667 66.4166 140.424C66.4166 140.181 66.5993 139.984 66.8247 139.984C67.0502 139.984 67.2329 140.181 67.2329 140.424C67.2329 140.667 67.0502 140.864 66.8247 140.864Z" stroke="black" stroke-miterlimit="10"/>
<path d="M64.6377 139.984C64.501 139.984 64.3902 139.865 64.3902 139.717C64.3902 139.57 64.501 139.451 64.6377 139.451C64.7744 139.451 64.8853 139.57 64.8853 139.717C64.8853 139.865 64.7744 139.984 64.6377 139.984Z" stroke="black" stroke-miterlimit="10"/>
<path d="M48.012 156.89C47.7876 156.89 47.6056 156.694 47.6056 156.452C47.6056 156.21 47.7876 156.014 48.012 156.014C48.2365 156.014 48.4185 156.21 48.4185 156.452C48.4185 156.694 48.2365 156.89 48.012 156.89Z" stroke="black" stroke-miterlimit="10"/>
<path d="M45.7512 155.457C45.6445 155.457 45.558 155.364 45.558 155.249C45.558 155.134 45.6445 155.041 45.7512 155.041C45.8579 155.041 45.9443 155.134 45.9443 155.249C45.9443 155.364 45.8579 155.457 45.7512 155.457Z" stroke="black" stroke-miterlimit="10"/>
<path d="M43.2354 156.524C43.105 156.524 42.9992 156.41 42.9992 156.269C42.9992 156.129 43.105 156.015 43.2354 156.015C43.3659 156.015 43.4717 156.129 43.4717 156.269C43.4717 156.41 43.3659 156.524 43.2354 156.524Z" stroke="black" stroke-miterlimit="10"/>
<path d="M75.3538 126.348L74.9449 130.728L73.7986 143.004L73.647 144.63C73.647 144.63 67.1761 147.002 57.1104 143.127L57.2726 140.421L57.9887 128.505L58.2331 124.436C58.2333 124.436 66.4563 122.377 75.3538 126.348Z" fill="white"/>
<path d="M58.2329 124.437C58.2329 124.437 67.9901 130.602 75.3537 126.348" stroke="black" stroke-miterlimit="10"/>
<path d="M74.9447 130.729L73.7984 143.004C69.9014 143.249 61.705 143.354 57.2725 140.422L57.9886 128.505C60.6446 129.859 67.4308 132.671 74.9447 130.729Z" fill="#158AFE"/>
<path d="M62.4019 124.501V125.301L65.2905 125.717V124.501H62.4019Z" stroke="black" stroke-miterlimit="10"/>
<path d="M58.6934 129.656L60.9724 130.608L58.3091 133.293L58.6934 129.656Z" stroke="black" stroke-miterlimit="10"/>
<path d="M73.5052 138.537L73.0967 142.495L70.6631 142.398L73.5052 138.537Z" stroke="black" stroke-miterlimit="10"/>
<path d="M70.1998 137.105C70.1998 137.207 70.1964 137.31 70.1905 137.411L62.7729 139.665L62.7496 139.672C62.7485 139.67 62.7484 139.667 62.7471 139.665C62.2685 138.943 61.9614 138.059 61.9614 137.105V137.094L62.0149 137.072L69.3063 134.371L69.3173 134.368C69.8354 135.072 70.1583 135.952 70.1965 136.913C70.199 136.976 70.1998 137.04 70.1998 137.105Z" fill="#EB4B65"/>
<path d="M58.1733 125.435C58.1733 125.435 66.7107 130.995 75.2327 127.648" stroke="#B8BBBC" stroke-miterlimit="10"/>
<path d="M58.1733 126.309C58.1733 126.309 66.7107 131.869 75.2327 128.522" stroke="#B8BBBC" stroke-miterlimit="10"/>
<path d="M57.8965 127.308C57.8965 127.308 66.5722 132.868 75.2322 129.522" stroke="#B8BBBC" stroke-miterlimit="10"/>
<path d="M56.7378 141.044C56.7378 141.044 65.2025 145.617 73.7644 143.373" stroke="#B8BBBC" stroke-miterlimit="10"/>
<path d="M70.1999 137.105C70.1999 137.207 70.1965 137.31 70.1906 137.411C70.0448 139.705 68.2728 141.515 66.1068 141.515C64.7348 141.515 63.4927 140.789 62.7498 139.672C62.7487 139.67 62.78 139.667 62.7787 139.665C62.3001 138.943 62.0244 138.059 62.0244 137.105V137.072C62.15 134.651 63.8625 132.693 66.113 132.693C67.4142 132.693 68.5701 133.347 69.3198 134.368C69.3211 134.369 69.3137 134.37 69.3137 134.371C69.8305 135.076 70.1599 135.955 70.2006 136.912C70.2029 136.976 70.1999 137.04 70.1999 137.105Z" stroke="black" stroke-miterlimit="10"/>
<path d="M85.948 139.693C84.6847 142.58 81.9185 144.796 79.1792 144.934C78.2545 144.98 77.442 144.61 76.7538 143.97C74.4012 141.785 73.4961 136.477 74.4974 134.059C75.793 130.935 78.7295 129.497 79.7725 129.405C82.1098 129.199 85.6744 130.348 86.5388 135.127C86.824 136.7 86.5667 138.277 85.948 139.693Z" fill="#EB4B65"/>
<path d="M86.0107 137.663L85.9482 139.693C84.6848 142.58 81.9186 144.795 79.1793 144.934C78.2546 144.98 77.4422 144.61 76.7539 143.97L86.0107 137.663Z" fill="black"/>
<path d="M93.844 143.84C92.7882 148.456 87.387 150.946 83.6104 149.512C83.5177 149.477 83.4272 149.441 83.3369 149.401C79.552 147.736 80.9416 139.661 83.3369 137.413C85.6081 135.281 88.6257 135.196 89.7683 135.525C89.8309 135.542 89.8878 135.561 89.9386 135.581C92.1405 136.454 94.9253 139.113 93.844 143.84Z" fill="#FF7187"/>
<path d="M93.8449 143.84C92.7891 148.456 87.3879 150.946 83.6113 149.512C84.251 148.638 85.346 147.077 87.1875 144.49C88.8504 142.154 89.5098 138.313 89.7694 135.525C89.8319 135.542 89.8888 135.561 89.9397 135.581C92.1415 136.454 94.9262 139.113 93.8449 143.84Z" fill="#EB4B65"/>
<path d="M82.09 129.711L83.3372 127.086L82.2944 126.724L81.3823 129.711H82.09Z" fill="#158AFE"/>
<path d="M90.4447 136.555L91.8354 133.366H90.7537L89.9395 136.103L90.4447 136.555Z" fill="#158AFE"/>
<path d="M59.9489 144.887C58.6141 146.534 55.3724 145.405 53.99 146.321C52.6077 147.236 49.7118 145.655 48.7129 143.74C47.7138 141.825 43.6344 137.663 43.1347 133.383C42.8264 130.74 44.0726 129.596 45.0727 129.108C45.6907 128.806 46.2152 128.755 46.2152 128.755C46.9332 127.153 48.7527 126.907 49.8941 126.924C50.4721 126.932 50.8769 127.007 50.8769 127.007C51.1366 126.668 51.5388 126.476 51.9683 126.372C52.9124 126.145 53.9899 126.341 53.9899 126.341C54.7103 125.518 56.6234 125.225 58.3766 125.971C58.9312 126.207 59.4693 126.547 59.9488 127.007C61.943 128.922 62.2814 136.914 62.5311 140.969C62.7811 145.022 61.2825 143.24 59.9489 144.887Z" fill="#FF7A00"/>
<path d="M53.9899 126.341C53.9899 126.341 52.9123 126.145 51.9683 126.372C50.7286 126.902 49.8941 126.924 49.8941 126.924C48.7527 126.906 46.9332 127.152 46.2153 128.754C46.2153 128.754 45.6907 128.806 45.0728 129.108C45.9818 128.935 47.464 128.879 49.1287 129.712L52.2917 129.003L54.4533 128.299L54.457 128.297C54.457 128.297 55.0514 125.476 58.3767 125.971C56.6235 125.224 54.7103 125.518 53.9899 126.341Z" fill="black"/>
<path d="M53.9903 129.546C51.901 129.255 50.8772 130.586 50.8772 130.586C50.5437 130.337 49.1289 129.712 49.1289 129.712C49.1289 129.712 49.7532 129.296 49.9194 129.088C50.0505 128.926 50.0018 128.352 49.8944 126.924C49.8643 126.532 49.8306 126.074 49.7945 125.541C49.7083 124.264 49.7784 122.982 49.9819 121.934C50.1717 120.96 50.4763 120.187 50.8772 119.806C51.71 119.016 52.6255 120.128 52.6255 120.128C52.6255 120.128 52.3831 120.487 52.0259 121.793C51.9523 122.06 51.8749 122.367 51.7923 122.719C51.524 123.874 51.6976 125.282 51.9685 126.372C52.1833 127.238 52.4593 127.905 52.6255 128.089C52.9888 128.494 54.3675 128.31 54.4536 128.299L54.4572 128.298C53.9154 128.672 53.9903 129.546 53.9903 129.546Z" fill="#40A1A8"/>
<path d="M50.8765 130.586C50.8765 130.586 48.629 132.71 50.2938 136.519C51.9588 140.327 53.1241 142.649 53.1241 142.649" stroke="black" stroke-miterlimit="10"/>
<path d="M53.9902 129.546C53.9902 129.546 57.7036 130.545 58.0367 133.729C58.3696 136.913 58.3769 139.08 58.3769 139.08" stroke="black" stroke-miterlimit="10"/>
<path d="M45.4445 130.586C45.6498 130.586 45.8163 130.42 45.8163 130.214C45.8163 130.009 45.6498 129.843 45.4445 129.843C45.2392 129.843 45.0728 130.009 45.0728 130.214C45.0728 130.42 45.2392 130.586 45.4445 130.586Z" stroke="black" stroke-miterlimit="10"/>
<path d="M44.9758 131.794C45.064 131.794 45.1356 131.722 45.1356 131.634C45.1356 131.546 45.064 131.474 44.9758 131.474C44.8875 131.474 44.8159 131.546 44.8159 131.634C44.8159 131.722 44.8875 131.794 44.9758 131.794Z" stroke="black" stroke-miterlimit="10"/>
<path d="M46.6731 132.543C46.8801 132.543 47.0478 132.376 47.0478 132.169C47.0478 131.962 46.8801 131.794 46.6731 131.794C46.4661 131.794 46.2983 131.962 46.2983 132.169C46.2983 132.376 46.4661 132.543 46.6731 132.543Z" stroke="black" stroke-miterlimit="10"/>
<path d="M52.0989 133.441C52.3057 133.441 52.4733 133.274 52.4733 133.067C52.4733 132.86 52.3057 132.693 52.0989 132.693C51.8922 132.693 51.7246 132.86 51.7246 133.067C51.7246 133.274 51.8922 133.441 52.0989 133.441Z" stroke="black" stroke-miterlimit="10"/>
<path d="M52.4765 135.381C52.6852 135.381 52.8544 135.212 52.8544 135.004C52.8544 134.795 52.6852 134.626 52.4765 134.626C52.2678 134.626 52.0986 134.795 52.0986 135.004C52.0986 135.212 52.2678 135.381 52.4765 135.381Z" stroke="black" stroke-miterlimit="10"/>
<path d="M52.3494 137.02C52.4879 137.02 52.6002 136.908 52.6002 136.769C52.6002 136.631 52.4879 136.518 52.3494 136.518C52.2109 136.518 52.0986 136.631 52.0986 136.769C52.0986 136.908 52.2109 137.02 52.3494 137.02Z" stroke="black" stroke-miterlimit="10"/>
<path d="M58.8143 127.952C58.904 127.952 58.9767 127.879 58.9767 127.789C58.9767 127.7 58.904 127.627 58.8143 127.627C58.7246 127.627 58.6519 127.7 58.6519 127.789C58.6519 127.879 58.7246 127.952 58.8143 127.952Z" stroke="black" stroke-miterlimit="10"/>
<path d="M59.0303 129.382C59.1495 129.382 59.2462 129.286 59.2462 129.167C59.2462 129.047 59.1495 128.951 59.0303 128.951C58.9111 128.951 58.8145 129.047 58.8145 129.167C58.8145 129.286 58.9111 129.382 59.0303 129.382Z" stroke="black" stroke-miterlimit="10"/>
<path d="M60.3595 130.05C60.533 130.05 60.6736 129.909 60.6736 129.736C60.6736 129.562 60.533 129.421 60.3595 129.421C60.186 129.421 60.0454 129.562 60.0454 129.736C60.0454 129.909 60.186 130.05 60.3595 130.05Z" stroke="black" stroke-miterlimit="10"/>
<path d="M50.877 119.806C50.877 119.806 51.4596 120.825 52.6252 120.128" stroke="black" stroke-miterlimit="10"/>
<path d="M69.0463 138.341C67.1147 137.493 65.7677 138.497 65.7677 138.497C65.5147 138.166 64.3223 137.181 64.3223 137.181C64.3223 137.181 65.036 136.95 65.2527 136.794C65.4228 136.674 65.5316 136.109 65.8161 134.705C65.8937 134.319 65.9855 133.869 66.0952 133.347C66.3591 132.094 66.7746 130.879 67.2549 129.926C67.7019 129.04 68.2051 128.379 68.6944 128.121C69.7106 127.587 70.2894 128.906 70.2894 128.906C70.2894 128.906 69.959 129.185 69.2607 130.345C69.1171 130.582 68.9592 130.857 68.7843 131.174C68.2121 132.212 67.9972 133.614 67.9621 134.737C67.9334 135.629 68.018 136.346 68.1281 136.568C68.3679 137.056 69.7445 137.253 69.8306 137.266L69.8344 137.266C69.2114 137.479 69.0463 138.341 69.0463 138.341Z" fill="black"/>
<path d="M75.3824 146.97C74.3083 151.674 72.7726 156.57 71.6074 156.779C69.457 157.164 68.7764 156.503 68.7764 156.503C68.7764 156.503 67.3628 156.837 66.0031 156.907C65.0416 156.957 64.1076 156.875 63.7166 156.449C62.7714 155.421 59.6356 156.975 58.5444 154.594C57.4517 152.213 55.4662 139.852 58.0935 137.16C60.7209 134.469 65.0115 135.832 65.9393 137.255C65.9393 137.255 66.9222 136.583 68.2095 136.203C69.387 135.855 70.8219 135.751 71.987 136.633C74.4259 138.479 76.0652 136.733 76.616 138.394C76.8684 139.154 76.2903 142.994 75.3824 146.97Z" fill="#379193"/>
<path d="M69.9978 140.054C69.4383 143.425 69.938 153.885 66.0031 156.907C65.0416 156.957 64.1076 156.875 63.7166 156.449C62.7714 155.421 59.6356 156.975 58.5444 154.593C57.4517 152.213 55.4662 139.852 58.0935 137.16C60.7209 134.469 65.0115 135.832 65.9393 137.255C65.9393 137.255 66.9222 136.583 68.2095 136.203C69.08 136.492 70.4424 137.373 69.9978 140.054Z" fill="#40A1A8"/>
<path d="M75.3819 146.97C74.3078 151.674 72.7721 156.57 71.6069 156.779C69.4565 157.163 68.7759 156.503 68.7759 156.503L75.3819 146.97Z" fill="black"/>
<path d="M65.8022 137.224C65.8022 137.224 64.4761 139.111 64.4761 142.133C64.4761 145.155 64.4761 147.576 64.4761 147.576" stroke="black" stroke-miterlimit="10"/>
<path d="M73.349 137.364C73.349 137.364 74.3079 138.957 73.748 141.515C73.1881 144.073 72.106 147.488 72.106 147.488" stroke="black" stroke-miterlimit="10"/>
<path d="M18.0829 114.951L14.5083 122.252C14.5083 122.252 14.6821 123.751 17.1156 123.376C19.5491 123.002 119.841 122.252 119.841 122.252C119.841 122.252 123.144 122.854 121.579 121.242C120.015 119.63 116.63 116.324 116.63 116.324" stroke="white" stroke-width="3" stroke-miterlimit="10"/>
<path d="M15.2031 123.463L18.0828 133.884L23.8941 155.027C23.8941 155.027 24.4156 157.929 27.5442 157.929C30.673 157.929 109.064 157.929 109.064 157.929C109.064 157.929 113.931 157.202 114.626 154.205C115.046 152.395 117.243 141.093 118.916 132.475C120.012 126.828 120.884 122.28 120.884 122.28" stroke="white" stroke-width="3" stroke-miterlimit="10"/>
<path d="M89.9399 122.499L87.3936 157.705" stroke="white" stroke-width="3" stroke-miterlimit="10"/>
<path d="M98.4025 122.499L95.042 157.705" stroke="white" stroke-width="3" stroke-miterlimit="10"/>
<path d="M107.326 122.252L102.69 157.705" stroke="white" stroke-width="3" stroke-miterlimit="10"/>
<path d="M115.437 122.252L110.106 157.705" stroke="white" stroke-width="3" stroke-miterlimit="10"/>
<path d="M81.0196 122.575L80.3242 157.705" stroke="white" stroke-width="3" stroke-miterlimit="10"/>
<path d="M71.9805 122.575L72.4442 157.705" stroke="white" stroke-width="3" stroke-miterlimit="10"/>
<path d="M63.6367 122.732L64.9119 157.705" stroke="white" stroke-width="3" stroke-miterlimit="10"/>
<path d="M54.9458 122.732L57.0318 157.705" stroke="white" stroke-width="3" stroke-miterlimit="10"/>
<path d="M46.4858 122.903L49.7307 157.705" stroke="white" stroke-width="3" stroke-miterlimit="10"/>
<path d="M37.9121 122.732L42.1997 157.705" stroke="white" stroke-width="3" stroke-miterlimit="10"/>
<path d="M29.3364 123.109L34.2029 157.705" stroke="white" stroke-width="3" stroke-miterlimit="10"/>
<path d="M21.1094 123.243L26.5626 157.602" stroke="white" stroke-width="3" stroke-miterlimit="10"/>
<path d="M18.0825 133.884C18.0825 133.884 95.6255 135.166 118.916 132.419" stroke="white" stroke-width="3" stroke-miterlimit="10"/>
<path d="M21.1094 144.837C21.1094 144.837 97.5431 145.992 116.63 144.138" stroke="white" stroke-width="3" stroke-miterlimit="10"/>
<path d="M64.9124 83.9669L48.1094 122.903C48.1094 122.903 49.2692 124.549 50.1958 122.864C51.1222 121.179 66.4189 84.9658 66.4189 84.9658C66.4189 84.9658 66.303 82.8431 64.9124 83.9669Z" stroke="white" stroke-width="3" stroke-miterlimit="10"/>
<path d="M87.9731 123.295L71.1699 84.3588C71.1699 84.3588 72.3299 82.7128 73.2565 84.3978C74.183 86.0826 89.4796 122.296 89.4796 122.296C89.4796 122.296 89.3638 124.419 87.9731 123.295Z" stroke="white" stroke-width="3" stroke-miterlimit="10"/>
<path d="M63.8745 93.1116C63.507 94.0143 62.5082 94.415 61.6703 94.0189C60.8324 93.6229 60.4295 92.5596 60.7971 91.6567L64.4433 82.701C64.8108 81.7983 65.8098 81.3975 66.6477 81.7937C67.4857 82.1898 67.8885 83.253 67.5209 84.156L63.8745 93.1116Z" fill="black"/>
<path d="M73.9467 92.9867C74.3143 93.8896 75.3132 94.2903 76.151 93.894C76.9889 93.4979 77.3918 92.4347 77.0242 91.5317L73.378 82.576C73.0104 81.6733 72.0115 81.2725 71.1736 81.6687C70.3356 82.0648 69.933 83.128 70.3006 84.031L73.9467 92.9867Z" fill="black"/>
<path d="M37.6472 93.7343C37.6472 93.7343 37.3872 96.9319 39.1561 100.564C40.9249 104.197 54.3792 127.683 58.487 130.175" stroke="black" stroke-miterlimit="10"/>
<path d="M152.675 113.87L159.611 100.094C159.982 99.3546 160.767 98.8876 161.593 98.8876H173.153C173.978 98.8876 174.515 99.6659 174.143 100.366L167.207 114.143C166.836 114.882 166.051 115.349 165.226 115.349H153.666C152.881 115.349 152.345 114.571 152.675 113.87Z" fill="#D1D3D4"/>
<path d="M166.959 121.887C164.524 124.806 159.734 126.557 155.854 126.479C153.5 126.44 148.092 123.599 149.867 120.72C152.097 117.1 154.326 113.442 156.597 109.823C156.762 109.551 156.927 109.278 157.216 109.123C157.546 108.928 157.959 108.889 158.372 108.889C161.097 108.928 164.028 109.161 166.629 109.901C167.909 110.251 169.271 110.718 169.973 111.769C170.799 113.014 170.345 114.649 169.849 116.05C169.106 118.112 168.363 120.214 166.959 121.887Z" fill="#FFE9DB"/>
<path d="M67.4196 211.395C70.4748 211.551 73.5299 211.239 76.7502 210.928C83.8101 210.266 90.7461 211.2 97.8059 209.994C100.944 192.948 100.861 173.646 99.0445 156.445C99.0032 156.173 70.5574 154.81 70.1445 156.056C68.4931 161.115 67.0894 166.213 65.8921 171.389C64.9425 175.592 65.5205 178.978 65.4792 183.219C65.3554 192.481 62.4654 201.238 61.6396 210.344C63.6214 210.967 65.5205 211.278 67.4196 211.395Z" fill="#B6C4B4"/>
<path d="M126.871 210.928C113.701 211.2 100.53 211.161 87.3604 210.811C88.7641 201.316 90.4155 192.209 89.2595 182.48C88.8054 178.666 87.9384 174.852 88.3925 171.078C88.8466 166.991 90.7871 163.216 92.6449 159.519C92.9752 158.819 93.3881 158.118 94.0486 157.69C94.7092 157.262 95.5762 157.184 96.3606 157.145C105.278 156.523 114.196 156.095 123.114 155.861C123.072 155.861 126.788 170.066 126.953 171.155C129.224 184.309 126.499 198.047 130.174 210.889C129.1 210.85 127.985 210.889 126.871 210.928Z" fill="#B6C4B4"/>
<path d="M94.5856 173.802C94.8746 176.176 95.4113 178.549 96.1957 180.846C96.5673 182.013 97.0214 183.142 97.5169 184.27C97.9297 185.243 98.3839 186.255 99.0444 187.111C99.6224 187.889 100.407 188.551 101.398 188.823C102.306 189.096 103.338 188.979 104.205 188.668C106.269 187.928 107.508 186.177 108.086 184.27C108.416 183.219 108.581 182.13 108.705 181.04C108.829 179.795 108.912 178.511 108.912 177.226C108.912 175.942 108.788 174.697 108.623 173.413C108.581 173.179 108.623 172.868 108.499 172.673C108.458 172.634 108.458 172.595 108.375 172.556C108.292 172.517 108.169 172.517 108.086 172.517C107.302 172.479 106.476 172.556 105.65 172.634C104.288 172.751 102.967 172.868 101.604 172.984C99.416 173.179 97.1866 173.451 94.9984 173.607C94.9159 173.607 94.8333 173.607 94.7507 173.607C94.503 173.607 94.503 173.996 94.7507 173.996C95.37 173.957 95.9893 173.88 96.6086 173.841C97.8059 173.724 99.0032 173.607 100.2 173.49C102.554 173.257 104.907 173.023 107.302 172.907C107.549 172.907 107.838 172.868 108.086 172.907C108.003 172.907 108.127 172.907 108.127 172.907C108.127 172.946 108.086 172.868 108.127 172.907C108.127 172.907 108.045 172.829 108.086 172.829C108.045 172.79 108.045 172.79 108.086 172.829C108.086 172.868 108.086 172.907 108.127 172.984C108.21 173.607 108.292 174.23 108.334 174.814C108.54 177.226 108.499 179.678 108.127 182.052C107.838 183.998 107.178 186.138 105.485 187.461C103.999 188.59 101.728 189.018 100.159 187.773C99.3747 187.15 98.8793 186.255 98.4252 185.36C97.9297 184.309 97.4756 183.258 97.0627 182.208C96.237 180.028 95.6177 177.81 95.2049 175.514C95.1223 174.93 94.9984 174.347 94.9572 173.802C94.9572 173.529 94.5443 173.529 94.5856 173.802Z" fill="#6B7C69"/>
<path d="M72.4153 174.424C74.2732 176.409 76.8742 177.538 79.5578 178.043C80.9615 178.316 82.3652 178.472 83.8102 178.51C84.5533 178.549 85.2552 178.549 85.9983 178.549C86.3699 178.549 86.8241 178.471 87.1543 178.627C87.5259 178.783 87.6498 179.211 87.7323 179.561C88.7645 182.752 88.9709 186.099 88.8471 189.407C88.7232 192.793 88.2691 196.14 88.0213 199.486C87.8975 201.16 87.8149 202.833 87.8562 204.507C87.8975 206.258 88.0213 208.048 88.0626 209.799C88.0626 210.266 88.0626 210.694 88.0626 211.161C88.0626 211.395 88.4755 211.395 88.4755 211.161C88.4755 209.371 88.3516 207.581 88.2691 205.752C88.1865 204.04 88.2278 202.327 88.3103 200.615C88.5168 197.229 88.9709 193.843 89.1361 190.458C89.3012 187.111 89.2186 183.764 88.3516 180.495C88.2278 180.106 88.1452 179.678 87.9801 179.289C87.8562 178.977 87.7323 178.666 87.4846 178.433C86.9479 177.966 86.0809 178.121 85.4203 178.121C83.9341 178.121 82.4891 178.043 81.0441 177.888C78.2779 177.538 75.4292 176.681 73.3649 174.852C73.1172 174.619 72.8695 174.385 72.6218 174.152C72.5392 173.957 72.2502 174.23 72.4153 174.424Z" fill="#6B7C69"/>
<path d="M119.192 157.69C119.811 161.232 120.348 164.812 120.719 168.392C121.132 171.972 121.421 175.514 121.586 179.094C121.752 182.674 121.834 186.255 121.793 189.835C121.752 191.625 121.669 193.454 121.669 195.244C121.669 196.957 121.752 198.708 121.917 200.42C122.247 203.806 122.866 207.192 123.403 210.539C123.486 210.967 123.527 211.395 123.609 211.862C123.651 212.095 124.064 212.017 124.022 211.745C123.486 208.32 122.825 204.896 122.453 201.471C122.247 199.759 122.123 198.046 122.123 196.334C122.082 194.544 122.206 192.793 122.247 191.003C122.33 187.422 122.288 183.842 122.123 180.262C121.958 176.681 121.71 173.062 121.339 169.482C120.967 165.94 120.472 162.399 119.894 158.858C119.811 158.43 119.729 157.963 119.687 157.535C119.563 157.34 119.151 157.457 119.192 157.69Z" fill="#6B7C69"/>
<path d="M124.477 143.136C124.6 138.388 124.064 133.484 124.683 128.775C130.298 133.64 137.275 136.831 144.17 139.905C149.289 142.202 153.542 136.053 152.799 131.694C152.138 127.608 149 124.378 145.986 121.381C141.032 116.439 136.119 111.497 131.165 106.554C126.169 101.573 121.132 96.7083 115.517 92.3497C110.646 88.5748 105.361 88.3413 99.1271 87.7965C92.6039 87.2127 81.2091 85.5782 76.3374 91.1433C74.8924 92.8167 74.2731 94.9571 73.7364 97.0585C71.3418 106.554 71.8372 116.322 71.6308 126.129C71.4244 136.87 71.1766 147.611 70.9702 158.352C87.8974 162.282 105.072 160.648 122.454 159.792C123.403 153.176 124.311 149.751 124.477 143.136Z" fill="#FFE9DB"/>
<path d="M85.7922 84.1771C85.7096 85.3057 85.5858 86.4732 85.4619 87.6018C85.4206 87.952 85.3794 88.3023 85.5858 88.5747C85.7922 88.8471 86.1225 88.9639 86.4528 89.0806C92.1502 90.754 98.3018 89.4309 104.164 88.9249C104.453 88.886 104.784 88.8471 104.99 88.6525C105.196 88.419 105.196 88.1077 105.196 87.7964C104.866 80.8693 104.536 73.9032 104.164 66.9761C104.164 66.6259 104.123 66.2756 103.917 65.9643C103.71 65.653 103.297 65.4973 102.926 65.3805C98.0128 63.7071 92.0264 61.8781 86.7418 62.5396C86.0812 65.4973 86.7005 68.5717 86.4528 71.6072C86.2051 75.849 86.1225 80.0131 85.7922 84.1771Z" fill="#FFE9DB"/>
<path d="M151.849 136.948C150.074 138.621 147.844 140.528 145.119 139.866C136.326 137.765 137.482 128.425 143.014 124.028C147.101 120.797 154.739 112.975 160.354 117.996C160.891 118.463 161.345 119.085 161.427 119.747C161.469 120.253 161.303 120.759 161.097 121.264C159.487 125.701 156.308 132.784 151.849 136.948Z" fill="#FFE9DB"/>
<path d="M143.757 114.065C143.922 113.832 144.088 113.637 144.253 113.403C137.11 106.632 128.936 100.834 120.968 94.9961C119.027 93.5951 117.087 92.1552 114.981 91.0266C113.288 90.1315 111.596 89.5478 109.862 89.1197C108.623 88.8084 100.82 93.8286 98.5495 94.2566C94.875 94.9182 89.8795 95.2295 86.6179 93.3226C85.8748 92.8946 85.2142 92.3497 84.5949 91.8049C83.1086 90.5207 81.6223 89.2754 80.0948 87.9911C78.402 86.5512 73.2 93.634 72.6633 94.7626C70.9706 98.265 70.6403 102.39 70.2688 106.126C68.5348 123.833 67.8742 141.462 66.0576 159.208C85.2142 166.213 106.683 162.399 126.83 158.508C126.459 150.335 126.087 142.202 125.715 134.029C131 133.679 134.138 129.476 136.821 125.701C139.505 121.926 141.115 117.723 143.757 114.065Z" fill="#1C272B"/>
<path d="M105.114 85.617C104.825 79.3904 104.494 73.1638 104.205 66.9372C104.205 66.5869 104.164 66.2367 103.958 65.9254C103.751 65.614 103.338 65.4584 102.967 65.3416C101.068 64.68 99.0447 64.0185 96.9391 63.4736C95.7831 64.719 95.0813 66.4313 94.8336 68.1047C93.9253 75.1875 97.3107 83.2042 104.99 85.5392C105.031 85.617 105.072 85.617 105.114 85.617Z" fill="#F6D1BA"/>
<path d="M115.105 80.0133C111.926 84.0606 104.329 82.1537 100.572 79.8577C95.2463 76.5887 88.4755 74.565 85.9158 68.4941C83.2735 62.2285 83.1496 49.5418 88.0213 44.1324C93.5536 38.0226 109.366 36.8162 115.683 42.3423C117.871 44.2492 119.109 47.0123 119.605 49.8142C120.1 52.6162 119.976 55.4571 119.811 58.298C119.44 65.5754 119.811 73.67 115.146 79.9355C115.146 79.9355 115.105 79.9744 115.105 80.0133Z" fill="#FFE9DB"/>
<path d="M114.733 61.3334C111.224 66.0422 106.352 69.7393 101.109 72.7748C97.4344 74.9152 91.6131 78.8846 87.1543 77.8339C82.778 76.8221 81.0853 71.8797 80.3008 67.6767C78.443 57.6363 77.865 46.1171 88.269 40.0072C94.9573 36.0766 103.503 35.8431 111.059 37.9446C113.04 38.4894 115.022 39.2289 116.632 40.4353C123.94 45.8446 118.944 55.6905 114.733 61.3334Z" fill="#CB6830"/>
<path d="M79.0211 73.0861C79.1037 75.0319 80.2184 76.9777 82.0763 77.8339C83.9341 78.6511 86.4938 78.0674 87.4434 76.3162C87.815 75.6546 87.8976 74.8763 87.8563 74.1368C87.526 69.3501 78.7321 66.0422 79.0211 73.0861Z" fill="#B6C4B4"/>
<path d="M79.8882 94.2955C78.4019 87.7965 84.4296 82.0369 84.636 75.6935C84.6773 74.7595 84.5534 73.6698 83.8103 73.0472C82.9846 72.3467 81.6634 72.4245 80.6726 72.9693C77.4936 74.7206 75.4706 76.0827 71.6723 77.1723C65.3143 80.09 67.6263 79.1117 63.2913 82.2693C60.6733 84.1762 59.2864 87.1339 57.8002 89.8969C55.8184 93.5551 56.6855 105.658 53.4652 108.421C47.1485 113.869 41.3685 125.35 47.9742 130.487C50.7816 132.705 58.6672 128.035 63.2913 126.945C70.8466 128.035 77.2459 122.86 81.0029 116.595C82.6956 113.793 83.1497 110.485 83.2323 107.294C83.3149 104.764 83.1497 102.196 82.2414 99.8605C81.5396 97.9926 80.3423 96.2802 79.8882 94.2955Z" fill="#CB6830"/>
<path d="M118.407 64.6023C117.499 63.3181 116.55 61.9171 115.022 61.2166C113.618 60.555 112.008 60.6329 110.852 61.6447C109.696 62.6954 109.366 64.2521 109.572 65.7309C109.779 67.4043 110.522 69.0777 111.265 70.5954C112.091 72.3467 113.123 73.9812 114.32 75.4989C114.485 75.6935 114.816 75.4989 114.692 75.3043C113.701 74.059 112.834 72.7359 112.091 71.3349C111.348 69.9339 110.687 68.4551 110.274 66.9373C109.861 65.4974 109.737 63.8629 110.646 62.5787C111.017 62.0339 111.513 61.5669 112.173 61.3334C112.875 61.0609 113.66 61.0999 114.361 61.3334C116.095 61.8782 117.169 63.3959 118.118 64.7969C118.201 65.0304 118.573 64.8358 118.407 64.6023Z" fill="#1C272B"/>
<path d="M108.127 60.3215C108.458 63.7461 111.017 68.8831 114.898 70.0505C115.27 67.1707 115.559 63.2402 114.073 60.5939C113.247 59.115 110.398 56.1574 108.623 58.1811C108.045 58.7259 108.045 59.5431 108.127 60.3215Z" fill="#FFE9DB"/>
<path d="M116.095 79.8964C116.549 79.2738 116.962 78.6122 117.251 78.0285C119.398 73.7087 120.224 68.5329 120.183 63.7851C119.192 63.5516 118.325 63.2402 117.334 63.2402C116.673 65.4196 116.632 67.4821 115.765 69.6225C113.907 74.2146 111.843 78.1841 108.581 82.0368C108.375 82.3093 111.43 82.6595 111.678 82.6206C112.545 82.5428 113.37 82.2703 114.114 81.8033C114.815 81.3363 115.517 80.6359 116.095 79.8964Z" fill="#B6C4B4"/>
</svg>
