<svg width="188" height="75" viewBox="0 0 188 75" fill="none" xmlns="http://www.w3.org/2000/svg">
<path d="M49.188 44.328C49.188 51.888 54.444 57.18 61.896 57.18C67.908 57.18 72.444 53.832 73.884 48.36H67.116C66.072 50.52 64.164 51.6 61.824 51.6C58.044 51.6 55.452 48.792 55.452 44.328C55.452 39.864 58.044 37.056 61.824 37.056C64.164 37.056 66.072 38.136 67.116 40.296H73.884C72.444 34.824 67.908 31.44 61.896 31.44C54.444 31.44 49.188 36.768 49.188 44.328ZM76.4299 46.92C76.4299 53.256 80.3539 57.288 85.2499 57.288C88.2379 57.288 90.3619 55.92 91.4779 54.156V57H97.6339V36.912H91.4779V39.756C90.3979 37.992 88.2739 36.624 85.2859 36.624C80.3539 36.624 76.4299 40.584 76.4299 46.92ZM91.4779 46.956C91.4779 50.16 89.4259 51.924 87.0859 51.924C84.7819 51.924 82.6939 50.124 82.6939 46.92C82.6939 43.716 84.7819 41.988 87.0859 41.988C89.4259 41.988 91.4779 43.752 91.4779 46.956ZM115.947 57H122.067V45.264C122.067 39.864 118.971 36.696 114.327 36.696C111.627 36.696 109.467 37.884 108.243 39.576V36.912H102.087V57H108.243V46.092C108.243 43.356 109.755 41.844 112.095 41.844C114.435 41.844 115.947 43.356 115.947 46.092V57ZM125.121 46.92C125.121 53.256 129.045 57.288 133.941 57.288C136.929 57.288 139.053 55.92 140.169 54.156V57H146.325V36.912H140.169V39.756C139.089 37.992 136.965 36.624 133.977 36.624C129.045 36.624 125.121 40.584 125.121 46.92ZM140.169 46.956C140.169 50.16 138.117 51.924 135.777 51.924C133.473 51.924 131.385 50.124 131.385 46.92C131.385 43.716 133.473 41.988 135.777 41.988C138.117 41.988 140.169 43.752 140.169 46.956ZM156.935 47.676C156.935 44.22 158.627 43.212 161.543 43.212H163.235V36.696C160.535 36.696 158.339 38.136 156.935 40.26V36.912H150.779V57H156.935V47.676ZM175.429 49.476L170.785 36.912H163.909L172.081 56.316L167.473 66.54H174.097L186.697 36.912H180.037L175.429 49.476Z" fill="#EB4B4B"/>
<path d="M62.3272 19.3602H62.3287L72.5786 15.3991L63.6896 11.9961H63.6881C63.7496 12.4971 63.7819 13.0069 63.7819 13.524C63.7819 15.6349 63.256 17.6213 62.3272 19.3602Z" fill="#FD8087"/>
<path d="M2.42242 72.0193C7.81736 75.5276 15.0349 73.9982 18.5432 68.6033L26.7842 55.9307L12.8704 55.9308L2.42242 72.0193Z" fill="#FD8087"/>
<path d="M39.0736 15.4037C38.9806 14.7906 38.9321 14.1631 38.9321 13.5241C38.9321 6.66173 44.4951 1.09875 51.3574 1.09875C58.2197 1.09875 63.7827 6.66173 63.7827 13.5241C63.7827 17.6888 61.7316 21.3721 58.5867 23.6266V28.2337C58.5867 43.5303 46.1863 55.9307 30.8898 55.9307H12.8703L39.0736 15.4037Z" fill="#FFE177"/>
<path d="M39.0353 15.3987C48.4213 25.9022 46.8257 41.2667 35.3066 50.0215C25.8311 57.223 12.5447 57.7448 2.56142 52.118L39.0353 15.3987Z" fill="#60B7FF"/>
<path d="M36.6356 17.8149C39.4443 26.9003 36.3598 37.0329 27.8144 43.5263C21.3977 48.4032 13.2314 50.216 5.52823 49.1303L36.6356 17.8149Z" fill="#8AC9FE"/>
<path d="M55.4507 14.1626C56.0574 14.1626 56.5493 13.6707 56.5493 13.064C56.5493 12.4572 56.0574 11.9653 55.4507 11.9653C54.8439 11.9653 54.352 12.4572 54.352 13.064C54.352 13.6707 54.8439 14.1626 55.4507 14.1626Z" fill="black"/>
<path d="M1.50021 71.4206L6.79144 63.2728C7.12207 62.7639 7.80223 62.6193 8.31128 62.9498C8.82019 63.2803 8.96478 63.9608 8.63429 64.4697L3.97165 71.6496C6.12154 72.7533 8.56544 73.083 10.962 72.575C13.7199 71.9906 16.0851 70.3674 17.6219 68.0037L24.7594 57.0287H13.4674L11.7443 59.6822C11.4138 60.1914 10.7335 60.3358 10.2246 60.0054C9.71554 59.675 9.57095 58.9946 9.90144 58.4857L11.225 56.4474C7.98593 55.8187 4.88107 54.6872 2.02143 53.0755C1.36969 52.5776 1.2897 52.0004 1.78133 51.3441L17.7737 35.2448C18.2016 34.8143 18.897 34.8121 19.3274 35.2396C19.7579 35.6673 19.7602 36.3628 19.3326 36.7932L7.93026 48.2721C14.8909 48.7214 21.7897 46.7251 27.1497 42.6515C34.495 37.07 37.8694 28.3276 36.0604 19.953L24.089 32.0048C23.6614 32.4353 22.9657 32.4378 22.5354 32.01C22.105 31.5824 22.1025 30.8869 22.5301 30.4564L37.9107 14.9725C37.8594 14.4933 37.8328 14.0083 37.8328 13.5241C37.8328 6.06702 43.8997 0.00012207 51.3567 0.00012207C58.0213 0.00012207 63.5746 4.84602 64.68 11.1992L72.971 14.373C73.3955 14.5355 73.676 14.9427 73.6768 15.3973C73.6775 15.8518 73.3981 16.26 72.9742 16.4239L63.0824 20.2466C62.2219 21.7466 61.0746 23.0866 59.6846 24.1751C59.735 26.535 59.7716 29.0051 59.517 31.3489C59.248 32.0559 58.8445 32.3805 58.3061 32.3225C57.7029 32.257 57.2671 31.7148 57.3325 31.1116C57.5996 28.6517 57.5269 26.0993 57.4872 23.6258C57.4872 23.2716 57.658 22.939 57.9457 22.7328C60.9122 20.6063 62.6832 17.1637 62.6832 13.5238C62.6832 7.2782 57.6021 2.19718 51.3566 2.19718C45.1111 2.19718 40.03 7.27835 40.03 13.5238C40.03 14.0109 40.0631 14.4981 40.1247 14.9766C44.6301 20.1752 46.7611 26.6439 46.1273 33.2391C45.4631 40.1524 41.8566 46.4234 35.9719 50.8964C33.8344 52.5207 31.4887 53.8384 28.9924 54.8309H30.889C42.6306 54.8309 53.1303 46.9682 56.4224 35.7102C56.5928 35.1279 57.2032 34.7933 57.7853 34.9642C58.3678 35.1344 58.7018 35.7447 58.5316 36.3271C56.3735 43.7071 51.1849 50.0477 44.4105 53.6673V59.0787L50.4147 60.4047C51.0072 60.5355 51.3815 61.1219 51.2507 61.7143C50.9297 62.3892 50.4932 62.6678 49.9409 62.5502L45.3824 61.5435L46.3482 63.3849C46.6301 63.9222 46.423 64.5863 45.8855 64.8681C45.3482 65.1498 44.684 64.943 44.4023 64.4055L42.9252 61.5891L38.1757 64.9887L42.4213 65.9262C43.0138 66.057 43.3881 66.6434 43.2573 67.2358C42.9363 67.9107 42.4998 68.1893 41.9475 68.0717L37.389 67.065L38.355 68.9066C38.6368 69.4439 38.4297 70.1079 37.8922 70.3898C37.3549 70.6715 36.6907 70.4645 36.4089 69.9272L34.9317 67.1106L29.9119 70.7037C29.3661 71.0455 28.8551 70.9608 28.379 70.4498C28.0258 69.9565 28.1395 69.2701 28.6329 68.917L34.2197 64.9179V56.8381C31.9916 57.0923 29.6303 57.0761 27.3805 57.0278L19.464 69.201C17.6073 72.0564 14.7495 74.0178 11.4176 74.7238C8.1185 75.423 4.64829 74.7767 1.82278 72.9391C1.31432 72.6094 1.16988 71.9294 1.50021 71.4206ZM69.5179 15.4039L64.8793 13.628C64.8692 14.9257 64.671 16.2012 64.3025 17.4193L69.5179 15.4039ZM36.4171 63.5934C36.4768 63.5204 42.2133 59.3968 42.2133 59.3968V54.7237C40.3522 55.5216 38.4124 56.116 36.4171 56.5018V63.5934ZM43.9402 33.0293C44.4915 27.2926 42.7326 21.6511 38.9736 17.0203L37.872 18.1292C39.1446 22.6878 39.0281 27.4652 37.5254 31.9889C35.9158 36.8351 32.7876 41.1271 28.4792 44.4011C23.2324 48.3887 16.6275 50.5323 9.85426 50.5323C8.54786 50.5323 7.23517 50.4524 5.92481 50.2909L4.38403 51.842C7.99267 53.6373 12.0222 54.6549 16.0498 54.8315C22.6709 55.0604 29.3324 53.1827 34.6422 49.1475C40.0333 45.0496 43.3354 39.3253 43.9402 33.0293Z" fill="black"/>
</svg>
