<svg width="266" height="203" viewBox="0 0 266 203" fill="none" xmlns="http://www.w3.org/2000/svg">
<path d="M253.151 170.165C252.978 173.732 252.396 177.272 251.034 180.549C249.808 183.508 247.925 186.15 245.733 188.383C241.522 192.676 236.122 195.556 230.438 196.824C224.072 198.238 212.201 204.254 206.182 201.586C205.773 201.401 205.674 201.836 205.885 201.572C187.53 195.825 169.007 193.317 160.164 190.358C137.822 182.907 141.597 167.24 118.635 172.128C108.021 174.374 94.9902 180.486 84.302 182.295C73.6138 184.105 60.5786 177.471 50.7202 172.702C43.1035 169.016 36.9482 162.794 32.0933 155.462C28.6751 152.304 25.6656 148.724 23.0895 144.695C19.535 139.12 16.8971 132.845 15.3737 126.306C13.8008 119.569 13.3178 112.408 14.3581 105.526C14.9155 101.827 16.0301 98.2069 17.8755 94.9968C19.436 92.3018 21.4671 89.9371 23.7707 87.9423C25.5665 86.3967 27.4861 85.0624 29.5049 83.8998C38.9917 73.5559 53.383 69.0378 66.9692 66.0522C82.4627 62.6439 98.9842 59.9489 111.171 49.1955C116.818 44.2019 121.215 37.7287 126.986 32.8936C139.433 22.4704 156.475 21.1097 172.278 22.0741C182.136 22.6818 192.205 24.0953 200.937 29.0097C205.073 31.3347 208.888 34.5846 211.835 38.4685C212.058 38.31 212.38 38.2835 212.628 38.5477C217.248 43.3168 221.929 48.4161 224.406 54.8629C225.744 58.3372 226.152 62.0098 225.929 65.7352C225.694 69.6852 224.963 73.5955 224.679 77.5455C223.911 88.0083 224.988 98.6033 227.787 108.67C228.283 109.317 228.778 109.964 229.261 110.599C234.463 117.455 239.243 124.813 242.723 132.779C249.894 143.453 253.771 157.007 253.151 170.165ZM25.0711 142.172C17.9002 125.117 15.6833 103.887 25.7894 88.6292C26 88.299 26.2229 87.9819 26.4458 87.6649C21.368 91.4695 17.7021 96.7538 16.2159 103.227C14.6802 109.898 14.9526 117.151 16.253 123.836C17.4791 130.19 19.7456 136.293 22.879 141.842C24.7738 145.197 27.0155 148.394 29.5544 151.3C27.8701 148.368 26.3839 145.29 25.0711 142.172ZM214.548 82.8298C215.117 89.3162 218.04 95.0232 221.657 100.373C221.421 97.3615 221.347 94.3627 221.297 91.4431C221.136 81.337 221.409 70.8081 217.545 61.3493C217.495 61.2436 217.458 61.1379 217.409 61.019C216.393 68.2848 213.904 75.4979 214.548 82.8298ZM224.815 102.051C223.452 95.2477 222.833 88.2461 223.044 81.2841C223.155 77.638 223.551 74.0314 224.01 70.425C224.518 66.4221 224.901 62.3401 223.973 58.3769C222.511 52.1547 218.56 47.1082 214.436 42.5109C216.244 45.8532 217.421 49.5258 217.731 53.3965C217.867 55.061 217.83 56.7123 217.706 58.3637C219.7 62.3929 220.938 66.9109 221.595 71.3761C223.106 81.654 222.041 92.1036 223.093 102.421C223.935 103.597 224.802 104.759 225.669 105.909C225.36 104.627 225.075 103.346 224.815 102.051ZM249.919 152.291C248.879 148.236 247.43 144.312 245.634 140.587C245.733 140.89 245.82 141.194 245.906 141.498C249.238 152.925 249.399 165.726 244.569 176.519C239.739 187.313 229.397 195.596 218.189 195.675C216.727 195.437 215.353 195.16 214.065 194.843C223.923 198.132 235.292 196.005 243.293 188.924C245.572 186.903 247.591 184.512 249.052 181.751C250.637 178.752 251.442 175.37 251.752 171.962C252.334 165.409 251.554 158.632 249.919 152.291Z" fill="#FFD9D9"/>
<path d="M247.345 162.388C247.171 165.955 246.589 169.495 245.227 172.771C244.001 175.73 242.118 178.373 239.926 180.605C238.502 182.058 236.941 183.34 235.282 184.463C234.824 184.278 234.353 184.08 233.907 183.868C235.158 183.062 236.347 182.177 237.486 181.173C239.765 179.152 241.784 176.761 243.245 174C244.831 171.001 245.636 167.619 245.945 164.211C246.527 157.645 245.747 150.868 244.112 144.527C243.072 140.471 241.623 136.548 239.827 132.822C239.926 133.126 240.013 133.43 240.1 133.734C243.431 145.161 243.592 157.962 238.762 168.755C236.607 173.577 233.35 177.884 229.411 181.2C224.965 177.99 221.176 173.471 218.5 168.518C213.001 158.332 211.069 146.469 208.345 135.068C205.372 122.65 201.236 110.338 194.164 99.9676C187.092 89.6105 176.751 81.3143 164.898 79.2006C156.514 77.6945 147.882 79.3195 139.807 82.1069C120.895 88.6197 104.485 101.262 87.1213 111.58C73.9686 119.387 59.9736 125.979 45.1117 128.608C35.7983 130.246 26.1009 130.233 16.9113 128.08C11.7468 112.32 11.1028 94.2871 19.9828 80.8519C20.1933 80.5216 20.4162 80.2046 20.6392 79.8875C15.5614 83.6922 11.8954 88.9764 10.4092 95.4496C8.87351 102.121 9.14598 109.374 10.4464 116.058C11.1895 119.902 12.3165 123.654 13.7779 127.248C13.2206 127.089 12.6757 126.917 12.1307 126.732C11.078 124.064 10.2235 121.303 9.56707 118.489C7.99419 111.752 7.51118 104.591 8.55151 97.7086C9.10883 94.0097 10.2235 90.39 12.0688 87.1798C13.6293 84.4848 15.6604 82.1201 17.964 80.1253C19.7598 78.5797 21.6795 77.2454 23.6982 76.0829C33.1851 65.739 47.5763 61.2209 61.1626 58.2353C76.6561 54.827 93.1775 52.132 105.364 41.3786C111.012 36.3849 115.408 29.9118 121.18 25.0767C133.627 14.6535 150.668 13.2928 166.471 14.2572C176.33 14.8649 186.399 16.2784 195.13 21.1928C199.267 23.5179 203.081 26.7676 206.029 30.6516C206.252 30.493 206.574 30.4666 206.821 30.7308C211.441 35.4999 216.122 40.5992 218.599 47.0459C219.937 50.5203 220.346 54.1929 220.123 57.9183C219.887 61.8682 219.157 65.7786 218.872 69.7286C218.104 80.1914 219.182 90.7863 221.981 100.853C222.476 101.5 222.971 102.147 223.454 102.782C228.656 109.638 233.437 116.996 236.917 124.962C244.088 135.676 247.964 149.23 247.345 162.388ZM208.741 75.0524C209.311 81.5388 212.234 87.2458 215.85 92.5961C215.615 89.5841 215.54 86.5853 215.491 83.6658C215.33 73.5596 215.602 63.0308 211.738 53.572C211.689 53.4663 211.652 53.3606 211.602 53.2417C210.586 60.5075 208.097 67.7205 208.741 75.0524ZM219.008 94.2739C217.646 87.4704 217.027 80.4688 217.237 73.5068C217.349 69.8607 217.745 66.2542 218.203 62.6477C218.711 58.6448 219.095 54.5628 218.166 50.5996C216.705 44.3774 212.754 39.3309 208.63 34.7337C210.438 38.0759 211.614 41.7485 211.924 45.6192C212.06 47.2837 212.023 48.9351 211.899 50.5864C213.893 54.6156 215.132 59.1336 215.788 63.5988C217.299 73.8767 216.234 84.3263 217.287 94.6438C218.129 95.8195 218.996 96.982 219.863 98.1314C219.553 96.8499 219.268 95.5685 219.008 94.2739Z" fill="#FFD9D9"/>
<path d="M132.931 194.407C206.117 194.407 265.446 193.247 265.446 191.815C265.446 190.384 206.117 189.224 132.931 189.224C59.7457 189.224 0.416992 190.384 0.416992 191.815C0.416992 193.247 59.7457 194.407 132.931 194.407Z" fill="#FFB5B5"/>
<path d="M33.0452 26.9087C34.0268 27.6939 34.8906 27.7725 35.2047 26.0449C35.5973 23.8068 33.909 20.3909 32.6918 18.5848C32.2207 17.8781 31.6317 17.1713 30.8072 17.0928C29.8256 17.0143 29.0011 17.9173 28.844 18.8596C28.687 19.802 29.0011 20.7836 29.3152 21.7259C29.6293 22.5897 31.4747 25.6522 33.0452 26.9087Z" fill="#F6D1BA"/>
<path d="M58.4096 19.8413C58.3704 21.883 56.2109 24.71 54.9545 26.202C54.6011 26.6339 54.2084 27.0658 53.6588 27.2228C53.1091 27.3799 52.4416 27.2621 52.206 26.7909C52.049 26.4768 52.049 26.1235 52.0882 25.7701C52.206 24.71 52.4023 23.6891 52.6772 22.6683C53.0698 21.1763 53.8158 19.8806 54.9937 18.899C55.6219 18.3885 56.4072 17.7996 57.1925 17.9959C57.9777 18.2315 58.4489 19.056 58.4096 19.8413Z" fill="#F6D1BA"/>
<path d="M56.25 19.9983C54.5617 20.8229 53.5801 22.786 53.8549 24.6314C53.8942 24.8278 54.169 24.9455 54.3261 24.9063C54.5617 24.8278 54.6402 24.6314 54.6009 24.4351C54.4046 22.9038 55.3077 21.3726 56.6426 20.7051C57.1138 20.4695 56.7212 19.7628 56.25 19.9983Z" fill="#EFA294"/>
<path d="M30.7679 20.7836C31.5139 20.9014 31.985 21.5689 32.2992 22.1971C32.7311 23.0609 33.0844 24.0032 33.4771 24.9455C33.5556 25.1418 33.7519 25.2989 33.9482 25.2204C34.1445 25.1811 34.3016 24.9455 34.2231 24.7492C33.9875 24.1995 33.7519 23.6498 33.5163 23.1001C33.32 22.629 33.1237 22.1578 32.8881 21.7259C32.4955 20.9799 31.8673 20.1946 30.9642 20.0768C30.7679 20.0376 30.5323 20.1161 30.493 20.3517C30.4538 20.4695 30.5323 20.7443 30.7679 20.7836Z" fill="#EFA294"/>
<path d="M33.7911 191.109C34.2622 190.834 34.6549 190.48 34.8512 189.97C35.1653 189.263 35.0475 188.478 34.969 187.693C34.6549 185.415 34.6156 183.492 34.7334 181.254C34.9297 177.602 34.9297 173.911 34.7334 170.26C34.7334 170.024 34.6941 169.749 34.5764 169.553C34.4193 169.317 34.1837 169.239 33.9089 169.121C31.5923 168.297 29.0402 168.532 26.6059 168.886C26.3703 168.925 26.1347 168.964 25.9384 169.121C25.7813 169.239 25.7421 169.435 25.6635 169.632C24.4464 173.519 23.7004 178.427 21.5016 181.843C20.0881 184.041 18.125 186.044 17.8501 188.635C17.8108 189.028 17.8108 189.42 18.0072 189.734C18.2427 190.206 18.7924 190.441 19.3029 190.638C23.2292 192.051 28.3727 191.855 32.4169 191.423C32.9666 191.462 33.3984 191.344 33.7911 191.109Z" fill="#BC9264"/>
<path d="M68.8536 190.559C68.5002 190.559 68.1076 190.52 67.7934 190.363C66.38 189.774 66.1051 187.811 66.4977 186.319C67.2045 183.649 67.9112 181.764 67.5971 178.937C67.2438 176.032 66.3014 173.205 66.4192 170.26C66.4192 170.024 66.4585 169.749 66.5763 169.553C66.7333 169.317 66.9689 169.239 67.2438 169.121C69.5603 168.297 72.1124 168.532 74.5468 168.886C74.7823 168.925 75.0179 168.964 75.2142 169.121C75.3713 169.239 75.4106 169.435 75.4891 169.632C76.5885 173.047 77.3345 178.544 80.5933 180.665C81.5749 181.293 82.6743 181.685 83.7344 182.078C87.1111 183.335 94.0607 185.062 94.3748 189.499C94.3748 189.695 94.3748 189.892 94.2963 190.088C94.1393 190.323 93.7859 190.363 93.511 190.402C85.5013 191.148 77.4915 190.402 69.4818 190.48C69.2069 190.559 69.0106 190.559 68.8536 190.559Z" fill="#BC9264"/>
<path d="M25.3103 94.7953C25.3496 98.9179 25.2711 103.08 25.0355 107.163C24.7214 111.953 22.8367 116.587 23.3472 121.455C23.7005 124.753 24.1717 127.305 23.5042 130.643C22.7975 134.02 21.5411 137.239 21.1484 140.655C20.795 143.757 21.2269 146.859 20.9914 149.96C20.8343 152.238 20.3239 154.476 19.9705 156.753C18.9497 162.839 18.8319 169.003 18.6748 175.168C18.6748 175.953 18.6356 176.738 18.8711 177.484C19.4601 179.29 21.3447 180.233 23.1116 180.979C27.1165 182.628 32.1815 183.766 35.3618 180.861C37.5606 178.858 38.0317 175.639 38.3066 172.694C38.8563 167.276 39.2489 161.897 39.4845 156.478C39.7201 151.531 38.7385 145.367 39.9164 140.616C40.2697 139.124 41.1728 137.907 41.5262 136.336C42.0759 133.745 42.2329 130.957 42.547 128.287C43.2145 123.026 43.9212 117.804 44.5887 112.542C45.4918 105.711 47.1409 98.8001 47.2586 91.929C47.2586 91.5364 47.2586 91.1438 47.0623 90.8297C46.7875 90.3585 46.1985 90.2014 45.6881 90.0836C41.0943 89.0235 36.3434 88.5916 31.6318 88.788C26.8809 88.9057 25.2318 89.7303 25.3103 94.7953Z" fill="#140C15"/>
<path d="M72.309 138.927C73.5261 142.893 74.9396 146.819 75.8819 150.785C77.374 156.989 78.4341 163.31 79.5334 169.592C79.9653 172.223 80.3187 175.207 78.5911 177.209C77.531 178.427 75.8819 179.016 74.3114 179.447C71.7985 180.154 68.9323 180.586 66.7335 179.173C65.163 178.152 64.2992 176.306 63.5925 174.579C61.3152 169.003 59.6269 163.232 58.606 157.303C58.2919 155.418 58.017 153.494 57.1925 151.727C56.7214 150.667 56.0539 149.686 55.5827 148.626C54.8367 146.977 54.6011 145.17 54.3263 143.404C53.7766 139.438 53.6588 134.962 52.1668 131.271C50.5962 127.423 48.9472 123.615 47.5337 119.728C44.6282 111.561 42.2331 103.198 41.173 94.5597C40.9767 93.107 40.9767 91.3401 42.1546 90.4763C42.7828 90.0444 43.5681 89.9659 44.3141 89.8874C48.5153 89.4947 52.5594 89.4947 56.7606 88.9058C61.8256 88.199 62.1005 91.3401 63.2391 95.4628C64.2599 99.1536 65.4771 102.766 65.7127 106.574C65.9483 110.579 66.6158 114.584 67.7151 118.471C68.6182 121.73 69.8746 124.989 70.1102 128.366C70.3458 131.978 71.2488 135.472 72.309 138.927Z" fill="#140C15"/>
<path d="M20.7165 85.961C26.9594 78.8936 32.7704 69.0385 32.6919 59.4189C32.6919 57.4558 32.5741 55.414 31.6318 53.6865C30.6894 51.9589 28.5692 50.7417 26.7238 51.4092C23.9754 52.3908 21.8552 56.9061 20.4809 59.2619C18.4 62.8741 16.319 66.4864 14.238 70.0986C12.4712 73.1611 10.6651 76.263 9.95831 79.7182C9.52642 81.7991 9.48715 84.0371 10.3902 85.961C11.2933 87.885 13.2957 89.377 15.4159 89.2984C17.5362 89.2199 19.303 87.5709 20.7165 85.961Z" fill="#EFA294"/>
<path d="M69.207 81.7597C67.4009 80.5033 65.9874 78.1475 64.9665 76.4984C62.7678 72.8077 60.569 68.9991 58.2132 65.3869C55.2292 60.793 51.5777 55.3354 55.5826 50.1134C56.4856 48.9355 58.0169 47.9146 59.3911 48.425C59.9408 48.6214 60.3727 49.014 60.8046 49.4459C63.7101 52.3121 65.7125 55.7673 67.715 59.2618C69.7959 62.874 71.8769 66.4862 73.9579 70.0985C75.9211 73.5144 78.1198 80.0321 73.2119 82.2309C71.7591 82.9376 70.3849 82.5843 69.207 81.7597Z" fill="#EFA294"/>
<path d="M31.239 75.9881C32.2206 66.8789 33.9875 57.3379 33.7911 48.1503C33.7911 47.365 33.7126 46.4619 33.1629 45.873C32.6132 45.2448 31.6316 45.0877 30.8071 45.2448C24.0145 46.776 19.6955 54.668 16.4367 60.1649C14.0809 64.1305 11.7251 68.0961 9.95819 72.3758C9.80114 72.7685 9.64408 73.2004 9.68335 73.593C9.76188 74.1034 10.1545 74.5353 10.5079 74.8887C14.3557 78.5402 19.2636 81.0923 24.4857 82.1132C25.8206 82.388 27.2734 82.5058 28.4906 81.8776C30.493 80.8175 31.0034 78.2261 31.239 75.9881Z" fill="#9FB5CF"/>
<path d="M55.3074 75.9881C54.3259 66.8789 52.559 57.3379 52.7553 48.1503C52.7553 47.365 52.8338 46.4619 53.3835 45.873C53.9332 45.2448 54.9148 45.0877 55.7393 45.2448C62.5319 46.776 66.8509 54.668 70.1098 60.1649C72.4656 64.1305 74.8214 68.0961 76.5883 72.3758C76.7453 72.7685 76.9024 73.2004 76.8631 73.593C76.7846 74.1034 76.3919 74.5353 76.0386 74.8887C72.1908 78.5402 67.2828 81.0923 62.0608 82.1132C60.7258 82.388 59.2731 82.5058 58.0559 81.8776C56.0142 80.8175 55.543 78.2261 55.3074 75.9881Z" fill="#9FB5CF"/>
<path d="M26.9202 58.0839C26.7632 57.0631 26.9988 54.5502 25.9779 53.922C25.0749 53.3723 22.562 63.0311 22.0908 64.0912C20.6773 67.1538 18.1252 69.5881 16.2798 72.4544C15.259 74.0642 14.4737 75.7918 13.8848 77.6371C17.0651 79.8359 20.6774 81.3672 24.4859 82.1132C25.2712 82.2702 26.135 82.388 26.9595 82.3095C27.7055 80.5426 27.9018 78.5795 28.0589 76.6556C28.3337 72.6114 28.2552 68.528 27.8626 64.4839C27.627 62.3244 27.2344 60.2042 26.9202 58.0839Z" fill="#7799BA"/>
<path d="M59.9015 58.0839C60.0585 57.0631 59.8229 54.5502 60.8438 53.922C61.7468 53.3723 64.2597 63.0311 64.7309 64.0912C66.1443 67.1538 68.6965 69.5881 70.5419 72.4544C71.5627 74.0642 72.348 75.7918 72.9369 77.6371C69.7566 79.8359 66.1443 81.3672 62.3358 82.1132C61.5505 82.2702 60.6867 82.388 59.8622 82.3095C59.1162 80.5426 58.9199 78.5795 58.7628 76.6556C58.488 72.6114 58.5665 68.528 58.9591 64.4839C59.1947 62.3244 59.5481 60.2042 59.9015 58.0839Z" fill="#7799BA"/>
<path d="M62.3751 89.1806C62.3751 88.9843 62.3751 88.8273 62.3358 88.6309C61.8254 80.4641 62.6107 72.3758 62.6107 64.1698C62.4929 57.4557 63.4352 48.8963 56.6426 45.2055C55.7395 44.7343 54.8365 44.2632 53.8549 43.9883C52.5592 43.635 51.185 43.5957 49.85 43.5172C42.0366 43.2816 27.941 40.7687 25.1925 51.2128C24.5643 53.5686 24.6429 56.0422 24.6821 58.4766C24.7607 61.7747 24.8784 65.0336 24.957 68.3317C24.957 74.9672 25.4674 81.485 24.957 88.0812C24.8392 89.6518 24.9962 91.4186 26.1741 92.518C26.8416 93.1462 27.7839 93.4604 28.687 93.6959C37.8747 96.2481 47.6513 95.5806 57.1138 94.0886C59.0769 93.7745 61.3542 93.2248 62.1002 91.3794C62.4143 90.6726 62.4143 89.9266 62.3751 89.1806Z" fill="#9FB5CF"/>
<path d="M43.1748 53.49C43.1748 58.9477 43.2141 64.4053 43.2141 69.8629C43.2141 72.4936 43.1748 75.1242 43.2926 77.7156C43.4104 80.3855 43.8423 83.0162 43.9601 85.6861C44.1171 88.7094 43.9601 91.7327 43.4889 94.756C43.4104 95.2664 44.1564 95.4627 44.2349 94.9523C44.6276 92.3216 44.8239 89.691 44.7846 87.0211C44.7453 84.3512 44.3527 81.6812 44.1171 79.0113C43.9208 76.3414 43.9601 73.6715 43.9601 71.0016C43.9601 68.2531 43.9601 65.4654 43.9208 62.717C43.9208 59.6152 43.9208 56.5526 43.8815 53.4508C43.9601 52.9796 43.1748 52.9796 43.1748 53.49Z" fill="#7799BA"/>
<path d="M72.8195 133.313C70.1496 118.196 67.2833 103.119 63.3177 88.3168C63.2392 87.9634 63.1214 87.61 62.8858 87.3352C62.4539 86.8247 61.6686 86.7462 61.0012 86.7069C49.654 86.1573 38.3461 85.4113 27.0775 85.4113C26.2922 85.4505 25.4284 85.529 24.8395 86.0395C24.0542 86.7462 24.015 87.9241 24.015 88.9842C24.0935 103.708 21.1487 118.275 19.8923 132.959C19.853 133.627 19.7745 134.334 20.0493 134.962C20.4812 135.983 21.6591 136.493 22.7585 136.846C38.1498 141.833 55.0331 140.616 70.6207 136.375C71.4845 136.14 72.4268 135.826 72.7802 135.001C73.0158 134.373 72.898 133.823 72.8195 133.313Z" fill="#DFBC92"/>
<path d="M31.396 108.498C31.3174 107.752 30.8463 100.646 30.9248 100.646C39.4843 100.567 48.083 100.174 56.6817 100.174C57.0743 100.174 57.5062 100.174 57.781 100.449C58.0166 100.685 58.0559 101.077 58.0559 101.392C58.1344 103.276 58.2522 105.122 58.3307 107.006C58.4093 108.852 58.4878 110.854 57.4277 112.346C56.0534 114.388 53.2657 114.78 50.8314 114.977C46.8658 115.291 42.9394 115.409 38.9738 115.369C37.7174 115.369 36.461 115.33 35.3223 114.859C32.9272 113.877 31.7101 111.129 31.396 108.498Z" fill="#BC9264"/>
<path d="M51.0671 38.727C47.8868 38.0202 44.3531 37.1564 41.1335 37.9024C37.7961 38.6877 34.7728 39.473 32.417 42.2214C31.5925 43.1637 31.0428 44.3024 30.5323 45.441C29.6293 47.4434 28.9225 49.5244 28.4121 51.6446C31.0428 51.0164 33.7127 50.3882 36.3433 49.76C37.2071 49.5637 38.1887 49.3674 38.9347 49.8385C39.2488 50.0348 39.4844 50.3489 39.72 50.6238C40.9764 52.2336 42.1543 53.9219 43.2537 55.6495C45.1384 53.7649 47.0623 51.8802 48.9469 49.9956C49.1825 49.76 49.4573 49.5244 49.7714 49.4459C50.0463 49.3674 50.3604 49.4066 50.6352 49.4851C53.3052 49.9956 55.9751 50.6238 58.6057 51.2913C57.5456 48.268 56.4855 45.2447 55.4647 42.2607C55.2291 41.5932 54.9935 40.8864 54.5223 40.3368C53.6585 39.3552 52.3236 39.0018 51.0671 38.727Z" fill="#ACC5DC"/>
<path d="M49.6535 28.6755C49.6535 28.9111 38.699 28.2044 37.6781 28.1258C37.4033 28.0866 37.2462 34.9577 37.3247 35.7037C37.6388 38.2951 36.9714 41.1221 35.7935 43.3993C37.8352 46.5404 40.2302 49.4459 42.9001 52.1158C43.0965 52.3122 43.3713 52.5477 43.6854 52.5085C43.8817 52.4692 44.0388 52.3514 44.1958 52.2336C46.9836 49.7993 49.4179 46.9723 51.4203 43.8705C51.4989 43.7527 50.3209 41.1221 50.2424 40.7294C49.9676 39.4337 50.0068 38.2166 50.0461 36.8816C50.0854 34.1332 49.6927 31.3847 49.6535 28.6755Z" fill="#F6D1BA"/>
<path d="M52.3627 8.4549C54.051 10.4181 54.2866 14.3052 54.4436 16.818C54.64 20.5088 53.8547 24.1603 53.1087 27.7333C52.3234 31.3848 50.0461 35.1933 46.1198 36.2142C42.3112 37.1958 38.2671 34.8792 36.1076 31.6204C33.9481 28.3615 33.3199 24.3173 32.9665 20.4303C32.7702 18.1137 32.6131 15.7186 33.2806 13.4806C34.3015 9.90765 37.7959 6.17761 41.6437 6.05982C44.8633 5.9813 48.0044 5.78498 51.0277 7.35552C51.5381 7.66962 52.0093 8.023 52.3627 8.4549Z" fill="#F6D1BA"/>
<path d="M53.0393 15.4437C54.0602 15.2082 54.9632 14.7763 55.7092 14.1481C57.2012 12.8131 58.1043 11.007 57.9472 9.00453C57.908 8.57264 57.7509 7.98368 57.319 7.94442C57.0442 7.90515 56.8086 8.14074 56.5337 8.18C56.0233 8.25853 55.5914 7.86589 55.2773 7.51252C53.6283 5.66714 52.097 3.86102 49.8982 2.64385C45.1866 0.0524575 38.9044 -0.418705 34.6247 2.87943C33.6431 3.62543 32.8186 4.56776 32.426 5.74566C32.0333 6.92357 32.1904 8.29779 33.0149 9.20085C34.5069 10.8499 36.0775 9.39717 37.7265 9.16159C39.5327 8.92601 41.4958 9.63275 42.8308 10.8499C43.8516 11.7922 44.5584 13.0879 45.6578 13.991C47.4246 15.483 50.5264 16.072 53.0393 15.4437Z" fill="#B19677"/>
<path d="M36.5395 10.3788C36.5395 10.1825 36.5395 9.98617 36.5395 9.82912C36.5788 9.00458 36.6966 8.21931 36.9321 7.43404C37.0892 6.96288 37.2462 6.49172 37.1677 6.02056C36.8143 3.35064 33.1628 6.45245 32.3776 7.35551C30.2573 9.75059 30.807 13.834 31.2782 16.7788C31.5138 18.31 31.7493 19.802 31.9849 21.3333C32.1812 22.7468 33.1628 26.4376 34.0266 23.218C34.5763 21.137 34.2622 18.7812 34.5371 16.661C34.7726 14.7763 36.3039 14.0696 36.5395 12.2635C36.5788 11.596 36.5395 11.007 36.5395 10.3788Z" fill="#B19677"/>
<path d="M56.0143 7.94448C55.6217 6.76657 52.1665 4.01813 51.2634 5.74572C51.0671 6.09909 51.0671 6.49173 51.0278 6.92363C50.9886 8.72975 51.1456 10.5359 51.5383 12.2635C51.9701 14.1481 53.2266 14.9334 53.2266 16.9358C53.2266 17.8781 52.4806 23.1787 53.0695 23.6891C53.3444 23.9247 53.8155 23.8069 54.0511 23.5321C54.2867 23.2572 54.4045 22.9039 54.483 22.5505C55.5431 18.31 56.1321 13.9518 56.1321 9.55428C56.2106 9.0046 56.2106 8.4549 56.0143 7.94448Z" fill="#B19677"/>
<path d="M40.78 14.0303C40.5051 14.0696 37.0107 14.5407 37.0107 14.4622C36.8536 13.9518 37.5996 13.4413 37.9922 13.2058C38.4241 12.9309 38.9346 12.8131 39.445 12.6953C39.6806 12.6561 39.8769 12.5775 40.1125 12.5383C40.5444 12.4205 41.0155 12.3027 41.4082 12.4205C41.8401 12.5383 42.1934 12.9702 42.0756 13.4021C41.9186 13.8732 41.2904 13.991 40.78 14.0303Z" fill="#140C15"/>
<path d="M47.8865 14.1088C48.1613 14.1481 51.6558 14.6192 51.6558 14.5407C51.8128 14.0303 51.0668 13.5198 50.6742 13.2843C50.2423 13.0094 49.7319 12.8916 49.2214 12.7738C48.9859 12.7346 48.7895 12.656 48.554 12.6168C48.1221 12.499 47.6509 12.3812 47.2583 12.499C46.8264 12.6168 46.473 13.0487 46.5908 13.4806C46.7871 13.9517 47.3761 14.0695 47.8865 14.1088Z" fill="#140C15"/>
<path d="M50.007 37.7847C50.007 37.4314 50.007 37.078 50.0463 36.6854C50.1248 33.9762 49.7322 31.2277 49.6536 28.5185C49.6536 28.7541 38.6991 28.0474 37.6783 27.9689C37.4034 27.9296 37.2464 34.8007 37.3249 35.5467C37.3249 35.6645 37.3642 35.7823 37.3642 35.9001C37.5605 36.1749 37.7175 36.4498 37.9139 36.6854C39.3273 38.5307 41.369 40.0228 43.6856 40.2583C46.0021 40.4939 48.2794 39.3945 50.007 37.7847Z" fill="#EFA294"/>
<path d="M53.0695 26.7346C53.3051 25.5097 53.5407 24.3285 53.737 23.1036C50.6352 22.0975 47.769 20.9163 44.3923 20.8726C40.8586 20.8289 37.3641 21.7038 34.0267 22.9724C33.8304 23.0599 33.6341 23.1474 33.4771 23.3224C33.9482 26.0784 34.6942 28.7906 36.0684 31.1092C38.2279 34.7401 42.2721 37.3211 46.0806 36.2274C50.0462 35.0463 52.2843 30.8029 53.0695 26.7346Z" fill="#34699C"/>
<path d="M64.4558 92.7143C64.1024 91.2615 63.7098 89.7695 63.3171 88.3168C63.2386 87.9634 63.1208 87.61 62.8852 87.3352C62.4533 86.8247 61.6681 86.7462 61.0006 86.7069C49.6534 86.1573 38.3455 85.4113 27.0769 85.4113C26.2916 85.4505 25.4278 85.529 24.8389 86.0395C24.0536 86.7462 24.0144 87.9241 24.0144 88.9842C24.0144 90.2407 24.0144 91.5364 23.9751 92.7928C37.4817 92.9891 50.9884 92.9498 64.4558 92.7143Z" fill="#BC9264"/>
<path d="M20.2842 68.0961V86.4322C20.2842 88.0027 21.5406 89.2592 23.1112 89.2592H64.2593C65.8298 89.2592 67.0863 88.0027 67.0863 86.4322V68.0961C67.0863 66.5256 65.8298 65.2692 64.2593 65.2692H23.1112C21.5406 65.3084 20.2842 66.5649 20.2842 68.0961Z" fill="#EF4136"/>
<path d="M40.095 74.0914C40.0592 74.2149 39.946 74.2999 39.8174 74.2999C39.6899 74.2999 39.5774 74.2164 39.5406 74.0943L38.8566 71.8263C38.8173 71.7085 38.7781 71.5907 38.7388 71.3944C38.7308 71.3625 38.6081 71.3667 38.6008 71.3988C38.5704 71.5337 38.5293 71.674 38.464 71.8263L37.816 74.0942C37.7812 74.216 37.67 74.2999 37.5433 74.2999C37.4148 74.2999 37.3023 74.2134 37.2693 74.0892L36.4197 70.8946C36.3813 70.7504 36.49 70.6091 36.6391 70.6091C36.7426 70.6091 36.833 70.6791 36.8589 70.7793L37.4039 72.8864C37.44 73.0309 37.7454 73.028 37.7858 72.8847C37.7894 72.8721 37.7929 72.8596 37.7965 72.8471L38.3963 70.8362C38.4364 70.7015 38.5603 70.6091 38.7009 70.6091C38.8402 70.6091 38.9633 70.6998 39.0046 70.8328L39.6419 72.8864C39.6454 72.8986 39.6488 72.9107 39.6523 72.9229C39.6915 73.0604 39.9843 73.0596 40.0345 72.9257L40.5801 70.8161C40.6056 70.7174 40.6947 70.6484 40.7967 70.6484C40.9457 70.6484 41.0531 70.7914 41.0116 70.9345L40.095 74.0914Z" fill="white"/>
<path d="M42.7041 74.3784C42.3115 74.3784 41.9581 74.2606 41.7225 73.9858C41.4869 73.7502 41.3691 73.3969 41.3691 72.965C41.3691 72.5331 41.4869 72.1797 41.6832 71.9048C41.9188 71.63 42.1937 71.5122 42.5863 71.5122C42.9397 71.5122 43.2145 71.63 43.4108 71.8656C43.6072 72.1012 43.725 72.376 43.725 72.7686C43.725 72.9204 43.6019 73.0435 43.4501 73.0435H42.6417C42.1991 73.0435 41.7629 73.4765 42.0759 73.7895C42.2329 73.9465 42.4685 74.0251 42.7434 74.0251C42.9683 74.0251 43.1731 73.9848 43.3867 73.9187C43.5137 73.8793 43.6464 73.9706 43.6464 74.1036C43.6464 74.1758 43.606 74.2426 43.5398 74.2714C43.4722 74.3007 43.4092 74.3234 43.3425 74.3435C43.2591 74.3687 43.1703 74.364 43.0832 74.3614C42.9675 74.3579 42.8461 74.3784 42.7041 74.3784ZM42.5863 71.8656C42.3638 71.8656 42.2113 71.9357 42.0627 72.0758C42.0451 72.0924 42.0308 72.1085 42.0169 72.1283C41.8353 72.3872 42.0889 72.6901 42.4051 72.6901H42.7255C43.0173 72.6901 43.2837 72.4056 43.114 72.1682C43.0724 72.11 43.0484 72.0635 43.0051 72.0066C42.9174 71.8915 42.7778 71.8656 42.5863 71.8656Z" fill="white"/>
<path d="M44.7621 70.6092C44.7771 70.6092 44.7915 70.6152 44.8021 70.6258C44.8162 70.6398 44.8219 70.6603 44.8167 70.6795C44.7754 70.8311 44.7019 71.0171 44.6285 71.2374C44.5611 71.4396 44.4937 71.6129 44.4015 71.782C44.3729 71.8345 44.3171 71.8656 44.2574 71.8656C44.1467 71.8656 44.0655 71.7616 44.0906 71.6539C44.1522 71.3894 44.2028 71.1399 44.2498 70.9131C44.2866 70.7353 44.4436 70.6092 44.6251 70.6092H44.7621Z" fill="white"/>
<path d="M47.9266 71.5122C47.988 71.5122 48.0495 71.5122 48.1054 71.5178C48.1894 71.5262 48.2351 71.607 48.2267 71.6909C48.2137 71.8207 48.0816 71.9069 47.9512 71.9051C47.931 71.9048 47.9098 71.9048 47.8873 71.9048C47.6517 71.9048 47.4554 71.9834 47.2983 72.1797C47.1413 72.376 47.0628 72.5723 47.0628 72.8472V74.1232C47.0628 74.2425 46.9661 74.3392 46.8468 74.3392C46.7275 74.3392 46.6309 74.2425 46.6309 74.1232V71.7349C46.6309 71.6336 46.713 71.5515 46.8143 71.5515C46.9102 71.5515 46.9899 71.6253 46.9973 71.7209L47.0216 72.0376C47.0227 72.0513 47.0341 72.0619 47.0479 72.0619C47.0571 72.0619 47.0657 72.057 47.0705 72.0491C47.1509 71.9173 47.2314 71.8214 47.3118 71.7363C47.3793 71.6649 47.4626 71.6094 47.5559 71.5787C47.6906 71.5344 47.8086 71.5122 47.9266 71.5122Z" fill="white"/>
<path d="M49.9678 74.3784C49.5751 74.3784 49.2218 74.2606 48.9862 73.9858C48.7506 73.7502 48.6328 73.3969 48.6328 72.965C48.6328 72.5331 48.7506 72.1797 48.9469 71.9048C49.1825 71.63 49.4573 71.5122 49.85 71.5122C50.2033 71.5122 50.4782 71.63 50.6745 71.8656C50.8708 72.1012 50.9886 72.376 50.9886 72.7686C50.9886 72.9204 50.8656 73.0435 50.7138 73.0435H49.8661C49.4235 73.0435 48.9873 73.4765 49.3003 73.7895C49.4573 73.9465 49.6929 74.0251 49.9678 74.0251C50.1927 74.0251 50.3976 73.9848 50.6111 73.9187C50.7381 73.8793 50.8708 73.9706 50.8708 74.1036C50.8708 74.1758 50.8304 74.2426 50.7642 74.2714C50.6966 74.3007 50.6336 74.3234 50.5669 74.3435C50.4835 74.3687 50.3947 74.3639 50.3076 74.3614C50.1943 74.358 50.0811 74.3784 49.9678 74.3784ZM49.85 71.8656C49.6274 71.8656 49.475 71.9357 49.3264 72.0758C49.3088 72.0924 49.2945 72.1085 49.2806 72.1283C49.099 72.3872 49.3526 72.6901 49.6688 72.6901H49.9892C50.2809 72.6901 50.5473 72.4056 50.3777 72.1682C50.3361 72.11 50.3121 72.0631 50.2665 72.008C50.1703 71.8917 50.0102 71.8656 49.85 71.8656Z" fill="white"/>
<path d="M37.7178 80.2679C37.7178 81.4458 37.4429 82.3488 36.854 82.977C36.265 83.6052 35.4405 83.9586 34.3804 83.9586C33.281 83.9586 32.4565 83.6445 31.9068 82.977C31.3178 82.3488 31.043 81.4065 31.043 80.2286C31.043 79.0507 31.3178 78.1476 31.9068 77.5194C32.4957 76.8912 33.3203 76.5771 34.4196 76.5771C35.4797 76.5771 36.3043 76.8912 36.8932 77.5587C37.4429 78.1869 37.7178 79.0899 37.7178 80.2679ZM32.2601 80.2679C32.2601 81.1317 32.4565 81.7991 32.8098 82.2703C33.1632 82.7415 33.6736 82.9378 34.3804 82.9378C35.0871 82.9378 35.5975 82.7022 35.9509 82.2703C36.3043 81.8384 36.5006 81.1317 36.5006 80.2679C36.5006 79.4041 36.3435 78.7366 35.9902 78.2654C35.6368 77.7943 35.1264 77.5979 34.4196 77.5979C33.7129 77.5979 33.2025 77.8335 32.8491 78.2654C32.4172 78.7366 32.2601 79.3648 32.2601 80.2679Z" fill="white"/>
<path d="M43.9999 78.8544C43.9999 79.6004 43.7643 80.1894 43.2539 80.582C42.7827 80.9747 42.076 81.171 41.1729 81.171C40.7609 81.171 40.4269 81.505 40.4269 81.917V83.2519C40.4269 83.5772 40.1632 83.8409 39.838 83.8409C39.5127 83.8409 39.249 83.5772 39.249 83.2519V78.7759C39.249 77.6266 40.1807 76.6949 41.33 76.6949C42.2331 76.6949 42.9005 76.8913 43.3324 77.2446C43.7643 77.598 43.9999 78.1477 43.9999 78.8544ZM40.4269 79.5612C40.4269 79.9081 40.7082 80.1894 41.0551 80.1894C41.6441 80.1894 42.1153 80.0716 42.3901 79.8753C42.6649 79.679 42.822 79.3256 42.822 78.8937C42.822 78.5011 42.7042 78.187 42.4294 77.9906C42.1938 77.7943 41.8012 77.6765 41.2515 77.6765C40.7961 77.6765 40.4269 78.0457 40.4269 78.5011V79.5612Z" fill="white"/>
<path d="M49.4577 83.3501C49.4577 83.6212 49.238 83.8409 48.9669 83.8409H47.4356C46.3189 83.8409 45.4136 82.9356 45.4136 81.8188V78.717C45.4136 77.6003 46.3189 76.6949 47.4356 76.6949H48.9669C49.238 76.6949 49.4577 76.9147 49.4577 77.1857C49.4577 77.4568 49.238 77.6765 48.9669 77.6765H47.5731C47.0309 77.6765 46.5915 78.116 46.5915 78.6581C46.5915 79.2002 47.0309 79.6397 47.5731 79.6397H48.8099C49.0809 79.6397 49.3007 79.8594 49.3007 80.1305C49.3007 80.4016 49.0809 80.6213 48.8099 80.6213H47.7105C47.0925 80.6213 46.5915 81.1223 46.5915 81.7403C46.5915 82.3583 47.0925 82.8593 47.7105 82.8593H48.9669C49.238 82.8593 49.4577 83.079 49.4577 83.3501Z" fill="white"/>
<path d="M56.9964 83.8409C56.0931 83.8409 55.2539 83.3741 54.7775 82.6066L52.0167 78.1587C52.0125 78.1518 52.005 78.1477 51.997 78.1477C51.983 78.1477 51.9722 78.1599 51.9739 78.1738L52.0099 78.4618C52.0492 79.0508 52.0884 79.6397 52.0884 80.1109V83.3108C52.0884 83.6036 51.8511 83.8409 51.5584 83.8409C51.2656 83.8409 51.0283 83.6036 51.0283 83.3108V77.6013C51.0283 77.1007 51.4341 76.6949 51.9347 76.6949C52.2498 76.6949 52.5423 76.8586 52.7071 77.1272L55.9289 82.3761C55.9335 82.3836 55.9416 82.3881 55.9503 82.3881C55.9643 82.3881 55.9755 82.377 55.9755 82.3631C55.9752 82.2601 55.9721 81.9936 55.9363 81.5636C55.9363 81.0925 55.897 80.7391 55.897 80.4642V77.225C55.897 76.9323 56.1343 76.6949 56.4271 76.6949C56.7198 76.6949 56.9571 76.9323 56.9571 77.225V83.8016C56.9571 83.8233 56.9747 83.8409 56.9964 83.8409Z" fill="white"/>
<path d="M76.3529 48.1109C76.4314 48.0717 76.5492 48.0324 76.6277 48.0324C77.9627 47.6005 79.2584 47.1686 80.5933 46.7367C81.0645 46.5797 81.6142 46.4619 81.9675 46.8152C82.1639 47.0116 82.2031 47.2864 82.2031 47.5613C82.1639 48.3465 81.732 49.0533 81.1037 49.4852C84.716 48.3073 88.4067 47.4435 92.2153 47.2079C92.7257 47.1686 93.3932 47.2079 93.6288 47.679C93.8251 48.0717 93.6288 48.5821 93.3147 48.8962C93.0006 49.2103 92.6079 49.4066 92.2938 49.7207C91.7834 50.1919 91.5086 50.8201 91.1552 51.4091C89.5454 53.9612 86.4436 54.825 83.7737 55.8458C80.3577 57.1808 78.6694 58.5158 78.1982 62.3243C77.57 67.5856 77.8449 74.0248 76.1173 79.0506C75.5283 80.6996 74.2719 82.2702 72.5836 82.5843C70.856 82.8984 69.0891 81.8775 68.1468 80.3855C67.2045 78.8935 67.0081 77.0874 67.1259 75.3205C67.4008 71.3942 69.0106 67.2715 70.1492 63.5022C70.6989 61.6568 71.2879 59.7722 71.3271 57.809C71.3271 56.1207 70.856 54.7857 71.2486 53.0974C71.6412 51.3698 73.1725 49.603 74.7431 48.7784C75.2535 48.5036 75.8032 48.3073 76.3529 48.1109Z" fill="#F6D1BA"/>
<path d="M23.7789 81.642C24.0538 79.6003 23.4648 76.9304 22.601 75.0457C22.5225 74.8494 22.444 74.6531 22.2477 74.5353C21.9336 74.2997 21.5017 74.4175 21.1483 74.496C18.4391 75.3206 15.8477 76.4985 13.4134 78.0297C13.06 78.2653 12.7066 78.4616 12.4711 78.815C11.6465 79.9144 11.9999 82.7021 12.4318 83.9193C12.8244 85.1364 13.4134 86.3536 14.3164 87.2567C15.2195 88.1597 16.5152 88.7487 17.8109 88.6309C18.9103 88.5131 19.8526 87.9241 20.6771 87.2174C22.3262 85.8039 23.4648 83.8015 23.7789 81.642Z" fill="#18558F"/>
<path d="M92.1762 47.1686C88.3676 47.4435 84.6768 48.3073 81.0646 49.4459C81.6928 49.014 82.1247 48.3073 82.164 47.522C82.164 47.2471 82.1247 46.9723 81.9284 46.776C81.575 46.4226 81.0253 46.5797 80.5542 46.6974C79.2192 47.1293 77.9235 47.5612 76.5885 47.9931C76.51 48.0324 76.3922 48.0717 76.3137 48.0717C75.764 48.268 75.2143 48.4643 74.7039 48.6999C73.1334 49.4852 71.6021 51.252 71.2094 53.0189C70.8168 54.7072 71.3272 56.0422 71.288 57.7305C71.288 58.9477 71.0524 60.1256 70.7383 61.3035C72.0732 61.9317 73.5653 62.2458 75.0573 62.4814C76.0389 62.6384 77.0597 62.7955 78.0805 62.874C78.1198 62.6384 78.1198 62.4421 78.1591 62.2065C78.591 58.398 80.3186 57.063 83.7345 55.7281C86.4044 54.7072 89.5062 53.8434 91.116 51.2913C91.4694 50.7023 91.7442 50.0741 92.2547 49.6029C92.5688 49.2888 93.0007 49.0925 93.2755 48.7784C93.5896 48.4643 93.7859 47.9539 93.5896 47.5612C93.354 47.1686 92.7258 47.1686 92.1762 47.1686Z" fill="#34699C"/>
<path d="M81.7711 48.6214C79.4152 49.5245 77.1772 50.7024 75.057 52.0374C74.6251 52.3122 75.0177 52.9797 75.4496 52.7048C77.5306 51.4092 79.6901 50.2312 81.9674 49.3674C82.4385 49.2104 82.2422 48.4251 81.7711 48.6214Z" fill="white"/>
<path d="M20.0882 83.88C18.6354 84.3511 17.1827 84.5082 16.044 83.0554C15.4551 82.2702 15.1802 81.2886 14.9839 80.307C14.6698 78.8543 14.4735 77.4408 14.2379 75.988C14.1201 75.2027 14.0023 74.3782 14.3557 73.6715C14.5913 73.2003 14.9839 72.8469 15.3765 72.5328C16.79 71.3157 18.3606 70.02 20.2452 70.0985C22.6403 70.2163 25.0746 70.4126 27.4304 70.8445C28.2157 71.0016 29.158 71.2764 29.3544 72.0617C29.3936 72.258 29.3936 72.4543 29.2758 72.6114C29.158 72.7291 28.9617 72.7684 28.8047 72.8077C26.5274 73.0433 24.2501 73.1218 21.9728 73.0433C24.1716 73.2396 26.4096 73.4359 28.4906 74.2212C29.158 74.4567 29.904 75.0064 29.747 75.6739C29.6292 76.3021 28.8439 76.5377 28.2157 76.6555C26.174 76.9696 24.093 77.0089 22.0513 76.7733C23.7789 76.7733 25.5458 77.1659 27.1163 77.8727C27.3912 77.9905 27.7053 78.1868 27.7053 78.5009C27.7053 78.8542 27.3519 79.0506 27.0378 79.1684C26.2133 79.4825 25.3887 79.4825 24.5642 79.9144C24.9176 80.6211 24.6035 81.4849 24.0538 82.0346C23.5041 82.5843 22.7581 82.8984 22.0513 83.1732C21.3839 83.3695 20.7556 83.6444 20.0882 83.88Z" fill="#34699C"/>
<path d="M38.542 18.5455C38.5812 18.3885 38.6598 18.1921 38.699 18.0351C38.699 17.9958 38.7775 17.9173 38.7775 17.8388C38.7775 17.7995 38.8168 17.7602 38.8168 17.7602C38.8168 17.7602 38.8953 17.6817 38.8561 17.721C38.9739 17.6032 39.0131 17.5247 39.1702 17.4854C39.1309 17.5247 39.2094 17.4854 39.2094 17.4854C39.2094 17.4854 39.3272 17.4461 39.288 17.4461C39.2487 17.4461 39.3665 17.4461 39.3665 17.4461C39.3665 17.4461 39.4843 17.4461 39.4058 17.4461C39.6806 17.4854 39.8769 17.6424 40.034 17.8388C40.2303 18.1136 40.3481 18.3885 40.4659 18.7026C40.5444 18.8989 40.7407 19.0559 40.937 18.9774C41.1334 18.9381 41.2904 18.7026 41.2119 18.5062C41.0548 18.0743 40.8978 17.6817 40.5837 17.2891C40.3088 16.9357 39.9162 16.7001 39.445 16.6609C39.0131 16.6216 38.5812 16.8179 38.3064 17.132C37.9923 17.4854 37.8352 17.9173 37.7174 18.3492C37.6389 18.5455 37.796 18.7811 37.9923 18.8204C38.2671 18.8596 38.5027 18.7418 38.542 18.5455Z" fill="#140C15"/>
<path d="M50.8711 18.3493C50.7533 17.9174 50.5962 17.4855 50.2821 17.1321C50.0073 16.818 49.5754 16.5824 49.1435 16.661C48.7116 16.7002 48.3189 16.9358 48.0048 17.2892C47.73 17.6426 47.5337 18.0745 47.3766 18.5064C47.2981 18.7027 47.4551 18.9383 47.6515 18.9775C47.887 19.056 48.0441 18.899 48.1226 18.7027C48.2404 18.3886 48.3582 18.1137 48.5545 17.8389C48.7116 17.6426 48.9079 17.4855 49.1827 17.4462C49.1435 17.4462 49.1827 17.4462 49.222 17.4462C49.2613 17.4462 49.3005 17.4462 49.3398 17.4462C49.2613 17.4462 49.379 17.4462 49.379 17.4462C49.379 17.4462 49.4968 17.4855 49.4576 17.4855C49.5754 17.564 49.6539 17.6033 49.7717 17.7211C49.7324 17.6818 49.7717 17.7603 49.8109 17.7603C49.8502 17.7996 49.8502 17.8389 49.8502 17.8389C49.8895 17.9174 49.9287 17.9959 49.968 18.0352C50.0465 18.1922 50.0858 18.3886 50.1251 18.5456C50.2036 18.7419 50.3999 18.8597 50.5962 18.8205C50.8318 18.7419 50.9496 18.5456 50.8711 18.3493Z" fill="#140C15"/>
<path d="M72.937 174.814C73.1333 176.581 73.5259 178.269 74.1541 179.919C74.7038 181.332 75.332 183.138 76.6277 184.08C77.2952 184.552 78.0805 184.748 78.8658 184.905C79.8081 185.101 80.7504 185.298 81.6927 185.494C83.6166 185.887 85.5406 186.319 87.4645 186.711C87.9749 186.829 88.1712 186.044 87.6608 185.965C85.8939 185.612 84.1271 185.219 82.3602 184.866C81.4572 184.669 80.5934 184.512 79.6903 184.316C78.9443 184.159 78.1198 184.041 77.413 183.688C76.7455 183.334 76.3136 182.706 75.921 182.039C75.5284 181.293 75.175 180.508 74.8609 179.722C74.2719 178.152 73.8793 176.503 73.683 174.814C73.683 174.343 72.8977 174.343 72.937 174.814Z" fill="#140C15"/>
<path d="M93.3928 190.52C93.707 190.48 94.0211 190.441 94.1781 190.206C94.2959 190.049 94.2959 189.813 94.2567 189.617C94.2567 189.342 94.1781 189.106 94.1389 188.871C84.9512 188.635 75.7243 188.674 66.5366 189.028C66.7722 189.617 67.1648 190.127 67.7538 190.363C68.1072 190.52 68.4605 190.559 68.8139 190.559C68.971 190.559 69.1673 190.559 69.3243 190.559C77.3733 190.52 85.4224 191.226 93.3928 190.52Z" fill="#140C15"/>
<path d="M86.7969 189.577C87.1895 187.732 88.1711 186.122 89.5454 184.866C89.938 184.512 89.349 183.963 88.9957 184.316C87.5037 185.651 86.4435 187.418 86.0116 189.381C85.9331 189.852 86.6791 190.088 86.7969 189.577Z" fill="#140C15"/>
<path d="M25.7031 177.366C25.3497 179.016 25.0356 180.625 24.6822 182.274C24.5252 183.06 24.3681 183.884 24.211 184.669C24.0933 185.258 23.8577 185.965 24.211 186.554C24.5252 187.065 25.2319 187.222 25.7816 187.339C26.4883 187.457 27.1951 187.496 27.9018 187.379C28.2552 187.339 28.6086 187.261 28.9227 187.182C29.1975 187.104 29.6294 187.025 29.8257 186.79C30.022 186.554 29.9828 186.083 30.022 185.808C30.0613 185.376 30.1398 184.944 30.1791 184.512C30.4539 182.588 30.6895 180.704 30.9644 178.78C31.0429 178.269 30.2576 178.269 30.1791 178.78C29.8257 181.371 29.4724 183.923 29.1582 186.515C29.2368 186.397 29.3546 186.279 29.4331 186.122C28.4515 186.515 27.4307 186.711 26.3705 186.593C25.9779 186.554 25.0356 186.476 24.8393 186.044C24.6822 185.612 24.9571 184.866 25.0356 184.434C25.4675 182.157 25.9386 179.84 26.4098 177.563C26.5669 177.092 25.8209 176.895 25.7031 177.366Z" fill="#140C15"/>
<path d="M18.4783 189.46C20.5592 187.614 23.3862 186.672 26.1347 186.829C29.2365 187.025 31.8279 188.753 34.1444 190.716C34.537 191.03 35.0867 190.48 34.6941 190.166C32.2205 188.085 29.4721 186.24 26.1347 186.044C23.1506 185.847 20.1273 186.907 17.8893 188.91C17.536 189.224 18.0856 189.813 18.4783 189.46Z" fill="#140C15"/>
<path d="M32.4957 191.541C32.9276 191.501 33.3987 191.344 33.7914 191.148C34.2625 190.873 34.6552 190.52 34.8515 190.009V189.97C29.1583 190.206 23.3865 190.48 17.8896 189.106C17.8896 189.342 17.9289 189.577 18.0467 189.813C18.2823 190.284 18.832 190.52 19.3424 190.716C23.308 192.13 28.4515 191.933 32.4957 191.541Z" fill="#140C15"/>
<path d="M58.0563 101.431C58.0563 101.077 58.0171 100.724 57.7815 100.488C57.5066 100.214 57.0747 100.214 56.6821 100.214C48.0834 100.214 39.4847 100.606 30.9253 100.685C30.886 100.685 30.9645 101.627 31.0038 102.844C40.0344 102.687 49.065 102.569 58.0956 102.412C58.0956 102.059 58.0956 101.745 58.0563 101.431Z" fill="#4F3D3B"/>
<path d="M162.889 191.305C162.065 191.423 161.24 191.54 160.377 191.658C157.667 177.445 155.037 163.192 152.485 148.94C152.327 148.115 152.21 147.173 152.681 146.427C153.662 144.895 156.254 145.956 156.921 147.683C158.374 151.492 162.261 191.383 162.889 191.305Z" fill="#F4C06B"/>
<path d="M137.839 191.697C137.015 191.737 136.151 191.776 135.326 191.815C133.991 177.406 132.735 162.957 131.557 148.547C131.479 147.683 131.439 146.741 131.989 146.073C133.128 144.66 135.601 145.956 136.072 147.722C137.172 151.649 137.211 191.737 137.839 191.697Z" fill="#140C15"/>
<path d="M101.521 191.305C102.345 191.423 103.17 191.54 104.033 191.658C106.743 177.445 109.373 163.192 111.925 148.94C112.082 148.115 112.2 147.173 111.729 146.427C110.747 144.895 108.156 145.956 107.489 147.683C106.036 151.492 102.149 191.383 101.521 191.305Z" fill="#F4C06B"/>
<path d="M126.571 191.697C127.395 191.737 128.259 191.776 129.084 191.815C130.419 177.406 131.675 162.957 132.853 148.547C132.931 147.683 132.971 146.741 132.421 146.073C131.282 144.66 128.809 145.956 128.338 147.722C127.278 151.649 127.199 191.737 126.571 191.697Z" fill="#F4C06B"/>
<path d="M116.951 149.803C113.025 149.764 109.02 149.646 105.486 147.997C100.068 145.445 99.95 139.791 99.1647 134.648C98.0653 127.777 97.3586 120.866 96.9659 113.917C96.7696 110.265 96.6126 106.614 96.534 102.962C96.4555 99.5461 96.6518 95.5412 99.4003 93.4602C101.206 92.086 103.68 91.929 105.957 91.8897C109.138 91.8112 112.318 91.6934 115.498 91.6149C120.249 91.4971 125.196 91.3793 129.515 93.3817C136.072 96.4443 136.19 102.844 137.132 109.087C138.389 117.175 139.959 125.264 141.844 133.234C144.082 142.854 153.859 143.05 161.908 145.798C162.654 146.073 163.439 146.348 163.949 146.937C164.499 147.526 164.695 148.468 164.224 149.097C163.753 149.725 162.85 149.764 162.065 149.803C147.184 149.921 132.342 149.764 117.461 149.764C117.226 149.803 117.108 149.803 116.951 149.803Z" fill="#EF4136"/>
<path d="M102.227 92.0859C99.9107 92.989 99.361 95.5411 99.4788 97.7792C99.6358 100.528 100.068 103.315 100.539 106.024C101.481 111.6 102.816 117.058 103.994 122.554C105.133 127.855 105.839 133.352 107.999 138.378C108.745 140.144 109.884 141.558 111.611 142.461C113.653 143.482 116.009 143.992 118.247 144.463C121.27 145.052 124.333 145.367 127.395 145.877C128.926 146.113 130.418 146.387 131.91 146.78C133.128 147.094 135.091 147.762 134.816 149.411C134.737 149.921 135.483 150.117 135.562 149.607C135.955 146.898 132.813 146.152 130.85 145.72C128.22 145.131 125.51 144.817 122.841 144.424C120.171 144.032 117.461 143.6 114.87 142.854C113.142 142.343 111.336 141.754 110.08 140.38C109.334 139.556 108.902 138.574 108.47 137.553C107.96 136.297 107.528 135.04 107.174 133.705C106.468 131.153 105.997 128.522 105.486 125.931C104.426 120.552 103.091 115.212 102.031 109.794C101.403 106.731 100.892 103.629 100.5 100.528C100.225 98.1325 99.4788 94.0099 102.384 92.8712C102.934 92.6749 102.698 91.9289 102.227 92.0859Z" fill="#140C15"/>
<path d="M197.599 191.305C198.423 191.423 199.248 191.54 200.111 191.658C202.821 177.445 205.451 163.192 208.003 148.94C208.161 148.115 208.278 147.173 207.807 146.427C206.826 144.895 204.234 145.955 203.567 147.683C202.114 151.492 198.227 191.383 197.599 191.305Z" fill="#F4C06B"/>
<path d="M222.688 191.697C223.513 191.737 224.376 191.776 225.201 191.815C226.536 177.406 227.792 162.957 228.97 148.547C229.049 147.683 229.088 146.741 228.538 146.073C227.4 144.66 224.926 145.955 224.455 147.722C223.355 151.649 223.277 191.737 222.688 191.697Z" fill="#140C15"/>
<path d="M258.968 191.305C258.143 191.423 257.318 191.54 256.455 191.658C253.745 177.445 251.115 163.192 248.563 148.94C248.406 148.115 248.288 147.173 248.759 146.427C249.741 144.895 252.332 145.955 252.999 147.683C254.452 151.492 258.339 191.383 258.968 191.305Z" fill="#F4C06B"/>
<path d="M233.917 191.697C233.092 191.737 232.229 191.776 231.404 191.815C230.069 177.406 228.813 162.957 227.635 148.547C227.556 147.683 227.517 146.741 228.067 146.073C229.205 144.66 231.679 145.955 232.15 147.722C233.249 151.649 233.289 191.737 233.917 191.697Z" fill="#F4C06B"/>
<path d="M243.537 149.803C247.463 149.764 251.468 149.646 255.002 147.997C260.42 145.445 260.538 139.791 261.323 134.648C262.422 127.776 263.129 120.866 263.522 113.916C263.718 110.265 263.875 106.613 263.954 102.962C264.032 99.546 263.836 95.5411 261.088 93.4602C259.281 92.086 256.808 91.9289 254.53 91.8896C251.35 91.8111 248.17 91.6933 244.989 91.6148C240.239 91.497 235.291 91.3792 230.972 93.3816C224.415 96.4442 224.298 102.844 223.355 109.087C222.099 117.175 220.528 125.264 218.644 133.234C216.406 142.854 206.629 143.05 198.58 145.798C197.834 146.073 197.049 146.348 196.538 146.937C196.028 147.526 195.792 148.468 196.263 149.097C196.735 149.725 197.638 149.764 198.423 149.803C213.304 149.921 228.145 149.764 243.026 149.764C243.262 149.803 243.419 149.803 243.537 149.803Z" fill="#EF4136"/>
<path d="M258.064 92.8711C260.695 93.892 260.302 97.3865 260.067 99.6245C259.792 102.373 259.36 105.082 258.849 107.791C257.829 113.21 256.533 118.549 255.394 123.968C254.845 126.638 254.373 129.347 253.745 132.017C253.431 133.313 253.078 134.569 252.646 135.825C252.253 137.003 251.821 138.22 251.193 139.32C250.251 140.93 248.798 141.872 247.07 142.461C244.675 143.285 242.162 143.796 239.65 144.189C236.626 144.66 233.524 145.013 230.54 145.602C228.42 146.034 224.455 146.662 224.926 149.685C225.004 150.196 225.75 149.96 225.672 149.489C225.475 148.076 227.007 147.33 228.106 146.976C229.402 146.623 230.697 146.348 232.032 146.112C234.781 145.641 237.569 145.327 240.356 144.856C242.869 144.463 245.382 143.953 247.738 143.05C249.426 142.422 250.879 141.44 251.821 139.87C252.449 138.849 252.881 137.671 253.274 136.532C253.706 135.276 254.099 133.98 254.413 132.684C255.08 130.014 255.512 127.266 256.101 124.596C257.24 119.099 258.575 113.602 259.635 108.066C260.184 105.043 260.656 102.02 260.97 98.957C261.205 96.4441 261.087 93.2638 258.3 92.1644C257.789 91.9288 257.593 92.6748 258.064 92.8711Z" fill="#140C15"/>
<path d="M228.773 122.24C230.069 131.114 231.364 140.027 232.66 148.9C233.956 157.774 235.252 166.687 236.547 175.56C237.293 180.586 238 185.572 238.746 190.598C238.785 190.991 238.668 191.383 238.236 191.501C237.882 191.58 237.411 191.383 237.333 190.991C236.037 182.117 234.741 173.204 233.445 164.331C232.15 155.457 230.854 146.545 229.558 137.671C228.812 132.645 228.106 127.659 227.36 122.633C227.32 122.24 227.438 121.848 227.87 121.73C228.223 121.651 228.734 121.887 228.773 122.24Z" fill="#140C15"/>
<path d="M196.145 122.123C196.577 131.075 197.009 140.066 197.441 149.018C197.873 157.97 198.305 166.962 198.737 175.914C198.972 180.979 199.208 186.044 199.483 191.069C199.522 192.012 198.069 192.012 198.03 191.069C197.598 182.117 197.166 173.126 196.734 164.174C196.302 155.222 195.87 146.23 195.439 137.278C195.203 132.213 194.967 127.148 194.693 122.123C194.614 121.18 196.067 121.18 196.145 122.123Z" fill="#140C15"/>
<path d="M134.266 122.633C132.97 131.507 131.675 140.419 130.379 149.293C129.083 158.166 127.788 167.079 126.492 175.953C125.746 180.979 125.039 185.965 124.293 190.991C124.254 191.383 123.743 191.58 123.39 191.501C122.958 191.383 122.84 190.991 122.88 190.598C124.175 181.725 125.471 172.812 126.767 163.938C128.062 155.065 129.358 146.152 130.654 137.278C131.4 132.253 132.107 127.266 132.853 122.24C132.892 121.848 133.402 121.651 133.756 121.73C134.188 121.848 134.305 122.24 134.266 122.633Z" fill="#140C15"/>
<path d="M165.205 122.123C164.774 131.075 164.342 140.066 163.91 149.018C163.478 157.97 163.046 166.962 162.614 175.914C162.379 180.979 162.143 186.044 161.868 191.069C161.829 192.012 160.376 192.012 160.415 191.069C160.847 182.117 161.279 173.126 161.711 164.174C162.143 155.222 162.575 146.23 163.007 137.278C163.242 132.213 163.478 127.148 163.753 122.123C163.792 121.18 165.245 121.18 165.205 122.123Z" fill="#140C15"/>
<path d="M234.781 117.764H123.586V124.4H234.781V117.764Z" fill="#F4C06B"/>
<path d="M175.14 105.75C175.414 109.676 175.925 113.603 176.632 117.411C177.495 118.039 185.348 117.961 186.173 117.411C186.879 113.563 187.39 109.637 187.665 105.711H175.14V105.75Z" fill="white"/>
<path d="M186.958 105.279C185.191 105.043 183.425 105.082 181.658 105.082C179.734 105.043 177.771 105.122 175.925 105.357C175.533 105.396 175.061 105.553 175.14 105.789C175.179 105.907 175.376 105.985 175.572 106.064C177.103 106.496 179.263 106.417 180.951 106.417C182.836 106.417 185.427 106.535 187.155 105.985C187.39 105.907 187.665 105.789 187.626 105.632C187.665 105.436 187.272 105.318 186.958 105.279Z" fill="#1A1A1A"/>
<path d="M183.503 97.3475C182.05 100.214 181.304 103.433 180.951 106.653C180.872 107.556 180.794 108.459 180.754 109.362C180.754 109.598 181.147 109.598 181.147 109.362C181.265 106.182 181.736 103.001 182.796 100.017C183.11 99.1929 183.424 98.3683 183.856 97.5831C183.935 97.3082 183.621 97.1119 183.503 97.3475Z" fill="#252E2D"/>
<path d="M188.175 100.92C186.919 101.509 185.663 102.216 184.642 103.158C184.131 103.63 183.66 104.14 183.268 104.69C182.836 105.318 182.482 106.064 182.207 106.771C181.854 107.674 181.501 108.577 181.187 109.48C181.108 109.715 181.501 109.833 181.579 109.598C181.815 108.812 182.09 108.066 182.404 107.32C182.718 106.574 182.993 105.828 183.425 105.161C184.171 104.022 185.191 103.08 186.33 102.373C186.998 101.941 187.665 101.588 188.372 101.274C188.607 101.156 188.411 100.803 188.175 100.92Z" fill="#252E2D"/>
<path d="M177.731 97.74C179.341 100.567 180.519 103.59 181.225 106.771C181.422 107.674 181.579 108.577 181.697 109.48C181.736 109.715 182.128 109.715 182.089 109.48C181.657 106.221 180.715 103.041 179.341 100.057C178.948 99.1927 178.516 98.3682 178.045 97.5437C177.927 97.3081 177.574 97.5044 177.731 97.74Z" fill="#252E2D"/>
<path d="M174.551 102.884C175.336 102.412 176.239 101.981 177.182 101.941C178.085 101.902 178.87 102.412 179.537 103.001C180.715 104.022 181.501 105.396 181.815 106.888C182.011 107.752 182.011 108.616 181.854 109.48C181.815 109.715 182.207 109.833 182.247 109.598C182.521 107.949 182.247 106.221 181.422 104.768C181.029 104.022 180.48 103.355 179.891 102.805C179.223 102.216 178.399 101.666 177.496 101.588C176.357 101.47 175.258 102.02 174.315 102.57C174.158 102.648 174.355 103.001 174.551 102.884Z" fill="#252E2D"/>
<path d="M186.762 98.0149C186.291 98.3683 182.404 100.842 182.286 100.449C181.461 97.2689 182.089 93.5389 183.778 90.7512C184.328 89.8874 184.995 89.0629 185.859 88.5132C186.723 87.9635 187.9 87.8457 188.804 88.3168C189.392 88.631 189.864 89.1414 190.139 89.7303C190.885 91.1831 190.688 92.9892 189.981 94.442C189.314 95.8947 188.097 97.0333 186.762 98.0149Z" fill="#197164"/>
<path d="M183.896 104.258C184.878 100.135 187.469 96.4051 191.003 94.0493C191.67 93.6174 192.652 93.2247 193.241 93.7744C193.437 93.9707 193.555 94.2456 193.633 94.5204C194.497 97.3474 193.044 100.685 190.414 102.02C188.333 103.041 185.741 102.962 183.935 104.376" fill="#197164"/>
<path d="M173.727 96.1695C174.355 96.7977 175.062 97.3081 175.768 97.8186C176.711 98.486 177.692 99.1535 178.478 100.017C178.792 100.331 179.027 100.685 179.341 100.999C179.341 100.999 179.97 98.5253 180.009 98.2112C180.127 97.0333 179.97 95.8161 179.695 94.7168C179.302 93.264 178.635 91.8505 177.457 90.9082C175.651 89.4947 172.549 89.4947 172.156 92.2824C171.999 93.4211 172.431 94.6382 173.177 95.5413C173.295 95.7376 173.491 95.9732 173.727 96.1695Z" fill="#198467"/>
<path d="M177.417 96.3658C176.357 95.5412 174.943 95.2664 173.726 94.6775C173.137 94.4026 172.548 93.9314 172.156 93.421C172.274 94.2063 172.666 94.913 173.137 95.5412C173.334 95.7768 173.53 95.9732 173.726 96.2087C174.355 96.8369 175.061 97.3474 175.768 97.8578C176.71 98.5253 177.692 99.1928 178.477 100.057C178.752 100.331 178.988 100.646 179.223 100.92C179.262 99.1535 178.713 97.3866 177.417 96.3658Z" fill="#197164"/>
<path d="M175.258 104.454C176.004 103.237 176.907 102.648 178.006 101.823C178.045 101.784 178.085 101.784 178.085 101.745C178.085 101.666 178.045 101.627 178.006 101.588C176.828 100.135 175.336 99.075 173.373 99.1928C171.92 99.2714 170.507 100.096 169.722 101.352C169.172 102.216 168.936 103.237 168.858 104.219C168.819 105.161 168.976 106.142 169.486 106.967C169.996 107.752 170.939 108.341 171.881 108.223C172.745 108.145 173.491 107.517 174.001 106.771C174.512 106.064 174.826 105.239 175.258 104.454Z" fill="#198467"/>
<path d="M193.829 95.345C193.751 96.6407 192.769 97.7008 191.631 98.3683C190.453 99.0358 189.118 99.4284 187.979 100.174C186.801 100.96 185.859 102.059 184.995 103.158C184.681 103.512 184.406 103.865 184.131 104.258C185.937 102.962 188.411 103.041 190.414 102.02C192.809 100.842 194.183 97.9757 193.829 95.345Z" fill="#198467"/>
<path d="M185.506 102.059C184.799 101.47 183.778 101.706 182.757 101.941C181.815 102.177 180.755 101.981 179.852 102.255C179.106 102.491 178.399 103.001 178.085 103.708C177.849 104.219 177.81 104.807 177.849 105.357C177.967 106.496 178.399 107.595 179.223 108.38C179.734 108.852 180.323 109.205 180.99 109.441C182.286 109.912 183.857 109.833 184.917 108.969C185.584 108.42 185.977 107.634 186.252 106.81C186.683 105.2 186.723 104.179 186.016 102.687C185.859 102.452 185.702 102.216 185.506 102.059Z" fill="#198467"/>
</svg>
