<svg width="35" height="35" viewBox="0 0 35 35" fill="none" xmlns="http://www.w3.org/2000/svg">
<path d="M15.4132 0C6.91461 0 0 6.91461 0 15.4132C0 23.9124 6.91461 30.8265 15.4132 30.8265C23.9124 30.8265 30.8265 23.9124 30.8265 15.4132C30.8265 6.91461 23.9124 0 15.4132 0ZM15.4132 27.981C8.48346 27.981 2.84553 22.3431 2.84553 15.4133C2.84553 8.48353 8.48346 2.84553 15.4132 2.84553C22.343 2.84553 27.981 8.48346 27.981 15.4132C27.981 22.343 22.343 27.981 15.4132 27.981Z" fill="black"/>
<path d="M34.5829 32.5712L26.4258 24.4141C25.8699 23.8582 24.9698 23.8582 24.4139 24.4141C23.8581 24.9694 23.8581 25.8705 24.4139 26.4259L32.5711 34.5831C32.849 34.8609 33.2128 34.9999 33.577 34.9999C33.9408 34.9999 34.305 34.8609 34.5829 34.5831C35.1388 34.0277 35.1388 33.1266 34.5829 32.5712Z" fill="black"/>
</svg>
